<?xml version="1.0" encoding="UTF-8"?>
<svg width="22px" height="22px" viewBox="0 0 22 22" version="1.1" xmlns="http://www.w3.org/2000/svg" xmlns:xlink="http://www.w3.org/1999/xlink">
    <!-- Generator: Sketch 48.2 (47327) - http://www.bohemiancoding.com/sketch -->
    <title>attachments</title>
    <desc>Created with Sketch.</desc>
    <defs></defs>
    <g id="Symbols" stroke="none" stroke-width="1" fill="none" fill-rule="evenodd">
        <g id="attachments" fill="#D4DCE6" fill-rule="nonzero">
            <path d="M11.2620328,-0.889237719 C9.63696933,-0.89533712 8.07610077,-0.239705816 6.92280593,0.933422456 C5.76951108,2.10655073 5.11826355,3.70107768 5.11233268,5.3662199 L5.11233268,19.4036964 C4.98860283,22.0153937 6.95453959,24.2353694 9.50337537,24.3621508 C12.0522111,24.4889322 14.2187537,22.4745099 14.3424836,19.8628125 L14.3424836,5.3662199 C14.3424836,3.6229753 12.9633188,2.20979633 11.2620328,2.20979633 C9.56074673,2.20979633 8.18158191,3.6229753 8.18158191,5.3662199 L8.18158191,17.0736819 C8.18158192,17.5110778 8.52762691,17.8656572 8.95449503,17.8656572 C9.38136315,17.8656572 9.72740814,17.5110778 9.72740816,17.0736819 L9.72740816,5.3662199 C9.72740816,4.49776714 10.414483,3.79374707 11.2620328,3.79374707 C12.1095825,3.79374707 12.7966574,4.49776714 12.7966574,5.3662199 L12.7966574,19.4036964 C12.7966573,21.1469409 11.4174925,22.5601199 9.71620652,22.5601199 C8.01492051,22.5601199 6.63575569,21.1469409 6.63575566,19.4036964 L6.63575566,5.3662199 C6.63575569,2.74818349 8.7070105,0.625845666 11.2620328,0.625845666 C13.817055,0.625845666 15.8883098,2.74818349 15.8883099,5.3662199 L15.8883099,17.0736819 C15.8629562,17.2791787 15.9183611,17.4865744 16.0423218,17.6501907 C16.1662825,17.813807 16.3486314,17.9202236 16.5492066,17.9460026 C16.7527241,17.9719572 16.9579649,17.9139673 17.1197382,17.7848013 C17.2815115,17.6556353 17.3865525,17.4658842 17.4117329,17.2573283 L17.4117329,5.3662199 C17.3871138,1.90401271 14.640997,-0.889329619 11.2620328,-0.889237719 Z" id="Shape" transform="translate(11.259266, 11.739271) rotate(38.000000) translate(-11.259266, -11.739271) "></path>
        </g>
    </g>
</svg>