<?xml version="1.0" encoding="UTF-8"?>
<svg width="22px" height="22px" viewBox="0 0 152 152" version="1.1" xmlns="http://www.w3.org/2000/svg" xmlns:xlink="http://www.w3.org/1999/xlink">
    <!-- Generator: Sketch 48.2 (47327) - http://www.bohemiancoding.com/sketch -->
    <title>avatar</title>
    <desc>Created with Sketch.</desc>
    <defs></defs>
    <g id="Symbols" stroke="none" stroke-width="1" fill="none" fill-rule="evenodd">
        <g id="avatar" fill="#000000" fill-rule="nonzero">
            <g id="avatar_active">
                <path d="M151.59,139.73 L151.59,144.39 C151.59,148.36645 148.36645,151.59 144.39,151.59 L7.2,151.59 C3.2235498,151.59 1.46141637e-14,148.36645 0,144.39 L0,139.73 C0.14,119 10.79,100.47 27.45,88.19 C41.4987235,77.9931314 58.4412002,72.5582231 75.8,72.68 C93.1560324,72.5561474 110.095962,77.9913628 124.14,88.19 C140.8,100.47 151.45,119 151.59,139.73 Z" id="Shape"></path>
                <path d="M109.51,33.71 C109.514045,47.3502861 101.299913,59.6495229 88.6987054,64.8713029 C76.0974977,70.0930829 61.5915,67.2087784 51.9463608,57.5636392 C42.3012216,47.9185 39.4169171,33.4125023 44.6386971,20.8112946 C49.8604771,8.21008696 62.1597139,-0.00404456248 75.8,-1.9095786e-16 C84.7404479,-7.35532135e-15 93.3147183,3.55157909 99.6365696,9.87343041 C105.958421,16.1952817 109.51,24.7695521 109.51,33.71 Z" id="Shape"></path>
            </g>
        </g>
    </g>
</svg>