<?xml version="1.0" encoding="UTF-8"?>
<svg width="22px" height="22px" viewBox="0 0 152 152" version="1.1" xmlns="http://www.w3.org/2000/svg" xmlns:xlink="http://www.w3.org/1999/xlink">
    <!-- Generator: Sketch 48.2 (47327) - http://www.bohemiancoding.com/sketch -->
    <title>communities</title>
    <desc>Created with Sketch.</desc>
    <defs></defs>
    <g id="Symbols" stroke="none" stroke-width="1" fill="none" fill-rule="evenodd">
        <g id="communities" fill="#000000" fill-rule="nonzero">
            <g id="Shape">
                <path d="M131.2,16.4 C131.2,25.4 123.9,32.7 114.9,32.7 C105.9,32.7 98.6,25.4 98.6,16.4 C98.6,7.4 105.9,0.1 114.9,0.1 C123.9,-2.22044605e-16 131.2,7.3 131.2,16.4 Z"></path>
                <path d="M151.6,67.8 L151.6,85 C151.6,88.8 148.5,91.8 144.8,91.8 L101.4,91.8 L101.3,91.8 C99.4,91 98.5,88.8 99.2,86.9 C99.4,86.5 99.6,86.1 99.9,85.8 C111.1,72.7 109.7,53.1 96.8,41.7 C96.2,41.2 96.1,40.3 96.7,39.7 C96.8,39.6 97,39.4 97.1,39.4 C102.6,36.7 108.7,35.3 114.9,35.3 C123.3,35.2 131.5,37.9 138.3,42.8 C146.3,48.7 151.5,57.7 151.6,67.8 Z"></path>
                <path d="M53.1,16.4 C53.1,25.4 45.8,32.7 36.8,32.7 C27.8,32.7 20.5,25.4 20.5,16.4 C20.5,7.4 27.8,0.1 36.8,0.1 C45.8,-2.22044605e-16 53.1,7.3 53.1,16.4 Z"></path>
                <path d="M50.3,91.8 L6.8,91.8 C3,91.8 0,88.8 0,85 L0,67.8 C0.1,57.7 5.2,48.8 13.3,42.8 C20.1,37.9 28.3,35.2 36.7,35.3 C42.9,35.3 48.9,36.7 54.5,39.4 C55.2,39.8 55.5,40.6 55.1,41.3 C55,41.5 54.9,41.6 54.8,41.7 C41.9,53.1 40.5,72.8 51.7,85.9 C53.1,87.5 52.9,89.8 51.3,91.2 C51,91.4 50.7,91.6 50.3,91.8 Z"></path>
                <path d="M131.1,142.9 L131.1,146.3 C131.1,149.2 128.8,151.6 125.9,151.6 L25.7,151.6 C22.8,151.6 20.4,149.2 20.5,146.3 L20.5,142.9 C20.6,127.7 28.4,114.2 40.5,105.2 C47.6,100 55.8,96.5 64.5,94.9 C72,93.5 79.7,93.5 87.2,94.9 C95.9,96.5 104.1,100 111.2,105.2 C123.3,114.2 131,127.7 131.1,142.9 Z"></path>
                <path d="M100.4,65.4 C100.4,79 89.4,90 75.8,90 C62.2,90 51.2,79 51.2,65.4 C51.2,51.8 62.2,40.8 75.8,40.8 C89.4,40.7 100.4,51.7 100.4,65.4 C100.4,65.3 100.4,65.4 100.4,65.4 Z"></path>
            </g>
        </g>
    </g>
</svg>