<?xml version="1.0" encoding="UTF-8"?>
<svg width="18px" height="18px" viewBox="0 0 18 18" version="1.1" xmlns="http://www.w3.org/2000/svg" xmlns:xlink="http://www.w3.org/1999/xlink">
    <!-- Generator: Sketch 48.2 (47327) - http://www.bohemiancoding.com/sketch -->
    <title>Comment</title>
    <desc>Created with Sketch.</desc>
    <defs></defs>
    <g id="Symbols" stroke="none" stroke-width="1" fill="none" fill-rule="evenodd">
        <g id="Comment" fill="#D4DCE6" fill-rule="nonzero">
            <g id="comments">
                <path d="M16.29,0 L1.71,0 C0.7678647,0.00546179131 0.00546179131,0.7678647 0,1.71 L0,13.3 C0.0108948686,14.2382278 0.771724427,14.9946081 1.71,15 L8.4,15 C8.55820312,14.9973182 8.7108538,15.0582928 8.82367258,15.1692313 C8.93649136,15.2801697 9.00002273,15.4317741 9,15.59 L9,17.48 C9.00026998,17.6454167 9.08075058,17.8004281 9.21589089,17.8958212 C9.3510312,17.9912144 9.5240435,18.0151392 9.68,17.96 L12.68,16.76 L16.89,15.08 C17.5486116,14.8302932 17.9884166,14.2042645 18,13.5 L18,1.71 C17.9945382,0.7678647 17.2321353,0.00546179131 16.29,0 Z M6.08,9 C5.74025171,9 5.43395723,8.79534057 5.30394119,8.48145408 C5.17392515,8.1675676 5.24579199,7.80626862 5.4860303,7.5660303 C5.72626862,7.32579199 6.0875676,7.25392515 6.40145408,7.38394119 C6.71534057,7.51395723 6.92,7.82025171 6.92,8.16 C6.91459987,8.62166388 6.54166388,8.99459987 6.08,9 Z M9,9 C8.53608081,9 8.16,8.62391919 8.16,8.16 C8.16,7.69608081 8.53608081,7.32 9,7.32 C9.46391919,7.32 9.84,7.69608081 9.84,8.16 C9.83459987,8.62166388 9.46166388,8.99459987 9,9 Z M11.92,9 C11.4560808,9 11.08,8.62391919 11.08,8.16 C11.08,7.69608081 11.4560808,7.32 11.92,7.32 C12.3839192,7.32 12.76,7.69608081 12.76,8.16 C12.7545999,8.62166388 12.3816639,8.99459987 11.92,9 Z"></path>
            </g>
        </g>
    </g>
</svg>