<?xml version="1.0" encoding="UTF-8"?>
<svg width="24px" height="24px" viewBox="0 0 24 24" version="1.1" xmlns="http://www.w3.org/2000/svg" xmlns:xlink="http://www.w3.org/1999/xlink">
    <!-- Generator: Sketch 48.2 (47327) - http://www.bohemiancoding.com/sketch -->
    <title>flag</title>
    <desc>Created with Sketch.</desc>
    <defs></defs>
    <g id="Symbols" stroke="none" stroke-width="1" fill="none" fill-rule="evenodd">
        <g id="flag" fill="#000000" fill-rule="nonzero">
            <g transform="translate(0.000000, 1.000000)" id="Shape">
                <path d="M21.71189,9.82474467 C14.3241087,9.15126785 11.2820811,17.8532973 5.72313783,15.637913 C5.39158047,15.5081915 5.14284198,15.2318311 5.05316746,14.8935439 L3.04325637,7.62708347 C2.93955284,7.26600161 3.02492436,6.87808889 3.27131629,6.59082054 C3.51770821,6.3035522 3.89325807,6.1540767 4.27455326,6.19151445 C9.25406272,6.7763759 12.4409488,-1.30534596 19.9373739,0.183392275 C20.3668423,0.269055687 20.7101885,0.584541005 20.824632,0.998653691 L22.9612942,8.40689873 C23.0593212,8.76884363 22.9685301,9.15481999 22.7186673,9.43836877 C22.4688044,9.72191756 22.0920681,9.86649952 21.71189,9.82474467 Z"></path>
                <path d="M5.39678981,21.9999647 L4.29939413,21.9999647 C4.02951707,22.0030708 3.7913495,21.8010079 3.71841994,21.5070623 L0.00664042768,6.46441222 C-0.00221347589,6.361206 -0.00221347589,6.25727251 0.00664042768,6.15406629 C0.0116921324,5.63307887 0.321086948,5.17883631 0.765134503,5.04047204 L0.861963534,5.04047204 L0.958792564,5.04047204 C1.50575153,4.87516956 2.06998438,5.23065904 2.23370814,5.84372035 L5.977764,21.1419494 C6.02857374,21.3466554 5.9912107,21.5664761 5.87691666,21.7352719 C5.76262261,21.9040678 5.58473989,22.0021341 5.39678981,21.9999647 Z"></path>
            </g>
        </g>
    </g>
</svg>