<?xml version="1.0" encoding="UTF-8"?>
<svg width="22px" height="22px" viewBox="0 0 22 22" version="1.1" xmlns="http://www.w3.org/2000/svg" xmlns:xlink="http://www.w3.org/1999/xlink">
    <!-- Generator: Sketch 48.2 (47327) - http://www.bohemiancoding.com/sketch -->
    <title>Gallery</title>
    <desc>Created with Sketch.</desc>
    <defs></defs>
    <g id="Symbols" stroke="none" stroke-width="1" fill="none" fill-rule="evenodd">
        <g id="Gallery">
            <g>
                <g id="photo" transform="translate(0.000000, 2.000000)" fill="#D4DCE6" fill-rule="nonzero">
                    <g id="_822-photo-2-toolbar-selected_2x.png">
                        <path d="M21,0 L1,0 C0.44771525,0 6.76353751e-17,0.44771525 0,1 L0,17 C6.76353751e-17,17.5522847 0.44771525,18 1,18 L21,18 C21.5522847,18 22,17.5522847 22,17 L22,1 C22,0.44771525 21.5522847,0 21,0 Z M18.5,15 L3.5,15 C3.22385763,15 3,14.7761424 3,14.5 C3.00427236,14.3909336 3.04275648,14.2859769 3.11,14.2 L8.11,7.2 C8.20127694,7.07566773 8.34576793,7.00156978 8.5,7 C8.63046381,6.99921626 8.75606672,7.04945743 8.85,7.14 L12.5,10.79 L14.14,9.15 C14.2340756,9.0523416 14.3644142,8.99803386 14.5,9 C14.6413145,9.00401508 14.7749031,9.06539366 14.87,9.17 L18.87,14.17 C18.9547686,14.2588004 19.001428,14.3772434 19,14.5 C19.0026879,14.63168 18.9522521,14.7588979 18.8600663,14.852965 C18.7678806,14.9470321 18.6417074,15.0000274 18.51,15 L18.5,15 Z M17,7 C15.8954305,7 15,6.1045695 15,5 C15,3.8954305 15.8954305,3 17,3 C18.1045695,3 19,3.8954305 19,5 C19,5.53043298 18.7892863,6.03914081 18.4142136,6.41421356 C18.0391408,6.78928632 17.530433,7 17,7 Z" id="Shape"></path>
                    </g>
                </g>
                <rect id="Rectangle-path" x="0" y="0" width="22" height="22"></rect>
            </g>
        </g>
    </g>
</svg>