<?xml version="1.0" encoding="UTF-8"?>
<svg width="22px" height="22px" viewBox="0 0 22 22" version="1.1" xmlns="http://www.w3.org/2000/svg" xmlns:xlink="http://www.w3.org/1999/xlink">
    <!-- Generator: Sketch 48.2 (47327) - http://www.bohemiancoding.com/sketch -->
    <title>Intro</title>
    <desc>Created with Sketch.</desc>
    <defs></defs>
    <g id="Symbols" stroke="none" stroke-width="1" fill="none" fill-rule="evenodd">
        <g id="Intro">
            <g>
                <g id="Group" transform="translate(0.000000, 2.000000)" fill="#D4DCE6" fill-rule="nonzero">
                    <path d="M4.50952313,0.926747949 L3.3502396,0.324322839 C3.24296213,0.263552166 3.11469709,0.254877738 3.00050284,0.300670513 C2.88630858,0.346463289 2.79812639,0.441934723 2.76005889,0.560989846 C2.74951995,0.743868897 0.0620899438,6.5206954 0.0620899438,6.5206954 C0.0620899438,6.5206954 -0.106533115,6.99402941 0.241251944,7.17690846 L1.29514606,7.75781839 C1.42142548,7.84289335 1.57887301,7.86438887 1.72261697,7.81617883 C1.86636093,7.76796879 1.98063509,7.65534102 2.03287195,7.51039379 L4.66760724,1.66902174 C4.66760724,1.66902174 4.91000289,1.16341496 4.50952313,0.926747949 Z" id="Shape"></path>
                    <path d="M18.9689504,6.43463467 L16.2709815,0.625535394 C16.2709815,0.625535394 16.0496637,0.119928605 15.6281061,0.302807656 L14.4688226,0.905232766 C14.3576761,0.960034448 14.2739958,1.0597198 14.237977,1.1802309 C14.2019582,1.30074199 14.2168729,1.43113123 14.2791216,1.53993065 C14.3528942,1.69053693 16.9665516,7.51039379 16.9665516,7.51039379 C16.9665516,7.51039379 17.2089473,7.94069744 17.5672713,7.76857598 L18.6211654,7.24145401 C18.7871635,7.20295199 18.9254803,7.08645851 18.9940383,6.92741213 C19.0625963,6.76836575 19.05329,6.58557051 18.9689504,6.43463467 Z" id="Shape"></path>
                    <path d="M13.7627135,2.20690131 C13.0228344,2.19367774 12.2898333,2.05929076 11.5916916,1.80887043 C11.1197127,1.66128181 10.6306779,1.57808501 10.1373177,1.56144583 C9.41222347,1.60108005 8.70722065,1.81881409 8.08222419,2.19614372 L5.20509325,2.19614372 L4.79407454,3.11053897 L6.68054501,3.11053897 C6.38392611,3.5152522 6.20167271,3.99522143 6.15359795,4.49826824 C6.20422004,5.03325859 6.09000805,5.57103794 5.82689078,6.03660379 C5.5528783,6.87569591 6.7543176,6.97251423 6.7543176,6.97251423 C7.74940567,6.82743204 8.51680022,6.00406055 8.60917125,4.98235985 C8.89679946,4.39739246 9.58932753,4.15379997 10.1689345,4.4337227 L15.4384051,9.28539635 C15.680222,9.5441501 15.723327,9.93574339 15.5437946,10.242822 C15.3739365,10.5224729 15.0360534,10.6434094 14.7322961,10.5332769 L11.0436667,7.73630321 C10.3691744,7.56418175 10.5799533,8.23115241 10.5799533,8.23115241 L14.1737322,11.0173685 C14.3270498,11.2400464 14.3270498,11.5369644 14.1737322,11.7596423 C13.9734923,12.1254004 13.5097789,11.9210062 13.5097789,11.9210062 L10.2216293,9.47903299 C9.59983172,9.47903299 9.84222737,10.0276701 9.84222737,10.0276701 L12.5823521,12.1254004 C12.7722119,12.3352131 12.7982589,12.6498298 12.6455857,12.8891894 C12.5151654,13.1350025 12.2220146,13.2378638 11.9710935,13.1258564 L9.48390337,11.2002476 C8.8515669,11.1141869 9.05180678,11.6735816 9.05180678,11.6735816 L10.7801931,13.0720685 C10.7801931,13.8573726 10.0003115,13.5454025 10.0003115,13.5454025 L9.48390337,13.1796444 C9.12557937,12.9107046 8.92533949,12.7385831 8.92533949,12.7385831 L8.43000925,12.3405523 C8.41559336,12.0770987 8.30682156,11.8282418 8.12437996,11.6413088 C7.9020603,11.4352802 7.59258182,11.3583304 7.30234254,11.4369146 C7.20501222,11.3697878 7.11647248,11.2902563 7.03886901,11.2002476 C7.06468959,10.8838547 6.94343674,10.5734521 6.71142349,10.3619996 C6.47941024,10.1505471 6.16357608,10.0625969 5.8585076,10.1244885 L5.6793456,9.90933664 C5.76324947,9.58180557 5.70570264,9.23327709 5.52126148,8.95191102 C5.23671007,8.41403146 4.46736736,8.6076681 4.46736736,8.6076681 L3.16053865,6.95099905 L2.80221465,7.75781839 L3.85610877,9.19933562 L3.13946077,10.2750947 C2.8762211,10.6345696 2.90747644,11.135915 3.21323336,11.4584298 C3.41187473,11.6687965 3.68579967,11.78764 3.97203713,11.78764 C4.25827458,11.78764 4.53219952,11.6687965 4.73084089,11.4584298 C4.46480623,11.8513301 4.50435781,12.3806539 4.82569136,12.7278255 C5.02727696,12.9470163 5.31717939,13.0581807 5.61028867,13.0286831 C5.90339794,12.9991855 6.16645125,12.8323732 6.32222101,12.5772193 C5.87958548,13.373281 6.32222101,13.7497967 6.32222101,13.7497967 C7.17587525,14.664192 7.90306219,13.4485842 7.90306219,13.4485842 C7.68090609,13.8181708 7.74725063,14.2967324 8.06114631,14.5888888 C8.9042616,15.2666171 9.48390337,14.0725245 9.48390337,14.0725245 C9.74068226,14.2769755 10.0677703,14.3662674 10.3902523,14.3199491 C10.8257774,14.2636539 11.1886279,13.9521992 11.3176791,13.5238873 C11.7580244,13.94982 12.4301215,14.0036272 12.9301371,13.6529784 C13.2393627,13.4228096 13.4200713,13.0538941 13.4149284,12.66328 C13.8244227,12.7934374 14.270345,12.6573107 14.5425951,12.3190371 C14.8273885,12.0419666 14.9612389,11.6401213 14.9009191,11.243278 C15.389312,11.2561586 15.8457811,10.9963871 16.0918195,10.5655497 C16.4051025,9.98029542 16.3250002,9.257328 15.8915796,8.75827438 L16.3025983,7.77933357 L13.7627135,2.20690131 Z" id="Shape"></path>
                </g>
                <rect id="Rectangle-path" x="0" y="0" width="19" height="19"></rect>
            </g>
        </g>
    </g>
</svg>