<svg xmlns="http://www.w3.org/2000/svg" viewBox="0 0 59.35 14.84"><defs><style>.cls-1{fill:#fff;}.cls-2{fill:#a32035;}</style></defs><title>Other.ly logo for nav</title><g id="Layer_2" data-name="Layer 2"><g id="Layer_1-2" data-name="Layer 1"><path class="cls-1" d="M9.07,5.34A3.82,3.82,0,0,0,8.19,4a4.13,4.13,0,0,0-1.47-.89,6.08,6.08,0,0,0-2-.31,5.91,5.91,0,0,0-2,.31A4,4,0,0,0,1.18,4,3.84,3.84,0,0,0,.29,5.35,4.7,4.7,0,0,0,0,7,4.41,4.41,0,0,0,.53,9.2a3.67,3.67,0,0,0,1.58,1.51,5.45,5.45,0,0,0,2.57.56,5.45,5.45,0,0,0,2.57-.56A3.81,3.81,0,0,0,8.84,9.2,4.41,4.41,0,0,0,9.37,7,4.58,4.58,0,0,0,9.07,5.34ZM6.37,6.58v.16h0A3,3,0,0,1,4.68,8.85,3.12,3.12,0,0,1,3,6.76c0-.07,0-.15,0-.23V6.47a.91.91,0,0,1,.76-.89h.16a.89.89,0,0,1,.77.4.91.91,0,0,1,.78-.4h.15a.9.9,0,0,1,.76.89Z"/><path class="cls-1" d="M16.75,10.65a7.64,7.64,0,0,1-1.24.42,6.34,6.34,0,0,1-1.51.2q-3.12,0-3.12-3V5H9.57V4.45L13.44.51h.33V3h2.76V5H13.77V7.58a3.56,3.56,0,0,0,.06.73.72.72,0,0,0,.32.47,1.3,1.3,0,0,0,.79.19,4.21,4.21,0,0,0,1.81-.58Z"/><path class="cls-1" d="M26.18,11.12H23.29V6.88a.28.28,0,0,1,0-.09V6.6a2.28,2.28,0,0,0-.25-1.07A1,1,0,0,0,22.1,5a1.43,1.43,0,0,0-1,.36,4.87,4.87,0,0,0-.79.92v4.8H17.46V0h2.89V4.12a4,4,0,0,1,1.41-1,3.86,3.86,0,0,1,1.48-.28q2.94,0,2.94,3.3Z"/><path class="cls-1" d="M35.57,7.74H29.82A2,2,0,0,0,30.64,9a2.55,2.55,0,0,0,1.5.47,7.7,7.7,0,0,0,3.22-.82V10.4a8.54,8.54,0,0,1-1.54.6,8.11,8.11,0,0,1-2.29.27A5.33,5.33,0,0,1,29,10.7a3.71,3.71,0,0,1-1.59-1.52A4.48,4.48,0,0,1,26.85,7a4.4,4.4,0,0,1,.52-2.16A3.65,3.65,0,0,1,29,3.35a5.58,5.58,0,0,1,2.57-.54,4.48,4.48,0,0,1,1.92.43A3.46,3.46,0,0,1,35,4.64a4.75,4.75,0,0,1,.6,2.52ZM32.86,6.31a1.9,1.9,0,0,0-.39-1.26,1.38,1.38,0,0,0-1.12-.47,1.53,1.53,0,0,0-1.17.48,1.74,1.74,0,0,0-.44,1.25Z"/><path class="cls-1" d="M43.48,3.39l-1.07,2.9a1.92,1.92,0,0,0-1.33-.62A1.49,1.49,0,0,0,40,6.08a4,4,0,0,0-.85,1.53v3.51H36.28V3h2.89v2a4.09,4.09,0,0,1,1-1.43,2.22,2.22,0,0,1,1.62-.69,2.5,2.5,0,0,1,.86.14A8.92,8.92,0,0,1,43.48,3.39Z"/><path class="cls-1" d="M49.28,11.12H46.39V0h2.89Z"/><path class="cls-1" d="M59.35,3,53.8,14.84H50.88l2.24-4.79L49.89,3H53L54.66,7,56.54,3Z"/><path class="cls-2" d="M45.29,9.38a1.66,1.66,0,0,1-.49,1.22,1.64,1.64,0,0,1-1.22.51,1.71,1.71,0,0,1-1.23-.51,1.71,1.71,0,0,1,0-2.44,1.7,1.7,0,0,1,1.23-.5,1.66,1.66,0,0,1,.86.23,1.63,1.63,0,0,1,.63.62A1.76,1.76,0,0,1,45.29,9.38Z"/></g></g></svg>