<?xml version="1.0" encoding="UTF-8"?>
<svg width="18px" height="18px" viewBox="0 0 18 18" version="1.1" xmlns="http://www.w3.org/2000/svg" xmlns:xlink="http://www.w3.org/1999/xlink">
    <!-- Generator: Sketch 48.2 (47327) - http://www.bohemiancoding.com/sketch -->
    <title>Pass</title>
    <desc>Created with Sketch.</desc>
    <defs></defs>
    <g id="Symbols" stroke="none" stroke-width="1" fill="none" fill-rule="evenodd">
        <g id="Pass">
            <g>
                <g id="pass_button_friendstate_post" transform="translate(0.000000, 1.000000)" fill="#FFFFFF" fill-rule="nonzero">
                    <path d="M17.9,7.7 L10.5,0.3 C10.4,0.2 10.2,0.1 10,0.2 C9.8,0.3 9.7,0.4 9.7,0.6 L9.7,5 C7.8,5.2 0.6,6.4 0,15.2 C0,15.4 0.1,15.6 0.3,15.7 L0.4,15.7 C0.6,15.7 0.7,15.6 0.8,15.5 C0.8,15.5 3.8,10 9.7,10.9 L9.7,15.5 C9.7,15.7 9.8,15.8 10,15.9 C10.2,16 10.4,15.9 10.5,15.8 L17.9,8.4 C18,8.2 18,7.9 17.9,7.7 Z" id="Shape"></path>
                </g>
                <rect id="Rectangle-path" x="0" y="0" width="18" height="18"></rect>
            </g>
        </g>
    </g>
</svg>