<?xml version="1.0" encoding="UTF-8"?>
<svg width="375px" height="166px" viewBox="0 0 375 166" version="1.1" xmlns="http://www.w3.org/2000/svg" xmlns:xlink="http://www.w3.org/1999/xlink">
    <!-- Generator: Sketch 48.2 (47327) - http://www.bohemiancoding.com/sketch -->
    <title>pattern</title>
    <desc>Created with Sketch.</desc>
    <defs>
        <rect id="path-1" x="0" y="0" width="375" height="166"></rect>
        <rect id="path-3" x="0" y="0" width="375" height="166"></rect>
    </defs>
    <g id="pattern" stroke="none" stroke-width="1" fill="none" fill-rule="evenodd" opacity="0.14209692">
        <g>
            <g>
                <mask id="mask-2" fill="white">
                    <use xlink:href="#path-1"></use>
                </mask>
                <use id="Mask-Copy" fill="#FFFFFF" xlink:href="#path-1"></use>
                <mask id="mask-4" fill="white">
                    <use xlink:href="#path-3"></use>
                </mask>
                <use id="Mask" fill="#8C97A3" opacity="0.82959692" xlink:href="#path-3"></use>
                <g id="Page-1" mask="url(#mask-4)" fill="#FFFFFF">
                    <g transform="translate(196.500000, 124.994048) rotate(-225.000000) translate(-196.500000, -124.994048) translate(-24.000000, -169.952381)">
                        <path d="M47.2174793,296.594548 C47.3394097,296.800818 47.4170018,297.007088 47.5389322,297.124956 C47.5832706,297.169157 47.8160468,297.066022 47.8271314,297.007088 C47.8493005,296.800818 47.838216,296.56508 47.7938776,296.373544 C47.7606239,296.255675 47.572186,296.093606 47.5389322,296.123073 C47.4059172,296.226208 47.3283252,296.403011 47.2174793,296.594548 Z M13.3429946,304.256009 C13.2432334,303.696133 13.1323876,303.136257 13.0326263,302.576381 C12.9772034,302.266975 12.9993726,301.795501 12.855273,301.648165 C12.1126059,300.92622 12.1791134,299.998004 12.3342976,298.996121 C12.3786359,298.701449 12.3897205,298.33311 12.3121284,298.053172 C12.0017601,297.036555 11.8687451,296.034671 12.1680289,294.95912 C12.2677901,294.590781 12.2234518,294.13404 12.2012826,293.7215 C12.1347751,292.557547 12.3010439,291.511463 12.6779197,290.406444 C13.1323876,289.080422 13.3762484,287.592331 13.5425171,286.133706 C13.6644475,285.043421 13.9859004,284.085739 14.2851842,283.098589 C14.4625375,282.494512 14.6288062,281.860968 14.739652,281.227424 C14.9502591,279.945603 15.5044883,278.840585 15.9811253,277.7503 C16.3247474,276.939953 16.9565686,276.365343 17.1117527,275.304526 C17.1560911,274.95092 17.6327281,274.656248 17.954181,274.464712 C18.220211,274.302642 18.5860022,274.405777 18.8520322,274.243708 C19.5392764,273.860635 20.1932667,273.403894 20.4482121,272.328343 C20.7253267,271.120189 21.5123321,270.560313 22.2993374,270.059371 C22.9089895,269.661565 23.5518953,269.35216 24.1837165,269.042754 C25.4695281,268.409211 26.8218472,268.217674 28.1741663,268.040871 C28.606465,267.981937 29.0498483,268.055605 29.4710624,267.95247 C31.1448344,267.510462 32.7964372,268.011404 34.4480401,268.144006 C34.6808163,268.15874 34.9246771,268.306075 35.1463688,268.438678 C36.2215733,269.057488 37.3078624,269.676298 38.3719823,270.339309 C39.5469481,271.075988 40.7773368,271.724266 41.8636259,272.652481 C43.6039054,274.140573 45.0559857,276.011737 45.7986527,278.707982 C46.0425136,279.621464 46.5302352,280.417078 46.8960264,281.271625 C46.9847031,281.463162 47.0512106,281.698899 47.2063947,281.330559 C47.2950714,281.139023 47.4502556,280.814884 47.572186,281.197957 C48.2261763,283.172257 48.6473905,285.220224 48.7360672,287.386061 C48.7804055,288.446878 48.9466742,289.507696 48.9910126,290.568514 C49.0242663,291.467262 48.9577588,292.36601 48.9134205,293.264759 C48.8690821,294.075105 48.7693209,294.885452 48.7360672,295.710533 C48.7028134,296.535613 48.713898,297.360694 48.713898,298.17104 C48.7249826,301.559764 48.2150918,304.860085 47.7606239,308.175141 C47.6941164,308.661349 47.6941164,309.162291 47.6830318,309.663232 C47.6719472,310.915586 47.5056785,312.12374 47.0179568,313.228758 C46.6965039,313.965437 46.6078273,314.775784 46.5634889,315.600865 C46.4637277,317.236292 46.3528819,318.886453 45.6878069,320.345077 C45.6102148,320.52188 45.5880457,320.831285 45.6434686,321.022822 C45.9870906,322.113107 45.5437073,322.761384 44.9451399,323.306527 C44.3354878,323.866403 43.7258358,324.470479 43.0607608,324.88302 C41.8303721,325.634432 40.7662522,326.857319 39.3695948,327.166724 C38.9705498,327.255126 38.593674,327.667666 38.2167982,327.962338 C36.8866483,329.023155 35.5010754,329.90717 33.9603184,330.378645 C33.0624672,330.658583 32.1978698,331.144791 31.3554415,331.630999 C30.8788044,331.910937 30.4354211,331.999338 29.9255303,331.969871 C29.00551,331.92567 28.074405,331.999338 27.1433001,331.999338 C26.2897872,332.014072 25.4473589,331.778335 24.5938461,331.734134 C23.2082732,331.6752 22.1884916,330.599648 21.2130483,329.420962 C20.8915954,328.257009 20.026998,327.785535 19.4062614,327.034122 C18.7079326,326.194308 18.0096039,325.428162 17.6659819,324.220008 C17.4442902,323.453862 17.078499,323.026589 16.4023395,323.100256 C16.1363095,323.129724 15.8813641,322.658249 16.0587174,322.466713 C16.5907774,321.892103 16.3136628,321.376428 16.1252249,320.801818 C15.7150953,319.519997 15.0278512,318.429712 14.795075,317.015288 C14.5955525,315.807135 14.3516917,314.628448 14.2408458,313.390828 C14.13,312.182674 13.9193929,311.003988 13.86397,309.781101 C13.8085471,308.70555 13.9748158,307.482663 13.3984175,306.466046 C13.1102184,305.965104 13.5536017,305.567297 13.6422784,305.12529 C13.730955,304.683282 13.7087859,304.314943 13.3097409,304.167607 L13.3429946,304.256009 Z" id="Fill-1"></path>
                        <path d="M334.042274,461.629112 C334.009111,461.673067 333.931732,461.717023 333.931732,461.760978 C333.942786,461.892844 333.975949,462.024711 334.009111,462.156577 C334.042274,462.09797 334.108599,462.054014 334.108599,461.995407 C334.108599,461.863541 334.064382,461.731675 334.042274,461.629112 M308.584544,490.566442 C307.136449,488.632402 306.174737,486.244157 305.080375,483.987778 C304.538832,482.87424 304.0855,481.731399 303.908634,480.398084 C303.831255,479.855967 303.698605,479.31385 303.333818,478.903599 C303.134843,478.66917 303.068518,478.200312 302.957976,477.834016 C302.869543,477.54098 302.858489,477.072122 302.70373,476.96956 C301.929939,476.412791 301.941104,475.35786 301.686748,474.449448 C301.421448,473.526384 301.178256,472.603319 300.835688,471.738862 C300.371303,470.552066 300.139165,469.277358 300.072951,467.973347 C300.039678,467.226104 299.951355,466.537469 299.774378,465.81953 C299.597511,465.057636 299.29916,464.310394 299.608566,463.445937 C299.697109,463.211508 299.586568,462.815909 299.498024,462.522872 C299.011752,460.96978 298.878991,459.372733 299.111128,457.717078 C299.288106,456.44237 299.276941,455.138359 299.48697,453.834348 C299.75227,452.207996 300.316032,450.757467 300.625659,449.175071 C300.791471,448.295962 300.890959,447.358246 301.211419,446.596352 C301.686858,445.468163 302.283783,444.39858 302.924814,443.402257 C303.886636,441.907772 304.770969,440.310725 305.887439,439.006713 C306.119576,438.742981 306.329605,438.420641 306.52858,438.112953 C307.479238,436.691727 307.51229,436.105654 309.336226,436.252173 C309.457933,436.266824 309.590583,436.237521 309.701124,436.178914 C311.303977,435.34376 312.85156,435.885877 314.42114,436.47195 C315.957668,437.04337 317.461034,437.790613 319.030835,438.244819 C319.981493,438.508552 320.93204,439.050669 321.761102,439.724652 C322.78925,440.559805 323.927717,440.882145 325.033133,441.424262 C325.198946,441.512173 325.420029,441.600084 325.574787,441.526825 C327.111316,440.882145 327.84089,442.391282 328.603627,443.592731 C329.244879,444.589054 329.709043,445.761199 330.250697,446.860085 C330.527051,447.402202 330.748134,448.017578 331.079759,448.501088 C332.350987,450.37652 333.069508,452.647551 333.854353,454.874626 C334.009111,455.314181 334.108709,455.79769 334.185978,456.2812 C334.462332,458.039418 334.727632,459.812434 334.970823,461.585156 C335.048313,462.171229 335.004096,462.713346 334.429169,462.90382 C334.009222,463.035686 333.887626,463.533847 333.89868,464.061313 C333.89868,464.149224 333.909734,464.222483 333.89868,464.310394 C333.832355,465.599753 334.329792,466.830505 333.987003,468.193124 C333.677597,469.409224 333.666543,470.771843 333.544837,472.061202 C333.478512,472.793793 333.478512,473.541035 333.456514,474.273626 C333.390189,476.017192 333.124889,477.687498 332.572181,479.269894 C331.820388,481.423711 331.112921,483.606977 330.372403,485.760647 C330.195537,486.27346 329.952235,486.771622 329.698099,487.225828 C329.554285,487.474909 329.333202,487.826553 329.145391,487.826553 C328.305275,487.826553 328.05103,488.661852 327.619807,489.364993 C326.45912,491.299179 325.15484,493.057396 323.386174,494.038921 C322.601218,494.478475 321.72805,494.698253 320.976257,495.211066 C320.058761,495.841241 319.09705,496.104827 318.102175,496.002264 C316.576701,495.841094 315.062281,495.460147 313.536807,495.24037 C312.950937,495.152459 312.332014,494.742355 311.834577,494.288002 C310.729161,493.247723 309.568474,492.295355 308.650868,490.932883 C308.5736,490.830174 308.562435,490.639847 308.518329,490.493329 C308.606652,490.42007 308.695196,490.332013 308.783518,490.258753 C308.739412,490.22945 308.695085,490.185494 308.650868,490.156191 C308.62876,490.302709 308.606652,490.434575 308.584544,490.566442" id="Fill-7"></path>
                        <path d="M282.296405,331.06237 C283.819517,330.797802 285.031335,331.88547 286.35433,332.590984 C288.044206,333.502273 289.144848,335.295454 290.356667,336.897559 C291.490662,338.396776 292.591305,339.984183 293.414007,341.836157 C293.603007,342.262405 293.825359,342.673955 293.925417,343.144297 C294.74812,347.098115 295.926586,350.91965 296.41576,354.991053 C296.560289,356.211005 296.715935,357.430956 296.771523,358.650907 C296.827111,359.797367 296.738171,360.943828 296.960523,362.090288 C297.038346,362.472441 296.982758,362.913388 296.949405,363.310239 C296.860464,364.4567 296.760406,365.588462 296.660347,366.734922 C296.638112,367.058282 296.64923,367.396341 296.593642,367.719702 C296.126702,370.262492 295.704234,372.834678 295.126118,375.348072 C294.725885,377.067762 294.136652,378.713962 293.547419,380.345463 C293.258361,381.139166 292.84701,381.84468 292.257777,382.403212 C291.612956,383.020537 291.057076,383.843636 290.556784,384.666736 C290.123197,385.386948 289.711846,386.048368 289.122613,386.577503 C288.588968,387.047699 287.899677,387.518189 288.21097,388.708743 C288.244322,388.841027 288.055323,389.14969 287.921912,389.296672 C287.332679,389.928695 286.654505,390.413736 285.887391,390.428287 C284.786748,390.443132 283.808399,390.913475 282.885638,391.574894 C281.284703,392.721354 279.494769,393.147455 277.793776,393.941306 C277.349072,394.147081 276.815427,394.044193 276.315135,394.073589 C275.881548,394.088288 275.425727,393.970702 275.014376,394.117684 C274.047144,394.470294 273.168742,394.029348 272.25721,393.82372 C271.890218,393.735384 271.55669,393.456265 271.201038,393.367929 C269.644574,393.015318 268.510578,391.751126 267.421053,390.399037 C267.332001,390.281305 267.276413,390.134323 267.187583,390.016884 C266.720533,389.370163 266.131411,388.811484 265.809001,388.047324 C265.431002,387.12119 265.253121,386.048368 265.052893,385.004795 C264.808417,383.65256 264.630535,382.270781 264.430307,380.903995 C264.385836,380.580634 264.252425,380.213179 264.319131,379.933913 C264.741711,378.258317 264.241419,376.700307 264.096779,375.083504 C263.852303,372.437827 264.096779,369.836244 264.541483,367.249359 C265.119709,363.883469 265.820007,360.561674 266.264711,357.166388 C266.542651,355.064544 266.909643,353.021493 267.43206,350.993141 C267.665529,350.09655 267.887881,349.244054 268.254762,348.406256 C268.577173,347.671346 269.066458,346.892194 268.799525,345.878164 C268.766172,345.74588 268.810642,345.554804 268.855113,345.407821 C269.877932,342.409387 270.745105,339.293367 272.846332,337.206221 C272.990861,337.059239 273.202095,336.926955 273.257683,336.72118 C273.669034,335.280609 274.702971,334.781017 275.547909,333.987167 C275.948143,333.605013 276.403965,333.311049 276.793081,332.914197 C277.960429,331.679548 279.383482,331.41498 280.773182,331.047525 C281.284703,330.959483 281.796113,331.06237 282.296405,331.06237" id="Fill-9"></path>
                        <path d="M282.425297,269.065134 C282.391682,268.9171 282.346861,268.783868 282.313245,268.635833 C282.268425,268.695047 282.178783,268.754261 282.189988,268.798672 C282.212399,268.946707 282.268425,269.094741 282.30204,269.242776 C282.346861,269.183562 282.391682,269.124348 282.425297,269.065134 M282.851094,267.481162 C282.806273,267.273913 282.750248,267.051861 282.705427,266.844612 C282.570965,266.96304 282.436502,267.066665 282.30204,267.185092 C282.391682,267.362734 282.481323,267.555179 282.570965,267.732821 C282.649401,267.658804 282.727837,267.584786 282.851094,267.481162 M260.07096,289.50874 C258.457414,289.567954 257.011946,288.783369 255.510451,288.235641 C253.415082,287.480663 252.182513,285.482193 250.837891,283.557741 C250.456915,283.010012 250.16558,282.343856 249.739783,281.870144 C249.179524,281.248398 248.843368,280.493421 248.619265,279.620015 C248.215878,278.050847 247.834902,276.481678 247.409105,274.912509 C247.084155,273.72823 246.972103,272.499542 247.005719,271.256049 C247.016924,270.782338 247.140181,270.293823 247.229822,269.834915 C247.274643,269.59806 247.453926,269.361204 247.431516,269.153955 C247.285848,267.629197 247.812492,266.23767 247.924544,264.757322 C248.00298,263.676668 248.126237,262.640424 247.902133,261.55977 C247.812492,261.100862 247.868518,260.567937 247.846107,260.079422 C247.812492,259.22082 248.776137,258.850733 248.439982,257.8589 C248.171058,257.089119 248.462392,256.408159 248.619265,255.697592 C248.787343,254.898204 248.854574,254.054406 249.078677,253.299428 C249.280371,252.618468 249.5605,251.907901 249.952681,251.43419 C250.546556,250.738426 250.938737,249.909432 251.140431,248.962009 C251.286098,248.281049 251.543817,247.659303 251.913588,247.318823 C252.910849,246.41581 253.594365,245.098301 254.524395,244.121271 C255.297553,243.292276 255.857812,242.196819 256.67579,241.412234 C257.482563,240.657257 258.177285,239.680227 258.872006,238.718001 C259.387444,237.99263 260.093371,237.889006 260.720861,237.652298 C261.919815,237.193242 263.16359,236.92678 264.384955,236.542037 C265.808013,236.082981 267.219866,235.949898 268.642924,236.601103 C269.763442,237.119225 270.895166,237.622691 272.049299,237.977827 C272.74402,238.199879 273.32669,238.629328 273.886949,239.14745 C275.007467,240.198349 276.240037,241.131116 277.170067,242.433822 C278.58192,244.402685 279.825695,246.608404 281.04706,248.799319 C281.551293,249.717134 281.842628,250.856854 282.145168,251.937656 C282.503734,253.255018 282.761453,254.631742 283.086403,255.979006 C283.321712,256.955888 283.422558,257.962525 283.18725,258.910095 C282.963146,259.798304 282.90712,260.671709 282.940736,261.589377 C282.974351,262.670179 282.940736,263.750833 282.638196,264.772125 C282.570965,264.994177 282.559759,265.275592 282.626991,265.497644 C282.671811,265.690089 282.851094,265.82332 282.985556,265.941748 C283.007967,265.956404 283.198455,265.77891 283.220865,265.645679 C283.344122,265.009129 283.422558,264.357776 283.53461,263.721226 C283.579431,263.484371 283.657867,263.247515 283.725098,263.025463 C283.747509,262.951445 283.803535,262.907035 283.848355,262.833017 C283.904381,262.951445 283.994023,263.069725 283.994023,263.188301 C283.982817,263.839654 284.050049,264.535418 283.904381,265.142212 C283.254481,267.806839 282.593375,270.456809 282.021911,273.151043 C281.853833,273.935627 281.618524,274.735015 281.304779,275.445582 C280.923803,276.318839 280.598853,277.162638 280.531622,278.198881 C280.498006,278.731955 280.273902,279.38316 279.971363,279.72364 C278.682767,281.144922 277.517428,282.817715 275.892676,283.587496 C274.951441,284.0316 273.999001,284.446098 273.057766,284.890202 C271.993273,285.393521 270.928781,285.837625 269.886699,286.429764 C267.567227,287.73247 265.102087,288.354217 262.692973,289.212818 C261.852584,289.523543 260.944964,289.419919 260.07096,289.50874" id="Fill-15"></path>
                        <path d="M127.011668,323.930877 C126.979061,323.871993 126.946454,323.81311 126.913847,323.754226 C126.88124,323.871993 126.826895,324.004481 126.805157,324.13697 C126.794288,324.181132 126.859502,324.254737 126.892109,324.31362 C126.935585,324.181132 126.979061,324.048644 127.011668,323.930877 M128.152913,320.059279 C128.913743,319.323234 128.892005,318.027794 129.326765,317.056215 C129.359372,316.98261 129.511538,316.98261 129.59849,316.98261 C129.631097,316.98261 129.685442,317.115098 129.685442,317.173982 C129.696311,317.424237 129.728918,317.674492 129.696311,317.910027 C129.652835,318.233887 129.565883,318.543026 129.478931,318.852165 C128.305079,323.091785 127.044275,327.272522 125.500877,331.30605 C125.087855,332.380676 124.522667,333.116721 123.772706,333.74972 C122.620592,334.7213 121.348919,335.20709 120.077246,335.722321 C119.783783,335.840089 119.49032,336.002019 119.185988,336.002019 C117.653459,335.972577 116.186144,336.546692 114.686222,336.811668 C113.83844,336.958877 113.001527,337.032482 112.153745,336.738064 C111.153797,336.399483 110.132111,336.208111 109.110425,336.016739 C107.306171,335.663438 105.969284,334.39744 105.023682,332.307072 C104.458494,331.041074 103.84983,329.804518 103.360725,328.494357 C103.121607,327.861358 103.078131,327.06643 102.969441,326.345105 C102.882489,325.785711 102.925965,325.137991 102.730323,324.666922 C102.099921,323.180111 102.089052,321.575532 102.012969,319.941512 C101.936886,318.27805 102.21948,316.688192 102.241218,315.054172 C102.252087,314.200359 102.665109,313.287663 102.067314,312.507455 C102.154266,311.108969 102.230349,309.725204 102.317301,308.326718 C102.339039,308.002858 102.491205,307.634836 102.415122,307.369859 C102.056445,306.192187 102.425991,305.117561 102.567288,303.984051 C103.154214,299.494176 104.273721,295.239834 105.556263,291.044376 C105.860594,290.058076 106.186664,289.086496 106.480127,288.085475 C106.588817,287.717452 106.708376,287.319988 106.740983,286.922523 C106.925756,283.904738 108.327857,282.079346 110.099504,280.607255 C110.458181,280.312837 110.892941,280.165628 111.22988,279.827047 C112.447208,278.561049 113.762357,277.618912 115.207934,276.882866 C116.849153,276.043775 118.446896,275.028032 120.044639,274.027011 C120.642434,273.658988 121.185884,273.511779 121.751072,274.085894 C121.946714,274.277266 122.174963,274.512801 122.392343,274.527522 C124.413977,274.704172 125.609567,276.559006 126.826895,278.428561 C127.250786,279.076281 127.522511,279.738722 127.674677,280.548371 C127.892057,281.681881 127.620332,282.668182 127.250786,283.625041 C127.09862,284.037226 127.109489,284.405248 127.272524,284.787992 C127.892057,286.201199 128.500721,287.629127 129.120254,289.042333 C130.044119,291.132702 130.402796,293.473326 130.663651,295.843391 C130.935376,298.345945 131.087542,300.86322 130.946245,303.365773 C130.772341,306.545489 130.533224,309.739925 129.739787,312.801873 C129.218075,314.818637 128.750708,316.850122 128.272472,318.881607 C128.18552,319.264497 128.228996,319.691256 128.207258,320.103442 C128.120306,320.191914 127.989878,320.23593 127.946402,320.353697 C127.913795,320.471464 127.96814,320.633394 127.979009,320.780603 C128.033354,320.692278 128.131175,320.618673 128.142044,320.515627 C128.174651,320.383139 128.152913,320.221209 128.152913,320.059279" id="Fill-17"></path>
                        <path d="M246,423.753095 C245.911858,425.022049 245.812698,426.480617 245.713538,427.939184 C245.691503,428.260069 245.636414,428.59554 245.647432,428.916425 C245.768627,431.075105 245.239775,433.1171 244.832118,435.144509 C244.47955,436.851033 243.928663,438.513801 242.859941,439.753583 C242.540426,440.118225 242.287018,440.599552 242.055645,441.08088 C241.758166,441.693478 241.328473,441.460107 240.931834,441.576793 C240.535195,441.693478 240.557231,442.772818 240.039396,442.670719 C238.89355,442.451933 238.056201,443.44376 237.064604,443.822987 C235.356852,444.479343 233.726225,445.471169 232.029491,446.185867 C230.387846,446.885979 228.691112,447.338135 227.049467,448.023662 C225.484947,448.665432 223.89839,448.636261 222.289799,448.548747 C221.871124,448.519575 221.45245,448.344547 221.033775,448.184105 C220.681207,448.052834 220.350674,447.790291 219.987089,447.702777 C218.345444,447.308964 217.419953,445.908739 216.913136,443.925087 C216.318177,441.62055 215.591006,439.345184 215.183349,436.982304 C214.753657,434.531911 214.577373,431.994003 214.379053,429.485266 C214.169716,426.903601 214.224805,424.307351 214.323964,421.7111 C214.334982,421.390215 214.368035,421.040159 214.301929,420.73386 C213.993432,419.289878 214.125645,417.816724 214.103609,416.343571 C214.070556,414.709975 214.026485,413.076379 214.00445,411.442783 C213.982414,409.96963 214.015467,408.511062 214.742639,407.242108 C215.0291,406.731609 215.172331,406.075254 215.370651,405.477241 C215.690166,404.5 215.965609,403.508174 216.30716,402.54552 C216.670745,401.509937 217.08942,400.518111 217.475041,399.497113 C218.014911,398.067571 218.764118,396.900717 219.843858,396.171433 C220.328639,395.836108 220.835456,395.602737 221.430414,395.602737 C222.157586,395.602737 222.895775,395.36922 223.622947,395.281852 C223.986532,395.238095 224.372154,395.194338 224.713704,395.325609 C226.476544,395.99655 228.338544,396.186164 230.02426,397.265504 C230.134438,397.338433 230.255633,397.440533 230.365811,397.440533 C231.732012,397.338433 232.811751,398.242745 233.913527,399.1033 C234.122864,399.263742 234.376272,399.365842 234.607645,399.395013 C235.081408,399.45321 235.235657,399.803412 235.235657,400.372254 C235.235657,401.014024 235.489065,401.480765 235.896722,401.743307 C236.612876,402.195463 237.185799,402.997676 238.056201,403.085044 C238.386734,403.114361 238.717266,403.493589 238.99271,403.785302 C240.105503,404.952156 241.174225,406.177353 242.309053,407.300451 C242.926047,407.912903 243.366757,408.642187 243.631183,409.590256 C243.93968,410.655156 244.281231,411.705179 244.611763,412.77008 C245.162651,414.520361 245.405041,416.358156 245.603361,418.210537 C245.779645,419.975404 245.856769,421.754857 246,423.753095" id="Fill-24"></path>
                        <path d="M340.339595,332.481805 C341.5814,330.586483 343.211268,330.02381 345.00745,330.02381 C345.938804,330.02381 346.870158,330.068231 347.801511,330.083038 C347.923474,330.083038 348.0787,330.038617 348.1674,330.112653 C349.664219,331.267614 351.582364,330.986278 352.968306,332.644684 C353.489421,333.266586 354.309899,333.414658 354.964064,333.873682 C356.627196,335.013836 358.013139,336.701857 359.498869,338.182577 C359.975634,339.515225 360.918075,340.433271 361.283964,341.913992 C361.672028,343.483555 362.226405,344.979082 362.736432,346.489416 C362.969381,347.170548 363.191132,347.896101 363.55691,348.42916 C364.177813,349.317592 364.344126,350.487361 364.77654,351.479443 C364.898503,351.745973 364.920678,352.116153 364.920678,352.441911 C364.920678,352.930549 364.77654,353.433993 364.843065,353.878209 C365.098079,355.581038 365.31983,357.298673 365.730069,358.927465 C366.295644,361.133738 366.506197,363.443661 366.894261,365.694355 C366.938611,365.931271 366.949699,366.1978 367.027311,366.405101 C367.104924,366.612402 367.249062,366.775281 367.371025,366.967775 C367.404399,366.819703 367.459836,366.671631 367.481901,366.523559 C367.526251,366.034921 367.548426,365.531476 367.592776,365.042839 C367.603864,364.968803 367.648214,364.894767 367.681587,364.835538 C367.737025,364.924381 367.836702,364.998417 367.8479,365.08726 C368.091715,367.648906 368.025301,370.225359 367.770177,372.787005 C367.570712,374.741555 367.326675,376.696105 367.08286,378.650656 C367.016335,379.183715 367.226887,379.31698 367.537449,379.524281 C368.036389,379.850039 368.047476,380.397906 367.592887,380.812507 C366.295644,381.982276 364.965139,383.063202 363.302008,382.855901 C362.847308,382.796672 362.481529,383.01878 362.093465,383.359346 C361.372775,383.981248 360.607735,384.529114 359.831607,385.032559 C359.332667,385.358318 358.789378,385.580426 358.257175,385.772919 C357.60301,386.024642 356.948845,386.217135 356.283593,386.394822 C355.130488,386.705773 353.988471,387.120375 352.824279,387.238832 C351.338548,387.386904 349.84173,387.327675 348.355999,387.283254 C348.001198,387.268447 347.635309,387.046339 347.31377,386.839038 C345.783689,385.832148 344.60841,384.218163 343.422043,382.633793 C343.288992,382.456106 343.133766,382.263613 343.089416,382.041505 C342.590477,379.701967 341.215621,377.954717 340.683419,375.629987 C340.616894,375.319036 340.506019,374.993277 340.350793,374.756362 C339.862941,373.971581 339.50814,373.12757 339.50814,372.061452 C339.50814,371.824536 339.452702,371.558007 339.364002,371.350706 C338.732012,369.8996 338.321773,368.374459 338.310685,366.671631 C338.310685,366.390294 338.100022,366.108957 338.000234,365.812813 C337.833921,365.368597 337.711958,364.953995 337.889358,364.406129 C338.144372,363.621347 338.044584,362.777337 337.889358,361.977748 C337.512382,359.963969 337.490207,357.905768 337.468032,355.847567 C337.456833,355.122014 337.268456,354.411269 337.179645,353.685716 C337.146493,353.374765 337.068769,352.886127 337.168557,352.782477 C337.955773,351.982888 337.634345,350.946384 337.479119,350.057952 C337.046705,347.540728 337.057682,344.993889 337.002244,342.447051 C336.957894,340.300007 337.578907,338.404685 338.155349,336.479749 C338.399275,335.665353 338.986914,335.235944 339.519227,334.83615 C340.040231,334.436355 340.383945,333.888489 340.605696,333.207358 C340.705484,332.896406 340.594608,332.570648 340.306443,332.45219 L340.339595,332.481805 Z" id="Fill-26"></path>
                        <path d="M127.436514,397.501617 C127.414842,397.442856 127.393169,397.369405 127.371497,397.310644 C127.338988,397.369405 127.284807,397.428166 127.295643,397.472237 C127.306479,397.545688 127.36066,397.61914 127.393169,397.692591 C127.414842,397.63383 127.425678,397.560378 127.436514,397.501617 M128,396.752413 C127.978327,397.281263 127.978327,397.942326 127.934982,398.603388 C127.91331,399.014716 127.837456,399.381973 127.479859,399.558257 C127.10059,399.74923 126.905537,400.219319 126.938046,400.733479 C127.035573,402.496313 126.66714,404.156314 126.298707,405.801626 C126.157835,406.433308 126.006128,407.09437 126.591286,407.535079 C126.66714,407.59384 126.710485,407.828884 126.699648,407.975787 C126.537104,409.929741 126.038636,411.751189 125.616022,413.616855 C125.572677,413.822519 125.366788,413.969421 125.258425,414.160395 C124.207308,415.99668 123.459606,418.038629 122.971974,420.256861 C122.89612,420.609428 122.885284,420.932614 123.112845,421.138278 C123.513787,421.476154 123.329571,421.814031 123.145354,422.137217 C122.744412,422.842351 122.137582,423.062705 121.541587,423.180227 C120.934756,423.283059 120.425452,423.532794 119.861966,423.900051 C119.135937,424.37014 118.225691,424.502352 117.402135,424.531733 C116.437707,424.561113 115.47328,424.54657 114.519689,424.781467 C114.162092,424.869609 113.793659,424.854919 113.436062,424.810848 C112.406617,424.663945 111.388009,424.693326 110.347727,424.869609 C109.589189,425.001822 105.839842,423.944122 105.222175,423.474033 C104.647853,423.033324 104.051858,422.592616 103.520882,422.063766 C103.044086,421.578986 102.816525,420.785711 102.328893,420.227481 C101.971296,419.816153 101.819588,418.934736 101.732898,418.229603 C101.602863,417.230664 101.375302,416.363937 100.920178,415.541281 C100.616763,414.997741 100.519237,414.204466 100.367529,413.514023 C99.9665873,411.633667 99.4464467,409.782691 99.5114643,407.770123 C99.5223005,407.314724 99.4031016,406.800565 99.2405577,406.374546 C99.0563412,405.889767 99.0129961,405.463749 99.1863764,404.97897 C99.2297214,404.846757 99.2513939,404.670474 99.2297214,404.523571 C98.7637621,401.658967 99.1105225,398.823743 99.3597566,395.988518 C99.4789555,394.607632 99.4356104,393.197365 99.4572829,391.801789 C99.5331368,388.129219 100.237494,384.662312 101.396974,381.38638 C102.177185,379.168148 103.11994,377.038057 104.593672,375.480887 C104.875414,375.187082 105.081303,374.761064 105.341374,374.423187 C105.753152,373.879647 105.937368,373.262655 105.959041,372.45469 C105.99155,371.191326 106.067403,371.103184 106.988486,370.824069 C108.353855,370.412741 109.675879,370.339289 111.019576,371.294158 C111.951494,371.95522 113.056793,372.307787 114.140419,372.337167 C114.779759,372.351858 115.332408,372.586902 115.885058,372.939469 C117.315445,373.850266 118.669977,374.863896 119.775276,376.494517 C120.674794,377.816642 121.758421,378.903723 122.744412,380.123016 C123.784694,381.415761 124.60825,382.884789 125.095881,384.721074 C125.420969,385.940367 126.0278,386.998067 126.298707,388.290812 C126.569613,389.568866 126.797175,390.81754 126.75383,392.154355 C126.732157,392.653825 126.808011,393.197365 127.219789,393.373649 C127.718257,393.579312 127.859129,394.034711 127.869965,394.666393 C127.91331,395.312766 127.956655,395.973828 128,396.752413" id="Fill-40"></path>
                        <path d="M169.549864,359.043573 C169.813889,358.24139 169.417851,357.454063 169.186829,356.607314 C169.164827,356.547893 169.098821,356.503328 169.054816,356.443907 C169.032814,356.518183 168.98881,356.577604 168.977809,356.65188 C168.8788,357.870009 168.735786,359.102994 169.065818,360.291412 C169.098821,360.395399 169.252835,360.514241 169.340844,360.499386 C169.417851,360.48453 169.527862,360.306268 169.538863,360.17257 C169.560865,359.875466 169.549864,359.533795 169.549864,359.043573 M169.978905,360.915332 C169.978905,362.163172 169.967904,363.485287 169.978905,364.807403 C170.011908,366.991123 169.736882,369.100566 169.318842,371.210009 C169.142825,372.086468 169.021813,372.992637 168.911803,373.883951 C168.834795,374.433595 168.757788,374.953528 168.845797,375.562592 C168.944806,376.245933 168.823794,377.048116 168.680781,377.746312 C168.537767,378.459363 168.372751,379.127848 168.449759,379.915176 C168.526766,380.702503 168.130728,381.415554 167.547673,381.564107 C166.744596,381.77208 165.985634,382.009764 165.468474,382.945643 C164.467379,383.331879 163.488285,383.792392 162.465188,384.074641 C161.86013,384.238197 161.255072,384.238197 160.716021,384.728271 C160.484999,384.936245 160.143966,384.98081 159.846938,385.025376 C159.296885,385.114507 158.724831,385.055086 158.19678,385.233349 C157.437708,385.485888 156.711638,385.337336 156.051575,384.921389 C154.940469,384.223193 153.840364,383.480432 152.806266,382.603973 C152.300217,382.173171 151.882177,381.474975 151.552146,380.791634 C150.881082,379.380387 150.13301,378.117692 149.065909,377.196668 C148.680872,376.869853 148.24083,376.216223 148.207827,375.666579 C148.14182,374.582147 147.61377,373.869096 147.338744,372.962926 C147.041715,371.967626 146.579671,371.076312 146.56867,369.917604 C146.557669,369.471947 146.337648,368.966869 146.106626,368.610343 C145.160536,367.12482 145.050525,365.074797 144.15944,363.559564 C144.005426,362.415711 143.818408,361.286713 143.708397,360.14286 C143.53238,358.330521 143.21335,356.562749 143.301358,354.690989 C143.345363,353.725399 143.092338,352.730098 142.949325,351.764508 C142.850315,351.021747 142.399272,352.121034 142.366269,351.630811 C142.16825,348.748896 141.783213,345.926402 142.157249,342.955355 C142.531285,339.969453 143.147344,337.161814 143.994425,334.383885 C144.25845,333.507575 144.610483,332.764813 145.061526,332.081324 C146.348649,330.150144 147.888796,328.635058 149.516952,327.283084 C149.714971,327.119676 150.011999,327.000983 150.210018,327.089965 C150.826077,327.342504 151.420133,327.208807 152.036192,327.149386 C152.520238,327.089965 153.004284,327.238518 153.488331,327.312794 C153.730354,327.342504 153.972377,327.520767 154.203399,327.461346 C155.897561,327.060255 157.338698,327.862438 158.658824,329.184553 C159.846938,330.372972 161.112058,331.457553 162.157158,332.824086 C164.423374,335.810136 166.238548,339.22684 167.074627,343.460581 C167.481666,345.540314 168.020718,347.560626 168.141729,349.744345 C168.185734,350.546528 168.46076,351.333855 168.625776,352.136038 C168.636777,352.210314 168.702783,352.269735 168.746787,352.329156 C168.812793,352.240024 168.933805,352.150893 168.944806,352.046906 C168.966808,351.556684 168.944806,351.066461 168.966808,350.561383 C168.977809,350.442541 169.153826,350.219713 169.186829,350.234568 C169.340844,350.323699 169.560865,350.457396 169.582867,350.620804 C169.868894,354.022504 170.066913,357.424352 169.978905,360.915332" id="Fill-46"></path>
                        <path d="M84.0171929,167.348361 C84.0617436,166.399771 83.8389901,165.139923 84.284497,163.954185 C84.384736,163.687394 84.3958737,163.272385 84.31791,162.990772 C84.0617436,161.953251 84.2622216,161.078769 84.6297648,160.159822 C84.8859312,159.537309 84.9750326,158.751757 85.0084456,158.025492 C85.1086847,156.276528 85.3759888,154.631316 86.2001765,153.20843 C86.4006545,151.266783 87.369632,149.754966 87.8708272,147.976358 C88.0267546,147.427954 88.1381313,146.909194 88.1269936,146.301503 C88.0713052,143.781808 88.5390874,141.425153 89.3632751,139.142606 C89.875608,137.734542 90.7332087,136.563625 91.0005128,134.9777 C91.0673388,134.592335 91.1675779,134.132861 91.0784765,133.791961 C90.8334477,132.843371 91.1453025,132.206036 91.6242224,131.598345 C92.7045765,130.190281 94.0522348,129.58259 95.5112697,129.464016 C97.3267101,129.33062 99.0975999,129.775272 100.823939,130.516359 C102.839857,131.376019 104.800088,132.472827 106.615528,133.925357 C108.219353,135.200026 109.745214,136.652556 111.048321,138.460807 C111.471553,139.053676 111.872509,139.720654 112.139813,140.446919 C112.897175,142.521961 113.676812,144.611825 114.267108,146.775798 C115.035608,149.591927 115.21381,152.52663 114.73489,155.505798 C114.333934,158.025492 113.777051,160.4859 113.086515,162.88702 C112.663284,164.369193 112.340291,165.866188 112.162088,167.437292 C112.050712,168.489635 111.705444,169.497512 111.393589,170.490568 C111.282212,170.831468 111.014908,171.157546 110.758742,171.335407 C110.023655,171.824524 109.399946,172.461859 108.798512,173.217767 C107.862947,174.403505 106.626666,174.877801 105.434935,175.263166 C104.220929,175.663353 103.040336,176.15247 101.971119,176.952843 C101.191482,177.530891 100.378432,177.945899 99.5319691,178.153404 C97.4603622,178.642521 95.399893,179.294677 93.2837354,179.339142 C92.7936779,179.353964 92.281345,179.442894 91.8024251,179.605933 C90.621832,179.991298 89.4635142,179.843081 88.3051963,179.487359 C87.0243641,179.087173 86.0999374,178.183047 85.4985032,176.537835 C84.4626997,173.706884 84.0171929,170.742538 84.0171929,167.348361" id="Fill-52"></path>
                        <path d="M206,482.13203 C205.865485,483.763292 205.775809,485.409251 205.585247,487.025818 C205.271379,489.612325 204.834207,492.169439 204.598807,494.770642 C204.576388,494.991083 204.50913,495.270308 204.385825,495.402573 C204.094377,495.725886 204.217682,495.828758 204.453083,496.063895 C204.610016,496.225552 204.75574,496.666434 204.699693,496.886875 C204.52034,497.57759 204.284939,498.327089 203.724462,498.62101 C202.681974,499.164764 201.830049,500.237577 200.697885,500.546194 C199.296691,500.928291 197.962755,501.574918 196.550353,501.971712 C194.723197,502.486074 192.839993,502.750603 191.068884,503.602974 C190.721389,503.764631 190.329054,503.867504 189.970349,503.823415 C188.793347,503.691151 187.582716,504.264297 186.428132,503.602974 C186.327246,503.54419 186.170313,503.558886 186.069427,503.617671 C185.01573,504.234905 184.107756,503.588278 183.233412,502.971044 C181.596818,501.839594 180.173206,500.384537 179.354909,498.121344 C179.220394,497.753942 179.041041,497.386541 178.805641,497.151404 C177.83041,496.181464 177.471705,494.81473 177.325981,493.345124 C177.225095,492.360635 177.135419,491.390548 176.810342,490.494088 C176.496474,489.612325 176.586151,488.627835 176.205026,487.731376 C175.85753,486.893553 175.767854,485.850133 175.588501,484.894889 C175.341891,483.557547 175.532453,482.102637 175.016814,480.824227 C174.994395,480.765443 174.994395,480.647727 175.016814,480.574247 C175.588501,478.825416 175.106491,477.017947 175.241005,475.239724 C175.274634,474.754607 175.274634,474.240245 175.353101,473.770118 C175.767854,471.389209 176.092931,468.979055 176.373169,466.554205 C176.653408,464.070718 177.751944,462.204171 179.175556,460.631693 C180.083529,459.63236 181.036341,458.691813 181.944314,457.69248 C182.448743,457.148726 182.941963,456.751932 183.648165,456.869501 C184.00687,456.928285 184.376785,456.72254 184.7467,456.663756 C184.982101,456.634364 185.25113,456.560884 185.464111,456.663756 C186.091846,456.957677 186.697161,456.869501 187.313686,456.634364 C187.885373,456.399227 188.423432,456.472707 188.95028,456.854805 C189.790996,457.486736 190.721389,457.69248 191.66299,457.810049 C193.344422,458.015794 194.756825,458.971038 196.057133,460.293683 C196.550353,460.793349 196.920268,461.439976 197.637679,461.528152 C197.940224,461.557544 198.231784,462.086603 198.478395,462.454004 C200.171036,464.996423 201.841258,467.553537 203.231242,470.404573 C203.870186,471.712522 204.240101,473.196825 204.957512,474.44599 C205.136865,474.754607 205.26017,475.224881 205.24896,475.606979 C205.204122,477.179457 206.123305,478.516799 205.865485,480.162757 C205.7646,480.794688 205.854276,481.470707 205.854276,482.13203 C205.899114,482.117334 205.955162,482.13203 206,482.13203" id="Fill-54"></path>
                        <path d="M177.109759,290.5 C176.279023,290.250727 175.351189,289.98679 174.423354,289.708191 C174.358621,289.693528 172.556896,288.271204 172.502952,288.241878 C172.092979,288.036594 172.071401,287.5967 172.006669,287.08349 C171.898781,286.291681 171.812471,285.353241 171.434863,284.825368 C170.906213,284.077548 170.755171,283.19776 170.765959,282.376625 C170.776748,281.291553 170.442296,280.485081 170.097055,279.663945 C169.007389,277.068571 168.403218,274.297239 168.316907,271.30596 C168.262964,269.751668 168.155076,268.212039 168.068766,266.657747 C168.047188,266.247179 167.9393,265.777959 168.047188,265.440707 C168.618993,263.651804 168.036399,261.642955 168.651359,259.898043 C169.08291,258.681003 169.158432,257.331994 169.093699,256.085628 C169.028967,254.809936 169.320264,253.680874 169.43894,252.493161 C169.471306,252.170572 169.643927,251.877309 169.665504,251.569383 C169.741026,250.513638 169.687082,249.428566 169.848914,248.41681 C170.010745,247.405054 170.658072,246.642571 170.614917,245.454857 C170.58255,244.53108 171.02489,243.753934 171.499596,243.108756 C172.729516,241.393169 174.099691,239.912193 175.69643,238.885774 C176.548743,238.328575 177.347112,237.595418 178.372046,237.566092 C178.738864,237.551429 179.094894,237.038219 179.48329,236.818272 C179.753009,236.656978 180.109039,236.451694 180.346392,236.554336 C181.285015,236.979567 182.072596,236.0118 182.989642,236.173094 C183.593813,236.290399 184.187196,236.334389 184.694268,236.847598 C184.931621,237.096872 185.20134,237.302155 185.460271,237.492776 C186.495993,238.196607 187.197264,239.1937 187.305152,240.87996 C187.337518,241.407833 187.596448,241.950368 187.855379,242.375599 C188.157465,242.874146 188.524283,243.372692 188.934257,243.665955 C190.023923,244.428438 190.822292,245.689467 191.771704,246.671897 C192.667173,247.610338 193.325288,248.856704 193.443965,250.586953 C193.530275,251.716015 193.681318,252.845076 193.74605,253.9888 C193.789205,254.633978 193.886304,255.279156 193.940248,255.909671 C193.972615,256.305575 194.01577,256.716143 193.994192,257.126711 C193.907882,258.930276 193.799994,260.719178 193.692106,262.50808 C193.627374,263.534499 193.724473,264.575582 193.249767,265.543349 C193.023202,266.012569 193.120301,266.804378 193.109512,267.449556 C193.098724,267.84546 193.778417,267.361577 193.595007,268.065407 C192.645595,268.886543 193.012414,270.015604 193.206611,271.115339 C193.271344,271.511243 193.433176,271.907148 193.400809,272.288389 C193.30371,273.344135 193.433176,274.458533 193.238978,275.440963 C192.764272,277.86038 192.397453,280.411765 190.887025,282.21533 C190.57415,282.596572 190.336797,283.095118 190.056289,283.520349 C189.408963,284.502779 188.750847,285.367904 187.736703,285.719819 C186.938333,285.998418 186.226274,286.702249 185.481849,287.230121 C184.953199,287.611363 184.402971,287.875299 183.820377,288.124573 C183.151473,288.403172 182.460992,288.696435 181.813665,289.194981 C181.166339,289.693528 180.335603,289.810833 179.580389,290.016117 C178.803597,290.206737 178.016016,290.324042 177.109759,290.5" id="Fill-56"></path>
                        <path d="M236.039523,330.086449 C236.050691,330.219284 236.050691,330.337359 236.06186,330.470194 C236.095365,330.411156 236.140038,330.366878 236.151206,330.30784 C236.162375,330.248803 236.151206,330.175006 236.12887,330.115968 C236.117701,330.086449 236.073028,330.086449 236.039523,330.086449 M232.845379,304.892125 C233.504311,305.674374 233.917539,306.663255 234.219084,307.755452 C235.023204,308.286791 235.157224,309.452785 235.603958,310.308831 C235.737978,310.559741 235.749146,310.928726 235.804988,311.238674 C235.816156,311.312471 235.782651,311.401028 235.771483,311.474825 C235.72681,311.696216 235.6598,311.681457 235.548116,311.445306 C235.179561,310.692576 234.811006,309.925086 234.420114,309.187115 C234.375441,309.098559 234.174411,309.054281 234.129626,309.098559 C234.062616,309.201875 233.995717,309.423266 234.029222,309.526582 C234.554134,310.854929 234.755164,312.330871 235.101383,313.733016 C235.86083,316.832493 235.972513,320.035287 235.905503,323.252839 C235.894335,323.577547 235.92784,323.902254 235.950176,324.226961 C235.950176,324.300758 236.028243,324.433593 236.039523,324.433593 C236.151206,324.374555 236.274058,324.330277 236.363293,324.226961 C236.642502,323.917013 236.676118,323.48899 236.51965,323.105245 C236.11759,322.116364 236.285115,321.186521 236.642502,320.271437 C236.66495,320.2124 236.743017,320.168121 236.798858,320.153362 C236.821307,320.153362 236.888317,320.2124 236.888317,320.256678 C236.93299,320.832295 237,321.407912 237,321.98353 C237,323.297118 237,324.625465 236.944158,325.939053 C236.821307,328.817139 236.676118,331.709985 236.51965,334.588071 C236.486257,335.237486 236.318731,335.8869 236.207048,336.521555 C236.017075,337.643271 235.99485,338.897821 235.58151,339.842424 C235.090214,340.94938 234.263646,341.805426 233.537704,342.70575 C232.711247,343.72415 231.828948,344.594956 230.6116,344.74255 C230.142529,344.801588 229.695796,345.25913 229.237894,345.51004 C228.076387,346.144695 226.903712,346.587477 225.608185,346.543199 C224.424453,346.498921 223.229329,346.602236 222.056654,346.779349 C221.397722,346.882665 220.816968,346.808868 220.247383,346.410364 C218.929519,345.480521 217.51114,344.860625 216.226782,343.797947 C215.556681,343.251849 215.054106,342.631953 214.618541,341.805426 C212.898617,338.573114 211.949309,334.971816 211.40206,331.09009 C211.033505,328.448154 211.301545,325.820978 211.022337,323.208561 C211,322.97241 210.977663,322.677222 211.044673,322.47059 C211.513743,321.127483 211.346218,319.725339 211.390892,318.323194 C211.457902,316.596342 211.625427,314.869491 211.837625,313.157398 C211.993982,311.917607 212.116834,310.722095 211.949309,309.467544 C211.87113,308.906686 211.949309,308.31631 211.949309,307.740692 C211.949309,307.504542 212.00515,307.150316 211.915804,307.061759 C211.189862,306.29427 211.424397,305.27587 211.424397,304.301748 C211.424397,304.213192 211.435565,304.139395 211.446733,304.050838 C211.591922,303.120995 211.022337,302.220671 211.569585,301.202271 C212.396042,299.652532 212.920954,297.822364 214.261154,296.848243 C214.69672,296.523536 215.109948,296.139791 215.523176,295.785565 C216.003415,295.372301 216.50599,295.106632 217.097912,295.062354 C217.723339,295.018075 218.371102,295.003316 218.940688,294.722887 C219.901165,294.235826 220.8058,294.471977 221.688098,294.914759 C223.318676,295.711768 225.049768,296.287385 226.31179,298.043756 C226.434642,298.220869 226.624503,298.412741 226.78086,298.412741 C227.774842,298.368463 228.18807,299.327825 228.645972,300.228149 C229.070369,301.054677 229.494766,301.836926 230.198371,302.338746 C230.522253,302.560137 230.790293,302.958641 231.035996,303.327627 C231.41572,303.873725 231.773107,304.331267 232.42087,304.227951 C232.554779,304.198432 232.733472,304.685493 232.889829,304.936403 C232.833987,304.951163 232.778145,304.965922 232.711135,304.980682 C232.431927,305.039719 232.286738,305.246351 232.431927,305.600577 C232.498937,305.762931 232.655294,305.866247 232.766977,305.999081 C232.800594,305.77769 232.845155,305.556299 232.867492,305.334908 C232.878884,305.202073 232.856547,305.039719 232.845379,304.892125" id="Fill-61"></path>
                        <path d="M64.9317065,194.739667 C65.1882979,197.667753 64.6528028,200.181765 64.4631483,202.725355 C64.4185237,203.37604 64.3069623,204.026726 64.2400254,204.677412 C64.0838394,206.067513 63.8718726,207.383672 63.3363775,208.670255 C62.8789755,209.76459 62.2876998,210.90329 62.3769489,212.30818 C62.4215735,212.944077 62.0868891,213.372938 61.7075802,213.713069 C61.082836,214.260236 60.4692479,214.822192 59.8221914,215.324995 C59.5656,215.517243 59.2420718,215.605973 58.9408558,215.679914 C57.8363973,215.916527 56.7207827,216.108775 55.6163242,216.345388 C55.3151082,216.404541 54.9804238,216.50806 54.7349886,216.729884 C53.9094338,217.4693 52.9723175,217.513665 52.0463573,217.64676 C50.3729353,217.868584 48.6883572,217.809431 47.0149352,218.25308 C46.0108821,218.51927 44.8952674,218.267869 43.8465896,218.090409 C43.0098786,217.957314 42.4186029,217.11438 41.8496394,216.345388 C41.7269218,216.167928 41.6711411,215.901739 41.5484235,215.724279 C40.9348354,214.836981 40.8455862,213.609551 40.4104965,212.618734 C39.9754068,211.613129 39.5291609,210.666677 39.4175995,209.454036 C39.3618187,208.832927 39.2725696,208.004781 38.5808885,207.709015 C38.3354533,207.605497 38.1346426,206.925235 38.090018,206.466797 C37.9115197,204.914025 37.8780513,203.346464 37.6549283,201.808479 C37.5098984,200.788086 37.7330214,199.61981 37.0748087,198.747299 C36.9744034,198.614204 36.9967157,198.274073 37.019028,198.03746 C37.1529017,196.144557 37.3537124,194.251653 37.2086825,192.343961 C37.1863702,192.033406 37.3202439,191.708064 37.3537124,191.397509 C37.4094931,190.924283 37.5322107,190.406692 37.4652738,189.948255 C37.3648685,189.208839 37.2533071,188.513789 37.4541177,187.759585 C37.5322107,187.478607 37.47643,187.094111 37.4094931,186.798345 C37.1417456,185.674433 37.4429616,184.698405 37.8222705,183.722376 C38.2238918,182.701983 38.6366692,181.681442 39.0271344,180.64626 C39.2837257,179.966145 39.6184101,179.389253 40.0869683,178.930964 C40.3881842,178.635198 40.7340248,178.354072 40.9236793,177.954935 C41.4926427,176.742294 42.2624168,175.825419 43.0768155,174.923332 C43.7908089,174.124763 44.404397,173.267041 45.3638256,172.92691 C46.2563173,172.616355 47.0930283,172.083976 48.0413007,172.039611 C49.3465699,171.96567 50.6406828,171.729057 51.9347958,172.305801 C52.3921978,172.512837 52.9276929,172.438896 53.4185633,172.438896 C54.1994936,172.438896 54.8688624,172.74945 55.5047627,173.385347 C56.7542511,174.627566 58.0483641,175.766265 59.2978525,177.008483 C59.6883176,177.39298 60.0453143,177.82184 60.3576864,178.35422 C61.1163044,179.655591 62.0199523,180.809079 62.8455071,182.021721 C63.6710619,183.234362 64.0280586,184.74277 64.2734938,186.280754 C64.5523975,188.055351 64.7978327,189.844737 64.9428626,191.64891 C65.0321118,192.772822 64.9428626,193.92631 64.9317065,194.739667" id="Fill-67"></path>
                        <path d="M155.269254,189.006813 C155.322942,190.156698 155.344418,191.306583 155.430319,192.456468 C155.451794,192.740206 155.677285,192.979143 155.773925,193.262881 C155.870564,193.546619 156.010153,193.860224 155.999416,194.143962 C155.956465,195.30878 155.838351,196.473599 155.7954,197.638418 C155.773925,198.205894 155.838351,198.788303 155.849088,199.370712 C155.859826,199.699251 155.945727,200.087524 155.859826,200.341394 C155.526958,201.252342 155.312205,202.148357 155.33368,203.193707 C155.344418,203.522245 155.075976,203.940385 154.861222,204.194256 C153.798193,205.403876 152.799589,206.822565 151.6076,207.703646 C149.760828,209.077534 148.225233,211.153301 146.249609,212.198651 C145.358382,212.676526 144.499368,213.258935 143.565191,213.587473 C142.577325,213.930946 141.653885,214.632824 140.666019,214.901628 C138.969467,215.364569 137.251439,215.752841 135.544149,214.901628 C134.98579,214.61789 134.38448,214.468554 133.793908,214.378953 C132.934895,214.244551 132.322847,213.662141 131.968504,212.601858 C131.216867,210.331955 130.61545,208.002317 130.486705,205.448676 C130.400696,203.83585 130.389959,202.193157 130.121517,200.580332 C129.874658,199.116841 130.089411,197.608551 130.035723,196.115193 C130.003403,195.114644 130.067829,194.114095 130.078566,193.113545 C130.089411,192.531136 130.153837,191.978594 130.357853,191.426052 C130.604712,190.783908 130.78736,190.067096 130.561762,189.275617 C130.497336,189.03668 130.61545,188.61854 130.733672,188.349736 C131.485309,186.632375 131.989872,184.765678 132.505388,182.898982 C132.870361,181.599761 133.042271,180.196005 133.321451,178.851983 C133.41809,178.374109 133.536204,177.911168 133.675687,177.448227 C134.030137,176.208741 134.352267,174.969254 135.189806,174.147908 C135.382977,173.953771 135.501091,173.416163 135.490353,173.042824 C135.458248,172.161743 135.63005,171.429998 136.005869,170.713186 C136.24199,170.250245 136.446114,169.652902 136.478327,169.10036 C136.542753,168.040077 137.004365,167.517402 137.573569,166.979793 C138.421845,166.17338 139.291597,165.471502 140.311676,165.202698 C141.267329,164.948827 142.180031,164.889093 143.146421,165.396834 C144.026803,165.859775 144.982563,166.068845 145.927479,166.292849 C147.956791,166.80059 149.825254,167.84594 151.092299,170.324913 C151.264102,170.668385 151.435797,171.026791 151.661288,171.295595 C153.336473,173.207093 153.959258,175.865269 154.399395,178.67278 C154.485404,179.240256 154.517617,179.822666 154.635731,180.375208 C154.893435,181.659495 155.086606,182.943782 155.075976,184.317671 C155.065238,185.198752 155.032918,186.124633 155.30136,187.035581 C155.473162,187.603057 155.33368,188.349736 155.33368,189.021746 C155.312205,189.006813 155.290729,189.006813 155.269254,189.006813" id="Fill-69"></path>
                        <path d="M76.9659531,234.216679 C78.4171654,234.40957 79.8683777,234.617299 81.31959,234.795352 C81.9682379,234.869541 82.5179395,235.166296 82.9577008,235.804319 C83.2545397,236.249452 83.5953547,236.575883 84.0461101,236.679747 C84.2110205,236.72426 84.4309012,236.8578 84.5188535,237.050691 C85.1894894,238.549304 86.4428091,239.068626 87.3663079,240.151782 C87.729111,240.582077 88.1248961,240.89367 88.3557708,241.546531 C88.7075798,242.525823 89.2242994,243.356738 89.8949354,243.994761 C90.7634639,244.825676 91.1482551,246.05721 91.1922312,247.392608 C91.2472014,249.024761 91.5880164,250.627239 91.3571417,252.289068 C91.3351536,252.481959 91.7749149,252.793551 91.7529268,252.986442 C91.5660283,254.485056 92.467539,256.04302 91.6539806,257.497121 C91.5330462,259.337002 90.5985534,260.791103 90.3676788,262.601309 C90.2577384,263.491574 89.9389115,264.337327 89.8289712,265.227592 C89.7190308,266.192046 89.103365,266.755881 88.9054724,267.631309 C88.8614963,267.8242 88.6416156,267.972577 88.4767052,268.061604 C87.3333258,268.669952 86.1899464,269.248624 85.046567,269.856972 C84.8706625,269.945999 84.6837639,270.00535 84.5408415,270.153727 C83.4524323,271.32591 82.1661305,271.86007 80.8578406,272.334878 C79.8463896,272.705822 78.8789148,273.269657 78.0103862,274.04122 C77.3837264,274.590217 76.7130904,274.975999 75.9984783,275.22824 C75.5257349,275.406294 75.0749795,275.688211 74.6352182,275.984966 C73.5907851,276.712016 72.4803879,277.157149 71.3150204,277.305526 C70.9522173,277.35004 70.5784202,277.394553 70.2266112,277.513255 C69.479017,277.750659 68.7753989,277.691308 68.0607868,277.320364 C67.6759957,277.112636 67.2362344,277.068122 66.8184611,276.964258 C66.6975268,276.934583 66.5106282,276.964258 66.4776461,276.875232 C66.0378848,275.806913 64.9604696,275.806913 64.5317024,274.694081 C64.3887799,274.337975 64.1688993,274.011544 63.9270306,273.77414 C63.5312454,273.388359 63.410311,272.869037 63.3443468,272.290365 C63.3223588,272.038123 63.2563946,271.800719 63.2454006,271.548477 C63.1574483,269.560217 62.8716034,267.631309 62.4758183,265.7024 C62.3548839,265.094052 62.4978063,264.396678 62.5197944,263.728979 C62.5307884,263.328359 62.6297347,262.898064 62.5527765,262.52712 C62.39886,261.740719 61.9590987,260.954318 62.0030749,260.21243 C62.036057,259.574407 62.4758183,258.921545 62.5747646,258.179657 C62.6187407,257.779038 62.7836512,257.408094 62.8166333,257.007475 C62.9155796,255.953994 63.1574483,254.826324 62.9925378,253.832194 C62.7506691,252.378094 63.1464543,251.250425 63.5752215,250.063404 C63.7071499,249.69246 63.9270306,249.380867 64.0919411,249.039599 C64.6196546,247.941605 65.1253801,246.828773 65.3012846,245.478537 C65.4771892,244.054112 65.9609266,242.837416 66.7964731,241.8878 C67.1592761,241.472343 67.4781031,240.953021 67.807924,240.478213 C68.3356376,239.70665 68.5775063,238.682844 69.3910647,238.148685 C70.0177246,237.733228 70.5894143,237.095204 71.2270682,236.605558 C72.3594535,235.730131 73.5687971,235.195971 74.8001287,234.691488 C75.5037468,234.379895 76.2073649,234.068302 76.9659531,234.216679" id="Fill-71"></path>
                        <path d="M292.510219,545.424922 C291.501983,545.424922 290.493747,545.439519 289.48551,545.410325 C289.241761,545.410325 288.942614,545.351938 288.787501,545.162178 C288.133809,544.388544 287.469038,543.600313 286.926142,542.709904 C286.161655,541.425379 285.563361,539.980288 284.754556,538.71036 C283.912513,537.396641 283.402855,535.747195 283.136947,533.99557 C282.871038,532.214751 282.272744,530.536111 282.106552,528.711501 C282.073313,528.34658 281.862802,527.894076 281.630132,527.704317 C281.053998,527.22262 280.965361,526.580358 281.020759,525.762933 C281.098316,524.551392 281.120475,523.325255 281.164793,522.099117 C281.175872,521.850971 281.23127,521.588227 281.175872,521.354677 C280.699453,519.179743 281.330986,517.077793 281.430701,514.932052 C281.45286,514.537937 281.596894,514.129224 281.718769,513.749705 C282.228426,512.231631 282.760243,510.728152 283.29206,509.224674 C283.502571,508.640799 283.823877,508.275878 284.344614,508.582412 C284.588364,508.728381 284.699159,508.494831 284.798875,508.305071 C285.020465,507.896359 285.286373,507.502243 285.408248,507.04974 C285.81819,505.531665 286.604836,504.320125 287.225289,502.977212 C288.000855,501.298572 289.208522,500.656309 290.604542,500.218403 C292.277549,499.692916 293.872999,500.130822 295.45737,500.510341 C296.432368,500.743891 297.363047,501.356959 298.271568,501.955431 C300.432074,503.371328 302.393148,505.166743 304.077235,507.458453 C304.376382,507.867165 304.764165,508.159103 305.085471,508.538621 C305.406777,508.91814 305.80564,509.297659 305.982912,509.779356 C306.636604,511.560174 307.068705,513.486962 307.467567,515.369958 C307.87751,517.340536 307.86643,519.486277 307.955066,521.559033 C308.08802,524.463665 307.910748,527.368589 307.622681,530.25877 C307.534045,531.149179 307.234898,532.024992 307.201659,532.915401 C307.146261,534.22912 307.234898,535.557435 306.924671,536.856557 C306.880353,537.017123 307.40109,537.396641 307.367852,537.586401 C307.268136,538.141082 307.124102,538.768748 306.824955,539.148266 C305.79456,540.491179 304.797404,541.936269 303.168715,541.921672 C302.924965,541.921672 302.670136,541.994657 302.437466,542.111432 C301.6619,542.461757 300.897414,542.782888 300.177245,543.337569 C299.490315,543.84846 298.615033,543.89225 297.894864,544.330157 C296.908787,544.928628 295.900551,545.308147 294.814758,545.322744 C294.061351,545.337341 293.296864,545.322744 292.543457,545.322744 C292.510219,545.381132 292.510219,545.395728 292.510219,545.424922" id="Fill-73"></path>
                        <path d="M239.310004,473.198064 C239.603539,473.198064 239.733999,473.154306 239.853587,473.198064 C240.897267,473.606471 241.701771,473.095962 242.506274,472.206219 C243.462981,471.141444 244.604506,471.053928 245.724288,471.856156 C247.050631,472.818829 248.366103,473.796088 249.659831,474.831692 C249.964238,475.065067 250.203415,475.48806 250.442592,475.852709 C251.160122,476.946656 251.518887,478.390666 252.442978,479.280409 C252.660412,479.484613 252.736513,479.980536 252.84523,480.359771 C253.160508,481.439132 253.56276,482.430977 254.171574,483.262377 C254.486852,483.68537 254.67167,484.15212 254.715157,484.750145 C254.93259,487.33186 255.400072,489.869817 255.421815,492.49529 C255.432687,493.399619 255.356585,494.464394 255.91104,495.295794 C256.030629,495.485412 256.008885,495.908404 255.965399,496.21471 C255.84581,497.031523 255.497917,497.673306 255.073922,498.285916 C254.747772,498.752667 254.649927,499.306933 254.889104,500.065403 C255.204382,501.057248 255.182639,502.151195 254.389007,502.924251 C254.269419,503.040939 254.117215,503.391002 254.160702,503.522276 C254.497724,504.484949 254.073729,505.272591 253.899782,506.118577 C253.62799,507.372969 253.323583,508.59819 253.04092,509.852583 C252.997433,510.056786 252.986562,510.363091 253.062663,510.523537 C253.606247,511.63207 253.258353,512.492641 252.64954,513.280283 C251.366683,514.957669 251.225352,514.928497 249.366296,516.168303 C247.833391,517.189321 246.159155,517.656071 244.604506,518.574987 C243.800003,519.056324 242.854168,519.158425 242.017049,519.68352 C241.832231,519.800208 241.527824,519.712692 241.332134,519.581418 C240.799422,519.231501 240.244967,519.216769 239.733999,519.479316 C239.027341,519.843965 238.483757,519.946067 238.124992,518.822948 C238.059762,518.604159 237.72274,518.429273 237.516179,518.414541 C236.48337,518.385369 236.015889,517.466454 235.722354,516.343335 C235.537535,515.643209 235.298359,515.016013 235.004715,514.388816 C234.689545,513.703422 234.428625,512.915634 234.309037,512.127992 C233.971906,509.984002 233.461047,507.883478 233.384945,505.651826 C233.330587,503.945414 233.124025,502.253443 233.037052,500.54674 C232.939207,498.738227 233.058795,496.973179 233.124025,495.193838 C233.15664,494.493566 233.341458,493.749828 233.602378,493.122632 C233.9394,492.305672 234.06986,491.474418 234.134981,490.570089 C234.232826,489.126079 234.548214,487.696654 234.472112,486.223472 C234.450369,485.902581 234.602572,485.523201 234.51549,485.260799 C234.058989,483.772885 234.482984,482.401951 234.711289,480.972527 C234.961337,479.470027 235.124412,477.938501 235.722354,476.582153 C235.798455,476.406975 235.776712,476.115256 235.733225,475.896467 C235.548407,475.050627 235.820199,474.540118 236.320295,474.058636 C237.309617,473.110548 238.364169,473.008446 239.310004,473.198064" id="Fill-79"></path>
                        <path d="M367.976742,433.995678 C368.067052,435.681855 367.50261,441.568941 367.130078,443.458622 C366.983323,444.243567 366.881724,445.057584 366.904301,445.857064 C366.960745,447.979322 366.181815,449.796324 365.662528,451.700541 C365.572217,452.049406 365.25613,452.296518 365.041642,452.601774 C364.691688,453.066927 364.240134,453.473935 364.014357,454.026303 C363.472492,455.349081 362.558096,456.017737 361.575966,456.584642 C360.830902,457.020722 360.040683,457.35505 359.306908,457.834739 C357.986113,458.7069 356.597586,458.488859 355.220346,458.328963 C354.622038,458.256283 354.215639,457.689379 353.764085,457.238762 C353.42542,456.904434 353.086755,456.468354 352.601334,456.933506 C352.556179,456.977114 352.240091,456.730002 352.217514,456.570106 C352.104625,455.945057 352.05947,455.290937 351.991737,454.651352 C351.878848,453.677439 351.686938,452.776206 351.201518,451.96219 C350.704808,451.119101 350.456454,450.159724 350.354854,449.054987 C350.129077,446.714689 349.700101,444.432535 348.593794,442.426565 C348.130952,441.583477 347.961619,440.507812 347.882597,439.432147 C347.747131,437.658753 347.634242,435.870824 347.295577,434.155574 C347.024645,432.745581 347.013356,431.422804 347.318155,430.070954 C347.521354,429.198794 347.747131,428.355705 347.216555,427.541688 C347.261711,426.059015 346.58438,424.532734 347.419754,423.064596 C347.611665,422.730268 347.521354,422.119755 347.555221,421.640067 C347.600376,420.956874 347.792286,420.288218 348.232551,419.968426 C349.146948,419.299624 349.959745,418.427463 351.111207,418.31132 C352.025603,418.224104 352.962577,418.354928 353.888263,418.0206 C354.373683,417.846168 355.028436,418.107816 355.536434,418.384 C356.631452,418.994513 357.703892,419.619561 358.877932,420.02657 C359.702018,420.302754 360.401926,421.160379 361.293745,421.392955 C361.463078,421.436563 361.609833,421.654603 361.745299,421.814499 C362.411341,422.555836 363.032227,423.398925 363.766002,424.023828 C365.222263,425.244853 366.091504,426.960248 366.554347,429.06797 C366.576925,429.155186 366.678524,429.21333 366.746257,429.28601 C366.791413,429.14065 366.836568,428.995289 366.859146,428.835393 C366.881724,428.675352 366.859146,428.50092 366.881724,428.35556 C366.904301,428.210199 366.983323,428.064839 367.028479,427.919479 C367.062345,427.977623 367.1075,428.035913 367.141367,428.108593 C367.175233,428.181273 367.186522,428.253953 367.2091,428.326633 C367.784831,430.245387 368.08963,432.222284 367.976742,433.995678" id="Fill-105"></path>
                        <path d="M178.813497,431.042019 L178.759259,431.159633 L178.846039,431.174334 L178.813497,431.042019 Z M194,413.164803 C193.967457,416.766709 193.750507,420.692052 192.926097,424.514483 C192.82847,424.984936 192.763385,425.528898 192.535587,425.852334 C191.342362,427.572428 190.409477,429.645362 188.977606,431.086124 C188.684724,431.380157 188.413536,431.806506 188.088111,431.894716 C186.721326,432.276959 185.495558,433.217865 184.107078,433.61481 C182.903005,433.952948 181.818255,433.747124 180.7552,433.041592 C180.256215,432.703307 179.778925,432.306509 179.225702,432.365169 C178.618242,432.423975 178.401292,431.865459 178.119257,431.306649 C177.815527,430.689327 177.717899,430.145218 178.108409,429.527749 C178.195189,429.395434 178.206037,429.013191 177.902307,429.086699 C177.522644,429.160207 177.316542,428.866174 177.251457,428.454527 C177.088744,427.41071 176.980269,426.366892 176.828404,425.323074 C176.741624,424.676201 176.622302,424.04403 176.502979,423.411859 C176.231791,421.926991 175.439924,420.633245 175.602636,418.971958 C175.613484,418.89845 175.570094,418.81024 175.537551,418.751433 C174.648056,417.413582 175.060261,415.987521 175.374839,414.561461 C175.494161,414.017499 175.743654,413.444135 175.711111,412.914875 C175.570094,410.253875 176.210096,407.739891 176.394504,405.137698 C176.437894,404.564333 176.416199,403.990968 176.427046,403.417751 C176.437894,402.579609 176.535521,401.81527 177.099592,401.241758 C177.598577,400.7272 177.848069,399.889353 177.848069,399.065913 C177.848069,398.125154 178.151799,397.390071 178.661632,396.992979 C179.32333,396.478421 179.746382,395.699233 180.212825,394.96415 C180.570792,394.405487 180.950455,394.126156 181.471135,394.302576 C183.05487,394.817134 184.681996,395.125868 186.244036,395.802145 C186.992514,396.125581 187.784381,396.243194 188.543706,396.478421 C189.281337,396.713648 189.932187,397.051786 190.040662,398.301427 C190.127442,399.198228 190.583037,399.580471 191.212192,399.933311 C192.13423,400.46257 192.763385,401.476985 192.91525,402.917747 C192.947792,403.241184 192.969487,403.594024 193.067115,403.873355 C193.95661,406.416742 193.978305,409.136549 193.989152,411.856355 C194,412.150389 194,412.488527 194,413.164803 Z" id="Fill-117"></path>
                        <path d="M7.03282275,230.62158 C7.04380166,228.985308 6.93401259,227.334294 7.35121105,225.727504 C7.54883138,224.975703 7.71351498,224.164937 7.38414778,223.324689 C7.30729543,223.118312 7.4170845,222.587629 7.55981029,222.440217 C8.03190328,221.968499 8.32833377,221.511522 8.16365017,220.62705 C8.09777673,220.288003 8.32833377,219.845767 8.41616503,219.462496 C8.58084863,218.740177 8.62476426,218.062082 8.49301738,217.29554 C8.24050252,215.850903 8.07581891,214.376783 7.91113531,212.917405 C7.85624077,212.430946 7.88917749,211.929745 7.94407203,211.443286 C8.13071345,209.89546 8.24050252,208.362376 8.14169235,206.785068 C8.06484001,205.561549 8.40518612,204.868713 9.22860414,204.500183 C10.0410433,204.146394 10.8754402,203.895794 11.7098371,203.615711 C11.8854996,203.556746 12.0940989,203.512523 12.2587825,203.586229 C13.6970193,204.308547 15.2999397,204.043206 16.7162187,205.001384 C17.4188687,205.473102 18.2203289,205.708961 18.9888524,205.930079 C19.504861,206.077491 19.9110806,206.372315 20.2404478,206.873515 C21.5359588,208.863577 22.6777651,210.956826 23.2267105,213.610241 C23.643909,215.659267 24.1489387,217.678811 24.4453692,219.772061 C24.8406098,222.499182 25.521302,225.182079 25.3566184,228.02713 C25.3346606,228.425142 25.4883653,228.852637 25.4554286,229.250649 C25.411513,229.914003 26.1800365,230.031933 25.9604583,230.724769 C25.8177325,231.167005 25.5652177,231.565017 25.3895552,231.992511 C24.9833356,232.950689 24.9064833,233.805678 25.6640278,234.586962 C25.9494794,234.881786 25.8177325,235.382986 25.5871755,235.67781 C25.3785762,235.957893 25.1041036,236.16427 24.8406098,236.370646 C23.9403394,237.063482 23.051048,237.77106 22.1288198,238.404931 C21.1516971,239.083026 20.1087009,239.613709 19.153536,240.350769 C17.8690039,241.35317 16.4307671,241.824888 15.0693826,242.576689 C14.3886904,242.945219 13.5323357,242.694619 12.7638122,242.915737 C12.5332551,242.989443 12.2478035,242.856772 12.0282254,242.95996 C11.4463433,243.254784 10.9962082,242.900996 10.4692206,242.635654 C8.63574317,241.7217 8.29539705,239.481038 7.7354728,237.417271 C7.63666263,237.034 7.64764154,236.591764 7.57078919,236.208493 C7.39512668,235.412469 7.09869619,234.660668 7.02184385,233.849902 C6.96694931,232.788536 7.03282275,231.697688 7.03282275,230.62158" id="Fill-119"></path>
                        <path d="M181.911313,220.537932 C181.190084,220.552676 180.490383,220.773831 179.790683,220.980242 C178.843397,221.275115 177.89611,221.393064 176.927295,221.304602 C175.980008,221.21614 175.172662,220.788574 174.51602,219.844981 C174.311492,219.550108 174.117729,219.211004 173.859378,218.989849 C172.686035,218.002024 172.11551,216.498171 171.943276,214.71419 C171.878689,214.035982 171.706455,213.475723 171.469633,212.885977 C170.802227,211.234688 170.231702,209.524424 170.070233,207.593005 C170.005645,206.767361 169.973351,206.000691 170.027174,205.160303 C170.145585,203.199397 170.167114,201.209004 170.102526,199.248098 C170.070233,198.127581 170.13482,197.080781 170.533111,196.151931 C171.13593,194.736541 171.738748,193.306406 172.513801,192.082683 C172.998209,191.316013 173.67638,190.785242 174.214611,190.018572 C174.720548,189.310877 175.474071,188.853823 176.206065,188.499976 C176.410593,188.411514 176.561298,188.131384 176.733532,187.924973 C177.540878,186.966636 178.434341,186.421121 179.521568,186.966636 C179.801448,187.114072 180.059799,187.320484 180.339679,187.46792 C180.554971,187.585869 180.845616,187.821768 180.99632,187.718562 C181.599139,187.335227 181.879019,187.777537 182.180429,188.367283 C182.632542,189.266646 183.246126,189.679468 184.053472,189.458313 C184.161118,189.428826 184.365646,189.44357 184.39794,189.532031 C184.785466,190.490369 185.79734,190.947422 185.668165,192.303838 C185.614342,192.908328 185.786576,193.262175 186.141808,193.48333 C186.873802,193.910896 187.433562,194.618591 188.05791,195.267312 C189.360429,196.623728 190.555302,198.08335 191.59947,199.793613 C191.782468,200.088486 192.116171,200.221179 192.342228,200.486565 C192.772813,200.987849 193.063458,201.621826 192.988106,202.417984 C192.955812,202.712857 192.751284,203.214141 192.665167,203.214141 C192.148465,203.140422 192.008525,203.405808 191.943938,204.084016 C191.836291,205.219277 191.674822,206.369282 191.405707,207.445569 C191.136591,208.536599 190.781359,209.583399 190.792123,210.777634 C190.792123,211.087251 190.673713,211.426355 190.544537,211.691741 C189.89866,213.077644 189.252783,214.463547 188.563847,215.819963 C187.648855,217.618689 186.486276,218.989849 184.860819,219.505877 C184.39794,219.653313 183.97812,220.021904 183.526006,220.243059 C182.97701,220.478958 182.492602,220.921267 181.911313,220.537932" id="Fill-121"></path>
                        <path d="M265.071519,449.091459 C265.071519,446.946185 264.884369,444.771523 265.115554,442.685023 C265.368757,440.4222 265.269678,438.071214 265.89718,435.881858 C266.007268,435.499823 266.062312,435.088401 266.084329,434.676978 C266.139373,433.325162 266.53569,432.134975 266.920999,430.915401 C267.141175,430.239493 267.350342,429.563584 267.559509,428.872982 C267.625562,428.652577 267.64758,428.388092 267.73565,428.18238 C268.308108,426.801176 269.023681,425.449359 270.080526,424.773451 C271.104345,424.12693 272.293297,423.788976 273.482248,423.921219 C273.83453,423.950606 274.219838,424.156317 274.495058,424.450191 C275.562912,425.552215 276.59774,426.727708 277.643577,427.873813 C277.731647,427.976669 277.830727,428.108912 277.874762,428.255849 C278.645378,430.489285 279.856347,432.428848 280.285691,434.88269 C280.637972,436.881027 280.946219,438.894059 280.968237,440.951171 C281.001263,443.669499 281.023281,446.387826 280.957228,449.091459 C280.924201,450.311033 280.737052,451.545301 280.538893,452.735487 C280.153585,455.057085 279.801303,457.378684 279.085731,459.582733 C278.755466,460.596595 278.359149,461.448828 277.731647,462.154124 C277.302304,462.624321 276.905987,463.138599 276.520679,463.682264 C275.970238,464.446335 275.507868,465.372035 274.880366,465.989169 C274.296899,466.547528 273.548301,466.812014 272.854746,467.120581 C272.458429,467.296905 271.996059,467.429148 271.599742,467.340986 C269.981447,466.958951 268.57232,466.03325 267.537492,464.22593 C265.963232,461.507602 265.930206,461.243117 265.346739,457.672557 C265.038493,455.791768 264.983449,453.940367 265.016475,452.059579 C265.038493,451.075103 265.016475,450.075935 265.016475,449.091459 L265.071519,449.091459 Z" id="Fill-126"></path>
                        <path d="M85.7678731,332.916573 C85.8119291,333.427747 85.8669991,333.836686 85.889027,334.245625 C85.933083,335.472443 85.933083,336.655445 85.3493415,337.780028 C84.82067,338.773165 85.0519638,339.956168 85.3603555,341.02233 C85.4154255,341.2268 85.9991669,341.25601 85.9991669,341.387455 C86.0101809,341.767184 85.911055,342.219938 85.7568592,342.541247 C85.5586073,342.950186 85.2942716,343.446755 84.9858799,343.563595 C84.0166487,343.943324 83.3778373,344.702782 83.0364036,345.95881 C82.8491658,346.659848 82.4526622,347.083392 81.8909487,347.360887 C79.0493393,348.719149 76.2187439,350.077411 73.2339526,350.734634 C72.815421,350.822264 72.4960152,350.778449 72.1655955,350.442535 C71.669966,349.945966 71.1853504,349.434792 70.6346509,349.084273 C69.1477623,348.120345 68.4428669,346.323934 67.6829016,344.556733 C67.8370975,343.475965 66.7797545,343.198471 66.7907684,342.190728 C66.7907684,341.37285 66.7246845,340.554971 66.6696146,339.737093 C66.6365726,339.225919 66.6696146,338.612511 66.4713627,338.247387 C65.7664674,336.991359 65.8435653,335.560072 65.7995094,334.14339 C65.7884954,333.573797 65.8105233,332.945783 65.0836,332.916573 C64.6981104,332.901968 64.4888445,332.215535 64.5329005,331.704361 C64.6870964,329.73269 64.5989844,327.819439 64.0592989,325.964608 C64.4558026,324.372667 63.8280051,322.780725 64.0482849,321.174179 C64.3456627,318.954223 64.5879705,316.719663 64.8412922,314.499708 C64.9514321,313.491965 64.8302782,312.381988 65.127656,311.491085 C65.4250337,310.614787 66.1189151,309.972168 66.6035306,309.198105 C66.8017824,308.8914 67.0661182,308.467856 67.0330762,308.146547 C66.7467125,305.532258 68.5309789,305.722122 69.522238,304.948059 C70.0839514,304.495305 70.8549307,304.4807 71.5488121,304.349255 C71.9122738,304.290835 72.2867494,304.407675 72.6502111,304.466095 C73.2559806,304.553725 73.9608759,304.948059 74.4565055,304.670565 C75.5468905,304.057156 76.1967159,304.787404 76.9566812,305.532258 C78.0030102,306.56921 79.0933952,307.533138 80.2058082,308.467856 C81.494445,309.563229 82.3755642,311.067541 82.9042358,312.951582 C83.8183969,316.208489 84.7656001,319.450792 84.9418239,322.985195 C84.9968938,324.095172 85.3162996,325.17594 85.4264395,326.300522 C85.6246913,328.520478 86.0101809,330.740433 85.7678731,332.916573" id="Fill-136"></path>
                        <path d="M325.745036,347.598324 C325.778745,348.025266 325.834927,348.584709 325.879872,349.158873 C325.924817,349.733037 326.059653,350.336646 325.969762,350.866644 C325.677619,352.530248 325.7338,354.252741 325.374239,355.931068 C325.138276,357.03523 325.048386,358.389669 325.688855,359.464387 C325.980999,359.964941 325.958526,360.421328 325.610201,360.730493 C324.936023,361.31938 324.891078,362.187987 324.812424,363.100762 C324.745006,363.969369 324.82366,364.705477 325.396711,365.309086 C325.64391,365.574085 325.554019,366.074638 325.306821,366.369082 C325.21693,366.472137 325.138276,366.648803 325.025913,366.692969 C324.273082,366.957968 323.756212,367.664632 323.194397,368.297685 C322.711236,368.842405 322.126949,369.122126 321.452771,369.048515 C320.632522,368.960182 319.834745,369.019071 319.036968,369.401847 C318.36279,369.725735 317.66614,369.475458 317.048143,368.989627 C316.351493,368.444907 315.621134,367.959075 314.980665,367.3113 C314.553686,366.869635 314.194124,366.236582 313.924453,365.603529 C313.654782,364.985198 313.340166,364.572978 312.823296,364.366868 C312.519916,364.24909 312.261481,363.998813 311.958101,363.866314 C310.845708,363.36576 310.227712,362.335209 309.969277,360.862993 C309.384989,357.491617 308.879356,354.10552 309.025428,350.616367 C309.047901,349.968592 309.149027,349.320817 309.182736,348.658319 C309.250154,347.348047 309.295099,346.037774 309.340044,344.727502 C309.362517,344.153338 309.351281,343.579173 309.351281,343.005009 C309.351281,340.870295 309.834441,338.79447 309.77826,336.630312 C309.755787,335.702816 310.205239,334.760597 310.463674,333.833101 C310.722109,332.905605 311.216506,332.522829 311.980574,332.272552 C314.227833,331.551166 316.171712,332.316718 318.014465,333.921434 C318.643697,334.466154 319.284166,334.98143 320.025762,335.231707 C320.699939,335.467261 321.272991,335.894204 321.666261,336.74809 C321.879751,337.219199 322.284257,337.557808 322.643819,337.866974 C323.239342,338.352805 323.756212,338.941692 324.160719,339.692522 C324.688824,340.678907 325.419184,341.459182 325.250639,342.931398 C325.160749,343.682228 325.407947,344.565558 325.632673,345.316388 C325.868636,346.037774 326.048416,346.700272 325.745036,347.598324" id="Fill-140"></path>
                        <path d="M182.809942,332.698126 C182.95187,331.766863 183.08288,331.086894 182.460582,330.746909 C182.133057,330.569526 181.980212,330.273887 182.002047,329.800865 C182.07847,327.746175 182.07847,325.661921 182.875447,323.784614 C182.99554,323.503757 183.006457,323.148991 183.03921,322.823788 C183.137467,321.936871 183.464992,321.227338 184.032703,320.843008 C184.534908,320.503023 184.764175,319.985655 184.862433,319.320467 C184.96069,318.670062 185.255463,318.315295 185.65941,318.078784 C186.107028,317.812709 186.554646,317.546634 187.013181,317.324905 C187.242448,317.221432 187.526303,317.117958 187.733736,317.221432 C189.229434,318.019657 191.008987,317.620544 192.297252,319.335249 C192.712117,319.882181 193.345332,320.163038 193.913042,320.443895 C194.939288,320.946481 195.703513,321.803834 196.260305,323.060299 C197.046366,324.834132 198.149033,326.297545 199.066104,327.93834 C199.251701,328.263543 199.470051,328.603528 199.535556,328.973076 C199.742989,330.259105 199.961339,331.559916 200.026844,332.875509 C200.136019,334.944981 200.321616,336.970107 200.922079,338.906542 C201.053089,339.335218 201.020337,339.719549 200.812904,340.059533 C200.496296,340.621247 200.387121,341.242089 200.518131,341.93684 C200.725564,343.00114 200.780152,344.050658 200.572719,345.12974 C200.529049,345.351469 200.572719,345.617544 200.627307,345.839273 C200.911162,347.154866 200.911162,347.154866 200.234276,347.701798 C199.917669,347.953091 199.601061,348.204384 199.306289,348.485389 C197.352056,350.318202 195.212225,351.352938 192.810375,351.367867 C192.089819,351.367867 191.347429,351.23483 190.648709,351.692922 C190.419442,351.840742 190.048246,351.722486 189.775309,351.604231 C189.371361,351.426847 188.989249,351.175554 188.628971,350.879916 C188.323281,350.62877 187.984838,350.362548 187.799241,349.978217 C187.275201,348.869571 186.740243,347.731362 186.347213,346.534024 C185.976018,345.395815 185.757668,344.198477 185.157205,343.208087 C184.982525,342.912448 184.993443,342.424644 184.895185,342.040314 C184.731423,341.419472 184.644083,340.680375 184.338393,340.222135 C183.716095,339.290872 183.585085,338.197009 183.464992,337.044017 C183.377652,336.142318 183.17022,335.270184 183.028292,334.383267 C182.930035,333.747644 182.853612,333.097238 182.809942,332.698126" id="Fill-142"></path>
                        <path d="M152.859838,416.506146 C153.093042,417.121279 152.793208,417.826431 152.659948,418.546586 C152.560003,419.116709 152.426743,419.746844 152.759893,420.241951 C153.148567,420.827077 153.026413,421.292177 152.671053,421.757277 C151.493924,423.257601 150.272376,424.577885 148.673258,425.29819 C147.507234,425.823303 146.352315,426.393276 145.141872,426.7385 C144.575518,426.903536 144.042478,426.903536 143.498334,426.693341 C143.209604,426.573465 142.90977,426.348416 142.62104,426.333263 C141.377281,426.288403 140.744297,425.193017 140.288993,423.842727 C139.234019,420.707051 138.43446,417.436497 138.14573,414.000606 C137.979155,412.050186 137.712636,410.249799 136.935287,408.53943 C136.457772,407.504207 136.291197,406.198926 136.035783,404.998667 C135.958048,404.623587 136.024678,404.17349 136.069098,403.768552 C136.380037,401.037814 136.668767,398.307376 137.412801,395.72667 C137.768161,394.481402 138.223465,393.296146 138.61214,392.066031 C138.823134,391.390886 139.178494,391.075668 139.689323,390.820613 C140.966397,390.175474 140.966397,390.100458 142.143525,390.745597 C143.798169,391.660794 145.508336,392.470969 146.818725,394.256353 C146.863145,394.316366 146.91867,394.361376 146.974195,394.376379 C148.995302,395.26157 149.694917,397.692243 150.394531,399.987588 C151.094145,402.298086 151.560554,404.758616 152.115804,407.159133 C152.182434,407.474201 152.182434,407.819275 152.182434,408.149346 C152.204644,410.339818 152.471163,412.48528 152.782103,414.630742 C152.848733,415.170859 152.826523,415.770988 152.859838,416.506146" id="Fill-148"></path>
                        <path d="M392.989976,395.401462 C392.989976,396.129512 393.01253,396.771908 392.989976,397.414305 C392.933588,398.713373 392.70804,399.941064 392.031393,400.968899 C391.580295,401.654122 391.16303,402.325069 391.129198,403.281526 C391.11792,403.481383 390.971314,403.795444 390.835984,403.852546 C389.640575,404.366463 388.997761,405.736909 388.163231,406.750468 C387.080596,408.063812 385.749858,408.706208 384.452952,409.519911 C383.313931,410.24796 382.129799,410.048103 380.956945,409.991002 C380.787784,409.976726 380.596067,409.848247 380.438183,409.719767 C379.682594,409.120197 378.949561,408.563454 378.002256,408.549178 C377.449661,408.534903 377.14517,407.863955 376.964731,407.278661 C376.389581,405.408573 375.870819,403.509934 376.028703,401.468541 C376.186588,399.484392 376.468524,397.528508 376.648963,395.544217 C376.806847,393.85971 377.336887,392.303683 377.72032,390.704972 C378.047365,389.320108 378.363134,387.949662 378.577405,386.53639 C378.667625,385.908269 378.859341,385.308699 378.938283,384.680578 C379.118722,383.338683 379.817924,382.639327 380.731397,382.153961 C380.787784,382.125267 380.855448,382.110991 380.911836,382.068308 C381.892973,381.382942 382.885388,381.04033 383.88908,381.982512 C385.91902,382.553531 387.542971,383.966804 388.986484,385.822616 C389.561633,386.564941 390.204448,387.193062 390.824707,387.878285 C390.914926,387.978213 391.038978,388.106692 391.140475,388.106692 C392.076503,388.078141 392.200555,388.977497 392.426104,389.81975 C392.933588,391.675562 393.035085,393.574201 392.989976,395.401462" id="Fill-159"></path>
                        <path d="M141.016082,273.373299 C141.187914,271.768728 141.220132,269.489337 141.982636,267.434885 C142.036333,267.284925 142.079291,267.119969 142.111509,266.97001 C142.573307,264.360706 143.34655,261.901363 144.012398,259.397032 C144.109054,259.022132 144.152012,258.587248 144.173491,258.182356 C144.194969,257.687489 144.152012,257.177625 144.18423,256.667761 C144.377541,254.193422 145.075607,253.878506 146.418043,254.328386 C146.879841,254.478346 147.180546,254.568322 147.52421,254.073454 C147.610126,253.93849 147.889352,253.893502 148.007486,253.998474 C149.264006,254.958217 150.606442,255.693021 151.637432,257.177625 C152.013314,257.71748 152.399936,258.257336 152.850994,258.662228 C153.871245,259.621972 154.257867,261.121571 154.590791,262.606175 C154.955933,264.27073 155.159983,266.025262 155.374773,267.749801 C155.460689,268.409625 155.492907,269.024461 155.868789,269.564317 C156.094318,269.879233 155.997663,271.558784 155.815092,272.203612 C155.675478,272.668488 155.503647,273.118368 155.364033,273.583243 C155.074067,274.602971 154.870017,275.622699 154.988151,276.762394 C155.063328,277.407222 155.02037,278.112034 154.955933,278.771858 C154.880757,279.62663 154.61227,280.346437 154.043077,280.811313 C153.269834,281.441145 152.507331,282.115965 151.744827,282.775788 C151.390424,283.075708 151.003803,283.315644 150.681618,283.675548 C150.370173,284.020456 150.058728,284.185412 149.682846,284.035452 C149.296225,283.885492 148.98478,284.095436 148.641116,284.245396 C147.223504,284.890224 145.956245,284.590304 144.774902,283.240664 C144.130533,282.505861 143.518382,281.681081 142.691442,281.306181 C142.197425,281.081241 141.907459,280.511393 141.757106,279.851569 C141.359746,277.932082 140.908687,276.042587 141.016082,273.373299" id="Fill-165"></path>
                        <path d="M267.474632,317.238114 C267.474632,318.318159 267.570667,319.413 267.453292,320.463455 C267.325246,321.5435 267.86944,322.534774 267.549326,323.600024 C267.517314,323.70359 267.64536,323.881132 267.688042,324.029083 C268.146872,325.316261 268.146872,325.316261 267.367928,326.159584 C267.271894,326.26315 267.165189,326.337125 267.069155,326.440691 C266.845075,326.677413 266.877087,326.928931 266.95178,327.284014 C267.207871,328.45283 267.122507,328.733938 266.514291,329.384924 C266.140825,329.784393 265.660654,330.095091 265.425904,330.612921 C264.988415,331.604195 264.369528,332.122025 263.611925,332.477108 C261.979344,333.246456 260.357434,334.045393 258.586138,333.971418 C257.913792,333.941827 257.295012,333.823466 256.708136,333.335227 C256.227965,332.920963 255.758465,332.269976 255.086119,332.728626 C255.043544,332.758216 254.830135,332.432723 254.744771,332.225591 C253.933816,330.257837 253.410963,328.171723 253.432198,325.863681 C253.442975,325.197899 253.464316,324.546913 253.218788,323.925517 C253.144202,323.733181 253.112084,323.392892 253.176213,323.230146 C253.57102,322.238871 253.261577,321.321573 253.165436,320.345093 C252.973474,318.466111 252.898674,316.557538 253.218788,314.66376 C253.33627,313.953593 253.442975,313.199041 254.083202,312.932728 C254.221919,312.873548 254.339187,312.577645 254.381975,312.355718 C254.413987,312.192971 254.296612,311.985839 254.25393,311.793502 C253.987168,311.941454 253.741748,311.911864 253.827111,311.423624 C254.093873,309.884929 254.872817,308.893655 255.833158,308.139103 C256.249306,307.81361 256.836182,307.724839 257.102943,307.26619 C257.860546,305.949422 258.746194,306.26012 259.663854,306.629999 C260.165366,306.822335 260.656207,307.177419 261.157719,307.207009 C261.669901,307.236599 262.064708,307.591683 262.502197,307.828405 C263.003709,308.094717 263.515891,308.33144 263.846675,308.997221 C263.910698,309.130377 264.017403,309.278329 264.124107,309.293124 C265.201824,309.544641 265.842052,310.669072 266.653007,311.4976 C267.154519,312.01543 267.399939,312.488874 267.389269,313.287812 L267.389269,317.252909 C267.42128,317.238114 267.442621,317.238114 267.474632,317.238114" id="Fill-167"></path>
                        <path d="M116,219.219686 C115.958084,220.358216 115.874251,221.078806 115.926646,221.799395 C116.062875,223.86028 115.392211,225.546458 114.627236,227.160578 C114.365258,227.708226 114.176634,228.255874 114.029926,228.87558 C113.547887,230.965289 112.363746,232.118232 110.760441,232.161467 C110.173611,232.175879 109.58678,232.10382 108.99995,232.175879 C107.553832,232.34882 106.243942,231.642643 104.923573,231.008524 C104.651116,230.878818 104.389138,230.662642 104.158598,230.432053 C103.823266,230.100582 103.561288,229.68264 103.487934,229.077345 C103.393622,228.284697 103.246914,227.506461 103.142123,226.713813 C103.005895,225.690576 102.953499,224.681751 103.047811,223.61528 C103.278352,221.064394 103.351706,218.484685 103.142123,215.904975 C102.995416,214.089091 103.194519,212.3885 103.969973,210.860851 C104.137639,210.543792 104.315784,210.212321 104.535846,209.967321 C104.944531,209.506144 105.353217,209.030555 105.814298,208.699084 C106.820293,207.949671 107.616706,207.012905 108.130183,205.528491 C108.528389,204.389961 109.429594,203.972019 110.257444,203.568489 C110.393672,203.49643 110.592776,203.626136 110.749962,203.727019 C111.064336,203.943195 111.357751,204.361137 111.672125,204.389961 C112.646682,204.476431 113.044889,205.427609 113.516449,206.349963 C114.092801,207.474082 114.543403,208.641437 114.899693,209.938497 C115.339816,211.538205 115.622752,213.152325 115.779939,214.80968 C115.947604,216.394976 115.947604,218.009096 116,219.219686" id="Fill-175"></path>
                        <path d="M306.854232,386.345238 C307.915925,386.419826 309.126256,386.58392 310.103013,387.971258 C310.676328,388.791727 311.387662,389.448102 312.077763,390.089559 C313.808323,391.730497 314.901867,394.08748 315.910475,396.563804 C316.51564,398.055566 316.749213,399.681586 316.940318,401.322523 C317.120806,402.859038 316.887233,404.306046 316.303302,405.648631 C315.44333,407.632674 314.721485,409.72114 314.09498,411.854359 C313.457964,414.032331 312.205166,414.748376 310.750646,414.987058 C310.262267,415.061646 309.625252,414.808047 309.253659,414.375436 C308.478623,413.495297 307.597418,412.809087 306.8967,411.735018 C305.951793,410.28801 305.431563,408.512814 304.730846,406.886794 C304.465423,406.260254 304.539741,405.380114 304.019511,404.917668 C303.977044,404.872916 303.913342,404.768492 303.923959,404.723739 C304.253084,403.291648 303.499282,402.396591 303.063988,401.337441 C302.660544,400.352878 302.607459,399.27881 302.596843,398.174907 C302.586226,397.354438 302.681884,396.504134 302.140421,395.862676 C302.002294,395.698582 301.981167,395.236136 302.012911,394.922867 C302.151038,393.520611 302.373887,392.133273 302.894223,390.880193 C303.255199,390.014971 303.637408,389.164667 304.030128,388.329281 C304.826398,386.613755 305.197991,386.345238 306.854232,386.345238" id="Fill-181"></path>
                        <path d="M212.013651,264.436828 C211.969199,262.393055 212.013651,260.599241 212.447058,258.834833 C212.735996,257.643858 213.380549,257.188053 214.191797,256.893985 C214.847464,257.364493 215.136401,256.673434 215.347548,256.129408 C216.02544,254.335593 217.092287,253.806271 218.548089,253.968008 C219.137077,254.026822 219.748292,253.997415 220.33728,254.173856 C220.626218,254.262076 220.937382,254.40911 221.170754,254.659068 C221.893099,255.408941 222.60433,256.202925 223.271109,257.041019 C223.504482,257.335087 223.68229,257.629154 224.01568,257.687968 C224.126809,257.702671 224.31573,257.790892 224.326843,257.879112 C224.549103,259.59941 225.749306,260.040512 226.58278,260.937419 C226.682797,261.040343 226.749475,261.172673 226.838379,261.290301 C227.093978,261.628479 227.049526,262.128394 226.682797,262.275428 C226.24939,262.437166 225.960453,262.5842 225.849323,263.289963 C225.627063,264.819116 225.315899,266.333566 225.804871,267.877423 C225.871549,268.097974 225.94934,268.436152 225.871549,268.583186 C225.226995,269.906492 225.649289,271.318018 225.627063,272.685434 C225.627063,272.935392 225.638287,273.200053 225.593724,273.420604 C225.527046,273.714672 225.449255,274.111664 225.271447,274.258697 C224.260276,275.155605 223.3489,276.25836 222.082131,276.581834 C221.126302,276.831792 220.537425,276.552428 220.103907,275.434969 C220.070568,275.361452 220.059455,275.287935 220.026228,275.214418 C219.770518,274.567469 219.503806,273.935223 219.248318,273.288273 C218.570315,273.244163 217.88131,273.053019 217.225643,273.200053 C216.614429,273.332383 216.136681,273.155943 215.636597,272.803061 C214.747558,272.170815 213.90286,271.494459 213.45834,270.21541 C213.402775,270.068376 213.34721,269.891935 213.258417,269.803568 C212.091553,268.715516 211.969311,267.112846 212.013651,265.436806 C212.024764,265.024964 212.013651,264.613268 212.013651,264.436828" id="Fill-189"></path>
                        <path d="M244.676781,370.03849 C244.777981,371.399992 244.822959,372.629735 244.969137,373.830199 C245.081581,374.796426 244.879181,375.616255 244.485626,376.377525 C243.990871,377.329112 243.451137,378.23678 242.956382,379.173727 C242.304205,380.43275 241.427138,381.311138 240.381405,381.96993 C239.729228,382.379844 239.088295,382.511602 238.379895,382.277365 C237.098029,381.838171 237.07554,381.852811 236.36714,380.330272 C235.658741,378.778453 235.062785,377.168074 234.781674,375.367379 C234.635497,374.401152 234.376875,373.478844 234.196963,372.512617 C234.084519,371.883106 234.028297,371.238954 233.949586,370.594803 C233.882119,370.03849 233.85963,369.452898 233.724697,368.911226 C233.421097,367.740041 233.207453,366.554217 233.319897,365.309834 C233.331142,365.148796 233.342386,364.958479 233.286164,364.826721 C232.847631,363.889773 232.982564,362.938186 233.229942,361.986599 C233.601008,360.595818 233.927097,359.175757 234.759185,358.077772 C235.366385,357.287222 236.119763,356.979786 236.963096,356.921227 C237.457851,356.891948 237.952606,356.848028 238.447362,356.73091 C238.795939,356.643071 239.043317,356.760189 239.301939,357.052985 C240.010339,357.843535 240.685005,358.736563 241.472116,359.380714 C242.214361,359.995586 242.619049,361.093571 243.529848,361.488846 C244.080826,361.723082 244.227004,362.557551 244.283226,363.333461 C244.474381,365.61727 244.924159,367.8718 244.676781,370.03849" id="Fill-191"></path>
                        <path d="M135,303.162334 C134.946682,303.853775 134.893364,304.531387 134.840045,305.222828 C134.840045,305.264315 134.733409,305.333459 134.680091,305.31963 C134.591227,305.305801 134.449045,305.278143 134.431273,305.222828 C134.271318,304.946252 134.004727,304.669675 134.004727,304.393099 C133.986955,303.107019 134.0225,301.80711 134.058045,300.52103 C134.058045,300.465714 134.200227,300.382742 134.271318,300.382742 C134.342409,300.368913 134.449045,300.438057 134.502364,300.493372 C134.662318,300.686976 134.893364,300.880579 134.911136,301.074182 C134.964455,301.765623 134.928909,302.457064 134.928909,303.148505 C134.946682,303.162334 134.982227,303.162334 135,303.162334" id="Fill-199"></path>
                        <path d="M238,316.609064 C237.925117,316.851105 237.893024,316.993482 237.839536,317.121621 C237.81814,317.164334 237.743257,317.178571 237.700466,317.178571 C237.646978,317.178571 237.561397,317.150096 237.5507,317.107383 C237.454421,316.580589 237.293956,316.053794 237.304654,315.527 C237.326049,314.416461 236.716285,313.362872 237.165585,312.238095 C237.796745,313.106594 237.518607,314.331035 237.850233,315.327673 C237.989302,315.726328 237.957209,316.238884 238,316.609064" id="Fill-203"></path>
                        <path d="M134,310.453779 C133.934178,311.108407 133.637981,311.695316 133.21014,312.214504 C133.1882,312.237078 133.100437,312.248364 133.078497,312.225791 C133.034616,312.191931 132.990735,312.112924 133.001705,312.067777 C133.1882,311.492155 133.374694,310.905247 133.58313,310.340912 C133.60507,310.284478 133.769624,310.273191 133.868357,310.261905 C133.901268,310.261905 133.934178,310.363485 134,310.453779" id="Fill-205"></path>
                        <path d="M133,314.375432 C132.895698,314.538337 132.778358,314.729989 132.64798,314.912059 C132.452413,315.189955 132.152544,315.285782 132.06128,315.122877 C131.996091,314.998303 131.970016,314.816233 132.048242,314.710824 C132.17862,314.538337 132.387224,314.385015 132.595829,314.250858 C132.661018,314.202945 132.817471,314.212527 132.934811,314.22211 C132.934811,314.212527 132.960887,314.298771 133,314.375432" id="Fill-209"></path>
                        <path d="M134,307.750182 C134.059855,307.682297 134.209492,307.5239 134.389056,307.373046 C134.418983,307.342875 134.56862,307.320247 134.68833,307.297619 C134.778112,307.32779 134.957676,307.357961 134.957676,307.395674 C134.987604,307.629498 135.017531,307.870865 134.987604,308.104689 C134.987604,308.165031 134.68833,308.225373 134.508766,308.285714 C134.359129,308.21783 134.149637,308.149945 134.089782,308.082061 C134,308.006634 134.059855,307.923664 134,307.750182" id="Fill-211"></path>
                        <path d="M135,292.440583 C134.266593,292.307057 133.928098,292.093415 134.012722,291.835264 C134.069138,291.719541 134.323009,291.603818 134.492257,291.488095 C134.605089,291.577113 134.774336,291.66613 134.802544,291.755148 C134.85896,291.995495 134.830752,292.235843 134.85896,292.47619 L135,292.440583 Z" id="Fill-215"></path>
                        <path d="M135,298.932882 C134.789889,299.069171 134.549762,299.239532 134.309635,299.392857 C134.189572,299.222496 133.949445,299.052135 134.009477,298.915846 C134.099524,298.728448 134.399683,298.575123 134.63981,298.404762 C134.729857,298.558087 134.849921,298.711412 135,298.932882" id="Fill-219"></path>
                        <path d="M134.348599,296.428571 C134.477533,296.428571 134.692423,296.428571 134.735401,296.44504 C134.864335,296.609722 135.036247,296.790873 134.993269,296.955556 C134.950291,297.120238 134.606467,297.268452 134.434555,297.416667 C134.262643,297.251984 134.004775,297.087302 134.004775,296.922619 C133.961797,296.774405 134.219665,296.609722 134.348599,296.428571" id="Fill-221"></path>
                        <path d="M366,425.954969 C366.335106,426.148292 366.718085,426.320135 366.957447,426.513458 C367.053191,426.599379 366.957447,426.728261 366.957447,426.857143 C366.718085,426.771222 366.335106,426.6853 366.287234,426.577899 C366.191489,426.341615 366.239362,426.105331 366.239362,425.869048 L366,425.954969 Z" id="Fill-227"></path>
                        <path d="M134,293.544947 C134.320684,293.645773 134.801709,293.726433 134.962051,293.86759 C135.082308,294.028912 134.88188,294.250729 134.841795,294.452381 C134.641368,294.33139 134.360769,294.230564 134.320684,294.109572 C134.200427,293.90792 134.240513,293.686103 134.240513,293.464286 L134,293.544947 Z" id="Fill-229"></path>
                        <path d="M326.831178,356.592413 C326.641688,356.629069 326.452197,356.665725 326.262707,356.702381 C326.199543,356.519101 325.946889,356.335821 326.010052,356.189197 C326.199543,355.602701 326.641688,355.566045 326.957505,356.042573 C327.083833,356.225853 326.894342,356.409133 326.831178,356.592413" id="Fill-233"></path>
                        <path d="M172.502677,348.797619 C172.336903,348.70122 171.950097,348.58072 172.005355,348.50842 C172.060613,348.267422 172.336903,348.050523 172.502677,347.809524 C172.668452,347.905923 173,348.026423 173,348.098722 C172.889484,348.339721 172.668452,348.58072 172.502677,348.797619" id="Fill-235"></path>
                        <path d="M367,426.504252 C366.65,426.292517 366.35,426.080782 366,425.869048 C366.1,425.939626 366.25,425.939626 366.35,426.080782 C366.5,426.292517 366.6,426.57483 366.75,426.857143 L367,426.504252 Z" id="Fill-253"></path>
                    </g>
                </g>
            </g>
        </g>
    </g>
</svg>