<?xml version="1.0" encoding="UTF-8"?>
<svg width="15px" height="15px" viewBox="0 0 25 25" version="1.1" xmlns="http://www.w3.org/2000/svg" xmlns:xlink="http://www.w3.org/1999/xlink">
    <!-- Generator: Sketch 48.2 (47327) - http://www.bohemiancoding.com/sketch -->
    <title>send</title>
    <desc>Created with Sketch.</desc>
    <defs></defs>
    <g id="Symbols" stroke="none" stroke-width="1" fill="none" fill-rule="evenodd">
        <g id="send" fill="#D4DCE6" fill-rule="nonzero">
            <g transform="translate(0.000000, -1.000000)" id="Shape">
                <path d="M20.6467276,19.8100937 L14.8728603,18.6922183 C14.4956729,18.619629 14.1039784,18.7502897 13.8428487,19.0261291 L10.4916845,22.5975234 C9.7808315,23.3669701 8.51870471,22.8298092 8.53321192,21.7554873 L8.60574794,17.7340393 C8.60574794,17.559825 8.64926955,17.3856106 8.72180557,17.240432 L12.9288949,8.61682149 C12.9869237,8.50067858 12.9434021,8.37001782 12.8273444,8.31194637 C12.725794,8.25387492 12.5952292,8.28291064 12.5372003,8.38453568 L6.96643384,16.4855031 C6.71981136,16.8484497 6.27008802,17.0371819 5.83487189,16.9500747 L0.931436781,16.0064137 C-0.0260387129,15.8176814 -0.330690006,14.5546274 0.43819183,13.9303593 L16.1785087,1.21271146 C16.6572464,0.82072916 17.3680994,0.893318474 17.759794,1.37240795 C17.8758516,1.51758657 17.9483876,1.67728307 17.9919092,1.85149742 L21.9668832,18.3873432 C22.1264625,19.0116113 21.7492752,19.6358794 21.1254654,19.7955758 C20.9658861,19.8391294 20.8063069,19.8391294 20.6467276,19.8100937 Z"></path>
            </g>
        </g>
    </g>
</svg>