<?xml version="1.0" encoding="UTF-8"?>
<svg width="22px" height="22px" viewBox="0 0 22 22" version="1.1" xmlns="http://www.w3.org/2000/svg" xmlns:xlink="http://www.w3.org/1999/xlink">
    <!-- Generator: Sketch 48.2 (47327) - http://www.bohemiancoding.com/sketch -->
    <title>Share</title>
    <desc>Created with Sketch.</desc>
    <defs></defs>
    <g id="Symbols" stroke="none" stroke-width="1" fill="none" fill-rule="evenodd">
        <g id="Share">
            <g>
                <g id="share" fill="#D4DCE6" fill-rule="nonzero">
                    <path d="M19.1,15.9 C18.3887847,15.8986205 17.6930075,16.1073537 17.1,16.5 C16.7802085,16.7346354 16.3568603,16.7731216 16,16.6 L11.7,13.9 C11.368472,13.6391337 11.213473,13.2128863 11.3,12.8 C11.6002247,11.6865494 11.6002247,10.5134506 11.3,9.4 C11.227107,9.01720288 11.3832174,8.62692691 11.7,8.4 L16.2,5.7 C16.5034647,5.5004385 16.8965353,5.5004385 17.2,5.7 C18.6384326,6.56788809 20.507014,6.12298775 21.4,4.7 C22.2678881,3.26156741 21.8229877,1.39298597 20.4,0.5 C19.9250112,0.184687198 19.3700088,0.0112489368 18.8,0 C17.4679112,0.0815554234 16.3387098,1.00911368 16,2.3 C15.9173146,2.62653936 15.8836132,2.96355343 15.9,3.3 C15.9338835,3.64941417 15.7820644,3.99100711 15.5,4.2 L11,6.9 C10.6535841,7.12203748 10.2006974,7.08086597 9.9,6.8 C7.58040405,4.590861 3.909139,4.68040405 1.7,7 C-0.509138999,9.31959595 -0.419595949,12.990861 1.9,15.2 C4.08784479,17.3286029 7.55897617,17.3725412 9.8,15.3 C10.1022001,15.0225092 10.5527147,14.9815533 10.9,15.2 L15.5,18.1 C15.7642275,18.27822 15.9159605,18.581686 15.9,18.9 C15.8723858,20.5844685 17.2155315,21.9723857 18.9,21.9999999 C20.5844685,22.0276142 21.9723857,20.6844685 22,19 C22.0134567,17.3591384 20.7381154,15.9958426 19.1,15.9 Z" id="Shape"></path>
                </g>
                <rect id="Rectangle-path" x="0" y="0" width="22" height="22"></rect>
            </g>
        </g>
    </g>
</svg>