<?xml version="1.0" encoding="UTF-8"?>
<svg width="28px" height="28px" viewBox="0 0 22 22" version="1.1" xmlns="http://www.w3.org/2000/svg" xmlns:xlink="http://www.w3.org/1999/xlink">
    <!-- Generator: Sketch 48.2 (47327) - http://www.bohemiancoding.com/sketch -->
    <title>post icons/thanks</title>
    <desc>Created with Sketch.</desc>
    <defs>
        <polygon id="path-1" points="0 0.0743725838 2.24141381 0.0743725838 2.24141381 7.81993471 0 7.81993471"></polygon>
    </defs>
    <g id="post-icons/thanks" stroke="none" stroke-width="1" fill="none" fill-rule="evenodd">
        <g id="Page-1">
            <path d="M18.0512821,7.24835325 L18.0512821,7.53676207 C18.046756,7.71637718 18.0428335,8.04260765 18.0322728,8.15381231 C18.0310658,8.17234642 18.0294063,8.19148326 18.0272942,8.21001737 L18.0272942,8.2143872 C17.9803745,8.675329 17.8731079,9.1064354 17.722995,9.50785709 C16.8814577,11.7548542 14.6798525,13.0645979 14.0140755,13.4149378 C13.8956447,13.4773209 13.7547347,13.4773209 13.6370583,13.413431 C12.9821437,13.0582692 10.7767668,11.7275804 9.92859135,9.50785709 C9.78013801,9.11999695 9.67347489,8.70456166 9.62323611,8.26260602 C9.61931356,8.22674327 9.61599448,8.19088053 9.61312801,8.15381231 C9.59924822,7.99936139 9.58974359,7.59296714 9.58974359,7.39753023 L9.58974359,7.24835325 C9.7042518,5.83584314 10.6648233,5.09598559 11.4959508,5.01898616 C11.6299209,5.00436983 11.7537829,5 11.8782483,5 C12.8338413,5 13.2921758,5.3985587 13.8230776,6.00867748 C14.3482463,5.3985587 14.8070335,5 15.7626264,5 C15.8821133,5 16.0111047,5.00436983 16.1496008,5.01898616 C16.9762023,5.09598559 17.9317952,5.83584314 18.0512821,7.24835325" id="Fill-1" fill="#D4DCE6"></path>
            <path d="M21.770755,14.3853432 C21.7695317,14.3901687 21.7683084,14.3949943 21.7660148,14.3999755 L18.0697305,19.029719 C18.0434301,19.062564 18.0149889,19.0943194 17.9841011,19.1223388 C17.8677369,19.2271003 17.735623,19.3049321 17.5954049,19.3538104 C17.5954049,19.3538104 14.9901308,20.2224127 14.0986677,20.4636911 C13.2073575,20.7060591 10.4926001,21.251971 10.4926001,21.251971 C10.0659823,21.3956484 9.61306398,21.3944031 9.18766941,21.249636 C9.1318574,21.2312678 9.07833904,21.2044936 9.02833759,21.1728939 L3.33291296,17.6064878 C3.17602769,17.5090424 2.99651179,17.4690369 2.82051282,17.4884948 L2.82051282,12.0656459 C4.38829516,11.6389722 6.36358164,11.5245596 8.02051028,12.7514992 C8.04069435,12.7661316 8.06087842,12.7830989 8.07999212,12.7989766 C8.25706147,12.9549514 9.19118634,13.774831 9.59884338,14.1794004 C11.2415514,15.7145537 12.6700331,15.5950042 12.749699,15.5999854 L12.805511,15.6023203 L12.861323,15.5901786 C15.0733136,15.0931451 15.8552934,16.2287102 15.8552934,16.2287102 C15.954073,16.3261556 16.0135549,16.4614271 16.0288458,16.6013686 C16.0384791,16.6866722 16.0312924,16.7733768 16.0063681,16.8547888 C15.9635534,16.9986218 15.8517765,17.1776348 15.5653768,17.2399002 C15.2753072,17.2593582 14.1593728,17.2240226 13.0908404,17.5213398 C12.8162147,17.5969923 12.5322615,17.6152049 12.2469322,17.5736428 C11.3294745,17.4410175 10.6649293,17.4435081 10.2716457,17.5809589 C10.0540553,17.657701 9.93876147,17.9002248 10.0126168,18.1232905 C10.0873896,18.346045 10.3239408,18.4643492 10.5415312,18.3876071 C10.7933733,18.2998129 11.387733,18.310865 12.1304151,18.4179615 C12.2695628,18.4388204 12.4085577,18.4486272 12.5464821,18.4486272 C12.8042878,18.4486272 13.0587294,18.413136 13.3082779,18.34371 C14.363813,18.051374 15.570117,18.0926248 15.581891,18.0926248 L15.6248586,18.0951154 L15.66645,18.0877993 C16.2190654,17.9928445 16.6433896,17.6273467 16.8014981,17.1083646 C16.8513467,16.9413377 16.8715308,16.7683955 16.8632736,16.5977883 C16.8513467,16.3602459 16.948903,16.1300196 17.1175623,15.9667286 C18.0899146,15.0212285 20.0023552,13.6336442 20.0023552,13.6336442 C20.7057395,13.1084356 21.395209,12.8380481 21.8242734,13.3058169 C22.1129667,13.6201015 22.0108231,14.1123094 21.770755,14.3853432" id="Fill-3" fill="#D4DCE6"></path>
            <g id="Group-7" transform="translate(0.000000, 11.205128)">
                <mask id="mask-2" fill="white">
                    <use xlink:href="#path-1"></use>
                </mask>
                <g id="Clip-6"></g>
                <path d="M2.24141381,0.522400197 L2.24141381,7.37175523 C2.24141381,7.61900572 2.03087337,7.81993471 1.7719069,7.81993471 L0.468222485,7.81993471 C0.209256016,7.81993471 -6.94280079e-05,7.61900572 -6.94280079e-05,7.37175523 L-6.94280079e-05,0.522400197 C-6.94280079e-05,0.275149704 0.209256016,0.0743725838 0.468222485,0.0743725838 L1.7719069,0.0743725838 C2.03087337,0.0743725838 2.24141381,0.275149704 2.24141381,0.522400197" id="Fill-5" fill="#D4DCE6" mask="url(#mask-2)"></path>
            </g>
        </g>
    </g>
</svg>