<?xml version="1.0" encoding="UTF-8"?>
<svg width="24px" height="24px" viewBox="0 0 24 24" version="1.1" xmlns="http://www.w3.org/2000/svg" xmlns:xlink="http://www.w3.org/1999/xlink">
    <!-- Generator: Sketch 48.2 (47327) - http://www.bohemiancoding.com/sketch -->
    <title>watch </title>
    <desc>Created with Sketch.</desc>
    <defs></defs>
    <g id="Symbols" stroke="none" stroke-width="1" fill="none" fill-rule="evenodd">
        <g id="watch-">
            <g id="watch" transform="translate(0.000000, 1.000000)">
                <rect id="Rectangle-path" x="1" y="0" width="22" height="22"></rect>
                <g id="Eye" transform="translate(0.000000, 1.000000)" fill="#000000" fill-rule="nonzero">
                    <path d="M2.67,7.46 L1.13,5.58 C0.924390557,5.32274912 0.96455805,4.94785252 1.22,4.74 C1.47882847,4.53988192 1.84944233,4.57959055 2.06,4.83 L3.59,6.72 C3.69087029,6.84088779 3.73826088,6.99758891 3.72128811,7.15411558 C3.70431534,7.31064225 3.62443777,7.45354321 3.5,7.55 C3.39550248,7.63498028 3.26468664,7.68094261 3.13,7.68 C2.9498819,7.686467 2.77802443,7.6042743 2.67,7.46 Z M6.72,4.86 C6.8073659,5.09383296 7.03038044,5.24914666 7.28,5.25 C7.34625472,5.26048103 7.41374528,5.26048103 7.48,5.25 C7.62929878,5.19800525 7.75148495,5.08826799 7.81916266,4.94539284 C7.88684036,4.80251769 7.89434718,4.63845862 7.84,4.49 L7.02,2.19 C6.96800525,2.04070122 6.85826799,1.91851505 6.71539284,1.85083734 C6.57251769,1.78315964 6.40845862,1.77565282 6.26,1.83 C6.11070122,1.88199475 5.98851505,1.99173201 5.92083734,2.13460716 C5.85315964,2.27748231 5.84565282,2.44154138 5.9,2.59 L6.72,4.86 Z M12,4.42 C12.1573006,4.42273629 12.3089645,4.36145482 12.4202097,4.25020967 C12.5314548,4.13896451 12.5927363,3.98730061 12.59,3.83 L12.59,1.38 C12.5845416,1.05254092 12.3175046,0.78995451 11.99,0.79 C11.664152,0.79 11.4,1.054152 11.4,1.38 L11.4,3.83 C11.3971613,3.98908214 11.4597991,4.14234525 11.5732465,4.25390186 C11.6866939,4.36545846 11.840988,4.42551179 12,4.42 Z M16.52,5.22 C16.5858226,5.23500237 16.6541774,5.23500237 16.72,5.22 C16.9721804,5.21760629 17.1959474,5.05777267 17.28,4.82 L18.1,2.53 C18.1543472,2.38154138 18.1468404,2.21748231 18.0791627,2.07460716 C18.011485,1.93173201 17.8892988,1.82199475 17.74,1.77 C17.5915414,1.71565282 17.4274823,1.72315964 17.2846072,1.79083734 C17.141732,1.85851505 17.0319947,1.98070122 16.98,2.13 L16.16,4.42 C16.0924899,4.57307878 16.0931442,4.74762165 16.1618,4.90019002 C16.2304557,5.05275839 16.3606568,5.16900519 16.52,5.22 Z M22.78,4.75 C22.5211715,4.54988192 22.1505577,4.58959055 21.94,4.84 L20.41,6.72 C20.3086082,6.84254121 20.2609857,7.00082778 20.2779297,7.15897182 C20.2948737,7.31711586 20.3749489,7.46172053 20.5,7.56 C20.6044975,7.64498028 20.7353134,7.69094261 20.87,7.69 C21.0490746,7.69161441 21.218853,7.61041603 21.33,7.47 L22.87,5.59 C23.0756094,5.33274912 23.035442,4.95785252 22.78,4.75 Z M22.35,11.67 C22.7714157,12.27007 22.7714157,13.06993 22.35,13.67 C20.0152482,17.0999879 16.1490045,19.1694555 12,19.21 C7.85021424,19.1703036 3.98026766,17.1103128 1.63,13.69 C1.20858427,13.08993 1.20858427,12.29007 1.63,11.69 C3.97581874,8.26209205 7.84651213,6.19423849 12,6.15 C16.1431235,6.19449839 20.0049395,8.25413361 22.35,11.67 Z M15.55,12.67 C15.539072,10.7139335 13.9560665,9.130928 12,9.12 C10.0322421,9.11999228 8.43551193,10.7122498 8.43,12.68 C8.43551193,14.6477502 10.0322421,16.2400077 12,16.24 C13.9599474,16.2290273 15.5445406,14.6399706 15.55,12.68 L15.55,12.67 Z" id="Shape"></path>
                </g>
            </g>
        </g>
    </g>
</svg>