<?xml version="1.0" encoding="UTF-8"?>
<svg width="25px" height="25px" viewBox="0 0 28 28" version="1.1" xmlns="http://www.w3.org/2000/svg" xmlns:xlink="http://www.w3.org/1999/xlink">
    <!-- Generator: Sketch 48.2 (47327) - http://www.bohemiancoding.com/sketch -->
    <title>ADD</title>
    <desc>Created with Sketch.</desc>
    <defs></defs>
    <g id="Symbols" stroke="none" stroke-width="1" fill="none" fill-rule="evenodd">
        <g id="ADD">
            <circle id="Oval" stroke="#D4DCE6" stroke-width="2" cx="14" cy="14" r="13"></circle>
            <g id="Talk-icons/Add-member/gray" transform="translate(8.000000, 8.022663)" fill="#D4DCE6">
                <path d="M11.3423014,5.34246575 L6.65736986,5.34246575 L6.65736986,0.657534247 C6.65736986,0.294410959 6.3629589,0 5.99983562,0 C5.63671233,0 5.34230137,0.294410959 5.34230137,0.657534247 L5.34230137,5.34246575 L0.657534247,5.34246575 C0.294410959,5.34246575 0,5.63687671 0,6 C0,6.36312329 0.294410959,6.65753425 0.657534247,6.65753425 L5.34230137,6.65753425 L5.34230137,11.3424658 C5.34230137,11.705589 5.63671233,12 5.99983562,12 C6.3629589,12 6.65736986,11.705589 6.65736986,11.3424658 L6.65736986,6.65753425 L11.3423014,6.65753425 C11.7054247,6.65753425 11.9998356,6.36312329 11.9998356,6 C11.9998356,5.63687671 11.7054247,5.34246575 11.3423014,5.34246575" id="Page-1"></path>
            </g>
        </g>
    </g>
</svg>