<?xml version="1.0" encoding="UTF-8"?>
<svg width="22px" height="22px" viewBox="0 0 22 22" version="1.1" xmlns="http://www.w3.org/2000/svg" xmlns:xlink="http://www.w3.org/1999/xlink">
    <!-- Generator: Sketch 48.2 (47327) - http://www.bohemiancoding.com/sketch -->
    <title>cake</title>
    <desc>Created with Sketch.</desc>
    <defs>
        <polygon id="path-1" points="0 0.0217720292 21.9130132 0.0217720292 21.9130132 12.446024 0 12.446024"></polygon>
    </defs>
    <g id="Symbols" stroke="none" stroke-width="1" fill="none" fill-rule="evenodd">
        <g id="cake">
            <g>
                <g id="Group-3" transform="translate(0.000000, 0.123375)">
                    <mask id="mask-2" fill="white">
                        <use xlink:href="#path-1"></use>
                    </mask>
                    <g id="Clip-2"></g>
                    <path d="M10.9565789,12.446024 C17.0088947,12.446024 21.9130132,11.2153238 21.9130132,9.6991197 C21.9130132,8.83331867 20.3090395,8.0596859 17.8021974,7.55878408 L17.8021974,4.20545614 L16.8622763,4.20545614 C17.3339737,4.03766636 17.6722237,3.58756595 17.6722237,3.05690902 C17.6722237,2.38371788 17.1280132,0.021597853 16.4564342,0.021597853 C15.7848553,0.021597853 15.2406447,2.38371788 15.2406447,3.05690902 C15.2406447,3.58756595 15.5790395,4.03766636 16.0505921,4.20545614 L15.0673947,4.20545614 L15.0673947,7.15440492 C14.2040395,7.06644592 13.288,7.0050488 12.3283947,6.97427767 L12.3283947,4.20545614 L11.3488158,4.20545614 C11.8205132,4.03766636 12.1589079,3.58756595 12.1589079,3.05690902 C12.1589079,2.38371788 11.6145526,0.021597853 10.9429737,0.021597853 C10.2716842,0.021597853 9.72718421,2.38371788 9.72718421,3.05690902 C9.72718421,3.58756595 10.0657237,4.03766636 10.5374211,4.20545614 L9.58476316,4.20545614 L9.58476316,6.97427767 C8.62935526,7.0050488 7.70911842,7.06644592 6.84576316,7.15440492 L6.84576316,4.20545614 L5.93956579,4.20545614 C6.41126316,4.03766636 6.74965789,3.58756595 6.74965789,3.05690902 C6.74965789,2.38371788 6.20530263,0.021597853 5.53372368,0.021597853 C4.86243421,0.021597853 4.31793421,2.38371788 4.31793421,3.05690902 C4.31793421,3.58756595 4.65632895,4.03766636 5.12802632,4.20545614 L4.10647368,4.20545614 L4.10647368,7.55878408 C1.60411842,8.06418545 0,8.83331867 0,9.6991197 C0,11.2198234 4.90426316,12.446024 10.9565789,12.446024" id="Fill-1" fill="#D4DCE6" mask="url(#mask-2)"></path>
                </g>
                <path d="M10.9565789,13.9450283 C4.90426316,13.9450283 0,12.714328 0,11.1981239 L0,19.438837 C0,20.9551862 4.90426316,22.1855962 10.9565789,22.1855962 C17.0088947,22.1855962 21.9130132,20.9551862 21.9130132,19.438837 L21.9130132,11.1981239 C21.9130132,12.714328 17.0088947,13.9450283 10.9565789,13.9450283" id="Fill-4" fill="#D4DCE6"></path>
            </g>
        </g>
    </g>
</svg>