<?xml version="1.0" encoding="UTF-8"?>
<svg width="31px" height="23px" viewBox="0 0 31 23" version="1.1" xmlns="http://www.w3.org/2000/svg" xmlns:xlink="http://www.w3.org/1999/xlink">
    <!-- Generator: Sketch 48.2 (47327) - http://www.bohemiancoding.com/sketch -->
    <title>other icons/camera</title>
    <desc>Created with Sketch.</desc>
    <defs></defs>
    <g id="talk-Details" stroke="none" stroke-width="1" fill="none" fill-rule="evenodd" transform="translate(-51.000000, -173.000000)">
        <g id="other-icons/camera" transform="translate(51.000000, 169.000000)">
            <g id="camera" transform="translate(-1.409091, 0.000000)">
                <g id="Photo" transform="translate(0.000000, 2.818182)" fill="#FFFFFF" fill-rule="nonzero">
                    <path d="M30.4786364,6.11545455 L25.9131818,6.11545455 L24.1659091,2.53636364 C23.6181036,1.74541879 22.7184814,1.27193343 21.7563636,1.26818182 L12.0618182,1.26818182 C11.0997004,1.27193343 10.2000782,1.74541879 9.65227273,2.53636364 L7.905,6.11545455 L3.35363636,6.11545455 C2.84536909,6.10792506 2.35493368,6.3026408 1.99024858,6.65675532 C1.62556347,7.01086984 1.41651048,7.49536747 1.40909091,8.00363636 L1.40909091,22.0945455 C1.38620913,22.605274 1.56834871,23.1039731 1.9150033,23.4797361 C2.2616579,23.8554991 2.74408616,24.0771712 3.255,24.0954545 L30.4645455,24.0954545 C30.9776619,24.1030012 31.4723678,23.9044357 31.8378741,23.5442266 C32.2033804,23.1840174 32.4091464,22.6922629 32.4090909,22.1790909 L32.4090909,8.08818182 C32.4242613,7.57986968 32.23677,7.08637112 31.887906,6.71636392 C31.5390421,6.34635671 31.057416,6.13018523 30.5490909,6.11545455 L30.4786364,6.11545455 Z M16.9090909,19.2622727 C15.4141269,19.296288 13.9669174,18.7348417 12.8860273,17.7015213 C11.8051372,16.6682009 11.1791676,15.2477083 11.1459091,13.7527273 L11.1459091,13.6259091 C11.1528199,10.4273204 13.7112361,7.81886183 16.9090909,7.75 C20.1256563,7.82674837 22.6885461,10.464833 22.6722727,13.6822727 C22.6722727,16.7951504 20.1487868,19.3186364 17.0359091,19.3186364 L16.9090909,19.2622727 Z" id="Shape"></path>
                </g>
                <rect id="Rectangle-path" x="1.40909091" y="0" width="31" height="31"></rect>
            </g>
        </g>
    </g>
</svg>