<?xml version="1.0" encoding="utf-8"?>
<!-- Generator: Adobe Illustrator 22.0.1, SVG Export Plug-In . SVG Version: 6.00 Build 0)  -->
<svg width="50px" height="80px" viewBox="0 0 60 50" version="1.1" id="Layer_1" xmlns="http://www.w3.org/2000/svg" xmlns:xlink="http://www.w3.org/1999/xlink" x="0px" y="0px"
	  style="enable-background:new 0 0 60 60;" xml:space="preserve">
<style type="text/css">
	.st0{fill:#97CAEB;}
	.st1{enable-background:new    ;}
</style>
<title>nav icons/communities/text active</title>
<desc>Created with Sketch.</desc>
<g id="Symbols">
	<g id="nav-icons_x2F_communities_x2F_text-active">
		<g id="communities" transform="translate(1.000000, 8.000000)">
			<g id="Shape" transform="translate(14.482759, 0.000000)">
				<path class="st0" d="M26.8,3.3c0,1.8-1.5,3.3-3.3,3.3c-1.8,0-3.3-1.5-3.3-3.3S21.6,0,23.4,0C25.3,0,26.8,1.5,26.8,3.3z"/>
				<path class="st0" d="M30.9,13.8v3.5c0,0.8-0.6,1.4-1.4,1.4h-8.9h0c-0.4-0.2-0.6-0.6-0.4-1c0-0.1,0.1-0.2,0.1-0.2
					c2.3-2.7,2-6.7-0.6-9c-0.1-0.1-0.1-0.3,0-0.4c0,0,0.1-0.1,0.1-0.1c1.1-0.6,2.4-0.8,3.6-0.8c1.7,0,3.4,0.5,4.8,1.5
					C29.8,9.9,30.9,11.8,30.9,13.8z"/>
				<path class="st0" d="M10.8,3.3c0,1.8-1.5,3.3-3.3,3.3S4.2,5.2,4.2,3.3S5.7,0,7.5,0C9.3,0,10.8,1.5,10.8,3.3z"/>
				<path class="st0" d="M10.3,18.7H1.4c-0.8,0-1.4-0.6-1.4-1.4v-3.5c0-2.1,1.1-3.9,2.7-5.1c1.4-1,3.1-1.6,4.8-1.5
					c1.3,0,2.5,0.3,3.6,0.8c0.1,0.1,0.2,0.2,0.1,0.4c0,0,0,0.1-0.1,0.1c-2.6,2.3-2.9,6.3-0.6,9c0.3,0.3,0.2,0.8-0.1,1.1
					C10.4,18.6,10.3,18.7,10.3,18.7z"/>
				<path class="st0" d="M26.7,29.1v0.7c0,0.6-0.5,1.1-1.1,1.1H5.2c-0.6,0-1.1-0.5-1.1-1.1v-0.7c0-3.1,1.6-5.9,4.1-7.7
					c1.4-1.1,3.1-1.8,4.9-2.1c1.5-0.3,3.1-0.3,4.6,0c1.8,0.3,3.4,1,4.9,2.1C25.1,23.3,26.7,26,26.7,29.1z"/>
				<path class="st0" d="M20.5,13.3c0,2.8-2.2,5-5,5s-5-2.2-5-5s2.2-5,5-5C18.2,8.3,20.5,10.5,20.5,13.3
					C20.5,13.3,20.5,13.3,20.5,13.3z"/>
			</g>
			<g class="st1">
				<path class="st0" d="M3.6,38.2c-0.7,0-1.3,0.2-1.7,0.7c-0.4,0.5-0.6,1.1-0.6,1.9c0,0.8,0.2,1.5,0.6,1.9c0.4,0.5,1,0.7,1.7,0.7
					c0.4,0,1-0.1,1.5-0.2v0.7c-0.4,0.2-1,0.2-1.6,0.2c-0.9,0-1.7-0.3-2.2-0.9c-0.5-0.6-0.8-1.4-0.8-2.4c0-0.7,0.1-1.2,0.4-1.7
					c0.2-0.5,0.6-0.9,1.1-1.2c0.5-0.3,1-0.4,1.6-0.4c0.7,0,1.3,0.1,1.8,0.4l-0.3,0.6C4.6,38.3,4.1,38.2,3.6,38.2z"/>
				<path class="st0" d="M10.6,41.6c0,0.8-0.2,1.4-0.6,1.8c-0.4,0.4-0.9,0.7-1.6,0.7c-0.4,0-0.8-0.1-1.1-0.3
					c-0.3-0.2-0.6-0.5-0.8-0.9c-0.2-0.4-0.3-0.8-0.3-1.3c0-0.8,0.2-1.4,0.6-1.8c0.4-0.4,0.9-0.7,1.6-0.7c0.7,0,1.2,0.2,1.6,0.7
					C10.4,40.2,10.6,40.8,10.6,41.6z M6.9,41.6c0,0.6,0.1,1.1,0.4,1.4s0.6,0.5,1.1,0.5s0.8-0.2,1.1-0.5c0.2-0.3,0.4-0.8,0.4-1.4
					c0-0.6-0.1-1.1-0.4-1.4c-0.2-0.3-0.6-0.5-1.1-0.5c-0.5,0-0.8,0.2-1.1,0.5S6.9,41,6.9,41.6z"/>
				<path class="st0" d="M18,44v-3.1c0-0.4-0.1-0.7-0.2-0.9c-0.2-0.2-0.4-0.3-0.8-0.3c-0.5,0-0.8,0.1-1,0.4s-0.3,0.7-0.3,1.2V44H15
					v-3.1c0-0.4-0.1-0.7-0.2-0.9c-0.2-0.2-0.4-0.3-0.8-0.3c-0.5,0-0.8,0.1-1,0.4c-0.2,0.3-0.3,0.7-0.3,1.3V44h-0.7v-4.8h0.6l0.1,0.7
					h0c0.1-0.2,0.3-0.4,0.6-0.5c0.3-0.1,0.5-0.2,0.8-0.2c0.8,0,1.2,0.3,1.5,0.8h0c0.1-0.3,0.4-0.5,0.6-0.6s0.6-0.2,0.9-0.2
					c0.5,0,1,0.1,1.2,0.4c0.3,0.3,0.4,0.7,0.4,1.3V44H18z"/>
				<path class="st0" d="M26.4,44v-3.1c0-0.4-0.1-0.7-0.2-0.9c-0.2-0.2-0.4-0.3-0.8-0.3c-0.5,0-0.8,0.1-1,0.4s-0.3,0.7-0.3,1.2V44
					h-0.7v-3.1c0-0.4-0.1-0.7-0.2-0.9c-0.2-0.2-0.4-0.3-0.8-0.3c-0.5,0-0.8,0.1-1,0.4c-0.2,0.3-0.3,0.7-0.3,1.3V44h-0.7v-4.8h0.6
					l0.1,0.7h0c0.1-0.2,0.3-0.4,0.6-0.5c0.3-0.1,0.5-0.2,0.8-0.2c0.8,0,1.2,0.3,1.5,0.8h0c0.1-0.3,0.4-0.5,0.6-0.6s0.6-0.2,0.9-0.2
					c0.5,0,1,0.1,1.2,0.4c0.3,0.3,0.4,0.7,0.4,1.3V44H26.4z"/>
				<path class="st0" d="M29.3,39.2v3.1c0,0.4,0.1,0.7,0.3,0.9s0.5,0.3,0.8,0.3c0.5,0,0.9-0.1,1.1-0.4c0.2-0.3,0.3-0.7,0.3-1.3v-2.5
					h0.7V44H32l-0.1-0.6h0c-0.1,0.2-0.4,0.4-0.6,0.5c-0.3,0.1-0.6,0.2-0.9,0.2c-0.6,0-1-0.1-1.3-0.4c-0.3-0.3-0.4-0.7-0.4-1.3v-3.2
					H29.3z"/>
				<path class="st0" d="M37.5,44v-3.1c0-0.4-0.1-0.7-0.3-0.9c-0.2-0.2-0.5-0.3-0.8-0.3c-0.5,0-0.9,0.1-1.1,0.4s-0.4,0.7-0.4,1.3V44
					h-0.7v-4.8h0.6l0.1,0.7h0c0.1-0.2,0.4-0.4,0.6-0.6c0.3-0.1,0.6-0.2,0.9-0.2c0.6,0,1,0.1,1.3,0.4c0.3,0.3,0.4,0.7,0.4,1.3V44
					H37.5z"/>
				<path class="st0" d="M39.6,37.9c0-0.2,0-0.3,0.1-0.4c0.1-0.1,0.2-0.1,0.3-0.1c0.1,0,0.2,0,0.3,0.1s0.1,0.2,0.1,0.4
					s0,0.3-0.1,0.4c-0.1,0.1-0.2,0.1-0.3,0.1c-0.1,0-0.2,0-0.3-0.1C39.7,38.2,39.6,38,39.6,37.9z M40.4,44h-0.7v-4.8h0.7V44z"/>
				<path class="st0" d="M43.5,43.5c0.1,0,0.3,0,0.4,0c0.1,0,0.2,0,0.3-0.1V44c-0.1,0-0.2,0.1-0.3,0.1c-0.2,0-0.3,0-0.4,0
					c-0.9,0-1.4-0.5-1.4-1.5v-2.9h-0.7v-0.4l0.7-0.3l0.3-1h0.4v1.1h1.4v0.6h-1.4v2.8c0,0.3,0.1,0.5,0.2,0.7S43.3,43.5,43.5,43.5z"/>
				<path class="st0" d="M45.1,37.9c0-0.2,0-0.3,0.1-0.4c0.1-0.1,0.2-0.1,0.3-0.1c0.1,0,0.2,0,0.3,0.1c0.1,0.1,0.1,0.2,0.1,0.4
					s0,0.3-0.1,0.4c-0.1,0.1-0.2,0.1-0.3,0.1c-0.1,0-0.2,0-0.3-0.1C45.1,38.2,45.1,38,45.1,37.9z M45.9,44h-0.7v-4.8h0.7V44z"/>
				<path class="st0" d="M49.4,44.1c-0.7,0-1.3-0.2-1.7-0.7c-0.4-0.4-0.6-1-0.6-1.8c0-0.8,0.2-1.4,0.6-1.8c0.4-0.5,0.9-0.7,1.5-0.7
					c0.6,0,1.1,0.2,1.4,0.6c0.4,0.4,0.5,0.9,0.5,1.6v0.5h-3.3c0,0.6,0.2,1,0.4,1.3s0.7,0.4,1.1,0.4c0.5,0,1-0.1,1.5-0.3v0.7
					c-0.3,0.1-0.5,0.2-0.7,0.2C50,44.1,49.8,44.1,49.4,44.1z M49.2,39.7c-0.4,0-0.7,0.1-0.9,0.4c-0.2,0.3-0.4,0.6-0.4,1h2.5
					c0-0.5-0.1-0.8-0.3-1.1C49.9,39.8,49.6,39.7,49.2,39.7z"/>
				<path class="st0" d="M55.6,42.7c0,0.4-0.2,0.8-0.5,1c-0.3,0.2-0.8,0.4-1.4,0.4c-0.6,0-1.1-0.1-1.5-0.3v-0.7
					c0.2,0.1,0.5,0.2,0.7,0.3c0.3,0.1,0.5,0.1,0.8,0.1c0.4,0,0.7-0.1,0.9-0.2c0.2-0.1,0.3-0.3,0.3-0.6c0-0.2-0.1-0.3-0.2-0.5
					c-0.2-0.1-0.5-0.3-1-0.5c-0.4-0.2-0.8-0.3-1-0.4c-0.2-0.1-0.3-0.3-0.4-0.4c-0.1-0.2-0.1-0.3-0.1-0.6c0-0.4,0.2-0.7,0.5-0.9
					c0.3-0.2,0.8-0.3,1.3-0.3c0.5,0,1,0.1,1.5,0.3L55.2,40c-0.5-0.2-0.9-0.3-1.3-0.3c-0.3,0-0.6,0.1-0.8,0.2s-0.3,0.3-0.3,0.4
					c0,0.1,0,0.2,0.1,0.3c0.1,0.1,0.2,0.2,0.3,0.3s0.4,0.2,0.8,0.4c0.6,0.2,1,0.4,1.2,0.6C55.5,42.1,55.6,42.4,55.6,42.7z"/>
			</g>
		</g>
	</g>
</g>
</svg>
