<?xml version="1.0" encoding="UTF-8"?>
<svg width="28px" height="28px" viewBox="0 0 28 28" version="1.1" xmlns="http://www.w3.org/2000/svg" xmlns:xlink="http://www.w3.org/1999/xlink">
    <!-- Generator: Sketch 48.2 (47327) - http://www.bohemiancoding.com/sketch -->
    <title>Profile Iocns/Posts</title>
    <desc>Created with Sketch.</desc>
    <defs>
        <polygon id="path-1" points="0.079228169 0.00755211268 19.0506085 0.00755211268 19.0506085 25.8309859 0.079228169 25.8309859"></polygon>
    </defs>
    <g id="Symbols" stroke="none" stroke-width="1" fill="none" fill-rule="evenodd">
        <g id="Profile-Iocns/Posts">
            <g id="Page-1" transform="translate(0.000000, 1.000000)">
                <g id="Group-3" transform="translate(0.000000, 0.191465)">
                    <mask id="mask-2" fill="white">
                        <use xlink:href="#path-1"></use>
                    </mask>
                    <g id="Clip-2"></g>
                    <path d="M0.079228169,10.7274113 L0.079228169,25.1269042 C0.079228169,25.5157493 0.394523944,25.8310451 0.783171831,25.8310451 L18.3283268,25.8310451 C18.7171718,25.8310451 19.0322704,25.5157493 19.0322704,25.1269042 L19.0322704,23.9432141 L19.0506085,23.9432141 L19.0506085,18.1207915 L18.1262141,19.0449887 C17.8099324,19.3614676 17.4100451,19.5775803 16.9697352,19.6700592 L13.6560732,20.3625662 C12.9119042,20.4885662 12.2079606,20.208369 11.7501014,19.6475803 C11.3646085,19.1721718 11.2165239,18.5583408 11.3423268,17.9612704 L12.0214254,14.7237211 C12.1077915,14.2905099 12.3242986,13.8874676 12.6462986,13.5654676 L19.0506085,7.16096056 L19.0506085,1.40163662 L19.0322704,0.711495775 C19.0322704,0.322650704 18.7171718,0.00755211268 18.3283268,0.00755211268 L10.450862,0.00755211268 L10.450862,8.50496056 C10.450862,9.73222817 9.45567887,10.7274113 8.22821408,10.7274113 L0.079228169,10.7274113 Z" id="Fill-1" fill="#97CAEB" mask="url(#mask-2)"></path>
                </g>
                <path d="M2.38187324,7.00449577 L0.120971831,9.35866479 C0.0716760563,9.40993239 0.0332253521,9.46948169 9.85915493e-05,9.53179155 L7.57823944,9.53179155 C8.31807042,9.53179155 8.91987324,8.90534085 8.91987324,8.1347493 L8.91987324,0.197340845 L6.8238169,2.37976338 L2.38187324,7.00449577 Z" id="Fill-4" fill="#97CAEB"></path>
                <path d="M27.6226507,6.57893521 L25.3994113,4.35648451 C25.1196085,4.07687887 24.6660873,4.07687887 24.3862845,4.35648451 L23.344369,5.39859718 C23.176369,5.5664 23.176369,5.83851268 23.344369,6.00651268 L25.9728197,8.63496338 C26.1404254,8.8027662 26.4127352,8.80256901 26.580538,8.6347662 L27.6228479,7.59206197 C27.9024535,7.31225915 27.9024535,6.85873803 27.6226507,6.57893521" id="Fill-6" fill="#97CAEB"></path>
                <path d="M22.532862,6.72893239 C22.4484676,6.64453803 22.3392282,6.60155211 22.2297915,6.60155211 C22.1185803,6.60155211 22.0093408,6.64453803 21.9249465,6.72893239 L19.6839606,8.97011549 L15.413369,13.240707 L13.7116789,14.9422 C13.6130873,15.0407915 13.5450592,15.1644254 13.5180451,15.3008761 L12.8385521,18.542369 C12.7811718,18.8148761 12.9927493,19.0605662 13.2563831,19.0605662 C13.2867493,19.0605662 13.3173127,19.0570169 13.3476789,19.0514958 L16.5875944,18.3720028 C16.7256225,18.3432141 16.8492563,18.2769606 16.9478479,18.178369 L25.1611155,9.96510141 C25.329707,9.79670704 25.329707,9.5242 25.1611155,9.3573831 L22.532862,6.72893239 Z" id="Fill-8" fill="#97CAEB"></path>
            </g>
        </g>
    </g>
</svg>