<?xml version="1.0" encoding="UTF-8"?>
<svg width="30px" height="30px" viewBox="0 0 145 145" version="1.1" xmlns="http://www.w3.org/2000/svg" xmlns:xlink="http://www.w3.org/1999/xlink">
    <!-- Generator: Sketch 48.2 (47327) - http://www.bohemiancoding.com/sketch -->
    <title>nav icons/friends/active</title>
    <desc>Created with Sketch.</desc>
    <defs></defs>
    <g id="Symbols" stroke="none" stroke-width="1" fill="none" fill-rule="evenodd">
        <g id="nav-icons/friends/active" fill="#97CAEB" fill-rule="nonzero">
            <g id="friends">
                <path d="M61,75.14 C61.8464997,76.0703476 62.179277,77.358536 61.8892923,78.5824712 C61.5993077,79.8064064 60.7239338,80.8083499 59.55,81.26 C53.8729805,83.4090639 48.5140339,86.3189753 43.62,89.91 C39.8611678,92.678682 36.4232056,95.8583778 33.37,99.39 C32.6345651,100.250778 31.5621279,100.750519 30.43,100.76 L4.74,100.76 C3.47940093,100.760011 2.27072252,100.257875 1.38122292,99.3646225 C0.491723332,98.4713698 -0.00531898346,97.2605878 -1.77635684e-15,96 L-1.77635684e-15,93 C0.09,79.31 7.1,67.12 18.06,59 C27.3062601,52.2911777 38.4565715,48.7169107 49.88,48.8 C50.77,48.8 51.65,48.8 52.52,48.86 C52.3595581,50.1872869 52.2794122,51.5230513 52.28,52.86 C52.2688062,61.1213695 55.384062,69.0809909 61,75.14 Z" id="Shape"></path>
                <path d="M69.77,23.89 C62.2698388,27.8712346 56.59297,34.590355 53.92,42.65 C53.4383742,44.2129327 52.0240727,45.3027061 50.39,45.37 L50.16,45.37 C38.2807341,45.5309729 28.3821684,36.3072121 27.7053725,24.446149 C27.0285766,12.5850859 35.8136893,2.29522864 47.634162,1.10388722 C59.4546348,-0.0874542066 70.1163617,8.24242851 71.82,20 C72.0232062,21.5988382 71.2037422,23.153821 69.77,23.89 Z" id="Shape"></path>
                <path d="M144,135.3 L144,138.92 C144.000005,142.008894 141.498889,144.514484 138.41,144.52 L31.8,144.52 C28.7072054,144.52 26.2,142.012795 26.2,138.92 L26.2,135.3 C26.31,119.18 34.58,104.79 47.53,95.25 C55.5355564,89.3900904 64.8280176,85.5325189 74.63,84 C81.5869017,82.9014775 88.6730983,82.9014775 95.63,84 C105.428029,85.5295679 114.717167,89.3837544 122.72,95.24 C135.61,104.79 143.9,119.18 144,135.3 Z" id="Shape"></path>
                <path d="M111.3,52.91 C111.300713,63.6162516 104.787303,73.2458033 94.85,77.23 C88.5950592,79.736322 81.6149408,79.736322 75.36,77.23 C63.1176471,72.327474 56.4271398,59.0897324 59.7403743,46.3252331 C63.0536088,33.5607338 75.3378433,25.2481967 88.4190882,26.9188246 C101.500333,28.5894525 111.301138,39.7225073 111.3,52.91 Z" id="Shape"></path>
            </g>
        </g>
    </g>
</svg>