<?xml version="1.0" encoding="UTF-8"?>
<svg width="10px" height="10px" viewBox="0 0 24 24" version="1.1" xmlns="http://www.w3.org/2000/svg" xmlns:xlink="http://www.w3.org/1999/xlink">
    <!-- Generator: Sketch 48.2 (47327) - http://www.bohemiancoding.com/sketch -->
    <title>Heart_thanks_active</title>
    <desc>Created with Sketch.</desc>
    <defs>
        <polygon id="path-1" points="0 0 21.9406579 0 21.9406579 21.9602252 0 21.9602252"></polygon>
    </defs>
    <g id="Symbols" stroke="none" stroke-width="1" fill="none" fill-rule="evenodd">
        <g id="Heart_thanks_active">
            <g id="Page-1">
                <mask id="mask-2" fill="white">
                    <use xlink:href="#path-1"></use>
                </mask>
                <g id="Clip-2"></g>
                <path d="M21.9407303,5.83508477 L21.9407303,6.58395894 C21.9291513,7.05018411 21.9190197,7.89667417 21.891375,8.18515099 C21.888625,8.23323046 21.8841382,8.28276689 21.8783487,8.33084636 L21.8783487,8.34250199 C21.7567697,9.53866093 21.4790197,10.6576013 21.0895329,11.6993232 C18.907625,17.5310715 13.198625,20.9299987 11.4724934,21.8394291 C11.1655066,22.001151 10.7996118,22.001151 10.4946513,21.8356411 C8.79674342,20.9138265 3.07804605,17.4601179 0.878480263,11.6993232 C0.493480263,10.6925682 0.217032895,9.61442252 0.0869144737,8.4678 C0.0766381579,8.37455497 0.0680986842,8.28130993 0.0607171053,8.18515099 C0.0245328947,7.78448874 -7.23684211e-05,6.7296543 -7.23684211e-05,6.22263444 L-7.23684211e-05,5.83508477 C0.296782895,2.1693894 2.78770395,0.249124503 4.94283553,0.0495218543 C5.29020395,0.0116410596 5.61151974,-1.45695364e-05 5.93413816,-1.45695364e-05 C8.41203289,-1.45695364e-05 9.60032237,1.03442252 10.9769145,2.61813113 C12.3387434,1.03442252 13.528625,-1.45695364e-05 16.0065197,-1.45695364e-05 C16.3162566,-1.45695364e-05 16.6504539,0.0116410596 17.0095461,0.0495218543 C19.1529539,0.249124503 21.6308487,2.1693894 21.9407303,5.83508477" id="Fill-1" fill="#00A0DF" mask="url(#mask-2)"></path>
            </g>
        </g>
    </g>
</svg>