<?xml version="1.0" encoding="UTF-8"?>
<svg width="30px" height="30px" viewBox="0 0 25 25" version="1.1" xmlns="http://www.w3.org/2000/svg" xmlns:xlink="http://www.w3.org/1999/xlink">
    <!-- Generator: Sketch 48.2 (47327) - http://www.bohemiancoding.com/sketch -->
    <title>nav icons/home/white</title>
    <desc>Created with Sketch.</desc>
    <defs></defs>
    <g id="Symbols" stroke="none" stroke-width="1" fill="none" fill-rule="evenodd">
        <g id="nav-icons/home/white" fill="#FFFFFF">
            <path d="M24.5316283,11.5549507 L21.1472533,8.15379934 C21.1252138,8.13159539 21.1128783,8.10149671 21.1128783,8.07024671 L21.1128783,4.35149671 L21.1128783,3.04508224 C21.1128783,2.39113487 20.5826151,1.86103618 19.9286678,1.86103618 L18.4732401,1.86103618 C17.8191283,1.86103618 17.2890296,2.39113487 17.2890296,3.04508224 L17.2890296,4.27616776 L13.4347533,0.402648026 C12.9005428,-0.134194079 12.0317928,-0.134194079 11.4975822,0.402648026 L0.400542763,11.5549507 C-0.457023026,12.4167928 0.153338816,13.8852138 1.36912829,13.8852138 L3.70087171,13.8852138 C3.76616776,13.8852138 3.81912829,13.9381743 3.81912829,14.0036349 L3.81912829,23.7472204 C3.81912829,24.4013322 4.34939145,24.9315954 5.00350329,24.9315954 L19.9286678,24.9315954 C20.5826151,24.9315954 21.1128783,24.4013322 21.1128783,23.7472204 L21.1128783,14.0036349 C21.1128783,13.9381743 21.1658388,13.8852138 21.2312993,13.8852138 L23.5630428,13.8852138 C24.7788322,13.8852138 25.3891941,12.4167928 24.5316283,11.5549507" id="Fill-1"></path>
        </g>
    </g>
</svg>