<?xml version="1.0" encoding="UTF-8"?>
<svg width="25px" height="25px" viewBox="0 0 31 31" version="1.1" xmlns="http://www.w3.org/2000/svg" xmlns:xlink="http://www.w3.org/1999/xlink">
    <!-- Generator: Sketch 48.2 (47327) - http://www.bohemiancoding.com/sketch -->
    <title>nav icons/notification/active</title>
    <desc>Created with Sketch.</desc>
    <defs></defs>
    <g id="Symbols" stroke="none" stroke-width="1" fill="none" fill-rule="evenodd">
        <g id="nav-icons/notification/active" fill="#97CAEB">
            <g id="Page-1">
                <path d="M27.4054413,19.304849 C26.9882545,17.4109181 26.6405989,15.4985797 26.3542942,13.5801055 C26.1068452,11.9089058 25.8205405,10.2667491 24.9861669,8.76960291 C23.8838939,6.79161097 22.1742461,5.60350683 19.9962856,5.0369638 C19.3725504,4.86086505 18.6179331,4.77312246 17.8714959,4.77496321 L17.7782424,4.77496321 C18.7199802,3.11521711 18.6036178,1.74692365 17.4645343,0.752712215 C16.3628748,-0.209183771 14.8378935,-0.253361855 13.7352115,0.644312284 C12.5051239,1.64609126 12.3462248,3.0192934 13.2916437,4.77496321 L13.1517635,4.77496321 C12.3908066,4.77721302 11.6607297,4.86720542 11.0738051,5.05537134 C8.14736238,5.7935135 6.23730124,7.60379234 5.4070177,10.4058283 C4.94893024,11.9438801 4.81395804,13.5801055 4.55832887,15.1754252 C4.0450255,18.3619741 3.5787579,21.56284 0.858863556,23.8083548 C0.640044988,23.9885441 0.476442321,24.2646571 0.353740321,24.5264532 C-0.523578982,26.3753878 0.269893954,27.6432579 2.30265709,27.6514391 C3.84134018,27.6563477 5.38022777,27.6551206 6.91891085,27.6540979 C8.14940741,27.654507 9.37969947,27.6536889 10.6104005,27.6540979 L12.0554211,27.6540979 C12.6689311,29.8889773 13.6388904,30.9482287 15.2800297,30.9975199 C17.5101385,31.0648097 18.6441095,29.7580792 18.9981048,27.6536889 L20.5009998,27.6536889 C21.4543943,27.6543025 22.3996087,27.654507 23.3399151,27.6538934 C25.1147995,27.6547115 26.864121,27.6557342 28.612011,27.647553 C29.0210177,27.6455078 29.4341144,27.596421 29.836986,27.516655 C30.5650179,27.3691902 30.941304,26.8948894 30.9903848,26.1544974 C31.0578709,25.1236754 30.7756563,24.2196609 29.9678681,23.5447179 C28.6242812,22.4218583 27.7776374,20.9838207 27.4054413,19.304849 Z" id="Fill-1"></path>
            </g>
        </g>
    </g>
</svg>