<?xml version="1.0" encoding="UTF-8"?>
<svg width="30px" height="30px" viewBox="0 0 300 300" version="1.1" xmlns="http://www.w3.org/2000/svg" xmlns:xlink="http://www.w3.org/1999/xlink">
    <!-- Generator: Sketch 48.2 (47327) - http://www.bohemiancoding.com/sketch -->
    <title>otherly coins</title>
    <desc>Created with Sketch.</desc>
    <defs>
        <polygon id="path-1" points="0.0004 0 294.662 0 294.662 266.103 0.0004 266.103"></polygon>
    </defs>
    <g id="Symbols" stroke="none" stroke-width="1" fill="none" fill-rule="evenodd">
        <g id="otherly-coins">
            <g id="Page-1" transform="translate(0.000000, 14.000000)">
                <mask id="mask-2" fill="white">
                    <use xlink:href="#path-1"></use>
                </mask>
                <g id="Clip-2"></g>
                <path d="M200.5694,118.8022 C200.5094,120.4862 200.4494,122.1092 200.2684,123.7322 L200.2684,123.7922 C195.8204,167.2002 148.6834,189.5062 147.3614,190.0482 C147.3614,190.0482 99.3834,167.2612 94.5134,124.3932 C94.2724,122.0492 94.0924,119.5842 94.0924,117.0582 L94.0924,115.1952 C95.5354,97.5192 107.6204,88.2602 118.0814,87.2982 C119.7644,87.1172 121.3274,87.0572 122.8914,87.0572 C134.9154,87.0572 140.6874,92.0472 147.3614,99.6832 C153.9744,92.0472 159.7464,87.0572 171.7704,87.0572 C173.2734,87.0572 174.8974,87.1172 176.6404,87.2982 C187.0424,88.2602 199.0664,97.5192 200.5694,115.1952 L200.5694,118.8022 Z M285.2824,79.7822 C279.0904,63.7902 269.8314,49.7812 257.6864,37.8172 C245.4214,25.9122 230.0294,16.5932 211.4524,9.9202 C192.8744,3.3062 171.4104,-0.0008 147.1804,-0.0008 C123.1314,-0.0008 101.9084,3.2462 83.5704,9.7992 C65.2334,16.4132 49.7814,25.7922 37.2764,37.9972 C24.7104,50.2022 15.3914,64.2102 9.1984,80.0232 C3.0664,95.8352 0.0004,113.3912 0.0004,132.7502 C0.0004,158.3632 5.5314,181.1502 16.5334,201.1702 C27.5964,221.2512 44.1304,237.0642 66.3154,248.6672 C88.4414,260.2712 115.3754,266.1032 147.1804,266.1032 C178.9854,266.1032 205.9804,260.2712 228.1054,248.6672 C250.2304,237.0642 266.8844,221.2512 278.0074,201.1702 C289.0704,181.1502 294.6624,158.3632 294.6624,132.7502 C294.6624,113.3912 291.5354,95.7752 285.2824,79.7822 Z" id="Fill-1" fill="#FFFFFF" mask="url(#mask-2)"></path>
            </g>
        </g>
    </g>
</svg>