<?xml version="1.0" encoding="UTF-8"?>
<svg width="22px" height="22px" viewBox="0 0 22 22" version="1.1" xmlns="http://www.w3.org/2000/svg" xmlns:xlink="http://www.w3.org/1999/xlink">
    <!-- Generator: Sketch 48.2 (47327) - http://www.bohemiancoding.com/sketch -->
    <title>talk icon/delete</title>
    <desc>Created with Sketch.</desc>
    <defs>
        <polygon id="path-1" points="0.01271875 0.00929192547 7.74558125 0.00929192547 7.74558125 7.69286708 0.01271875 7.69286708"></polygon>
        <polygon id="path-3" points="0.0529424988 0.0818919255 11.2672146 0.0818919255 11.2672146 11.2049689 0.0529424988 11.2049689"></polygon>
    </defs>
    <g id="talk-Details" stroke="none" stroke-width="1" fill="none" fill-rule="evenodd" transform="translate(-308.000000, -398.000000)">
        <g id="Group" transform="translate(294.000000, 320.000000)">
            <g id="Remove" transform="translate(0.000000, 78.000000)">
                <g id="Talk-icons/remove-participant" transform="translate(14.000000, 0.000000)">
                    <g id="Page-1">
                        <g id="Group-3" transform="translate(4.812500, 0.127354)">
                            <mask id="mask-2" fill="white">
                                <use xlink:href="#path-1"></use>
                            </mask>
                            <g id="Clip-2"></g>
                            <path d="M7.74558125,3.85106584 C7.74558125,5.97317764 6.01390625,7.69286708 3.87976875,7.69286708 C1.74439375,7.69286708 0.01271875,5.97317764 0.01271875,3.85106584 C0.01271875,1.72909068 1.74439375,0.00926459627 3.87976875,0.00926459627 C6.01390625,0.00926459627 7.74558125,1.72909068 7.74558125,3.85106584" id="Fill-1" fill="#D4DCE6" mask="url(#mask-2)"></path>
                        </g>
                        <path d="M14.7083888,10.5630472 C14.0098888,10.7693826 13.3691388,11.0536062 12.7983763,11.4075193 C11.9253887,11.9472708 11.2460013,12.6113702 10.7786388,13.3791839 C10.3687513,14.0475193 10.1392638,14.766277 10.0966388,15.5150969 C10.0593762,16.1571963 10.1680013,16.7953329 10.4156388,17.4131093 L0.82501375,17.4131093 C0.36851375,17.4131093 1.375e-05,17.045395 1.375e-05,16.5918671 L1.375e-05,16.0616807 C0.01513875,13.6975689 1.23751375,11.5865255 3.14738875,10.1872708 C4.65301375,9.08317143 6.58626375,8.42030186 8.69276375,8.42030186 C10.7991263,8.42030186 12.7311388,9.08317143 14.2353888,10.1872708 C14.3990137,10.3075193 14.5557638,10.4318671 14.7083888,10.5630472" id="Fill-4" fill="#D4DCE6"></path>
                        <path d="M17.3455975,15.4084994 C16.9454725,15.5422758 16.6567225,15.9195553 16.6567225,16.3636547 L16.6567225,16.6205491 C16.6305975,16.6178161 16.6058475,16.6135801 16.5797225,16.6096174 C15.8605975,16.486636 15.2377225,16.2215429 14.7303475,15.8239031 C14.2339725,15.4330957 13.9397225,14.997195 13.8324725,14.491605 C13.7210975,13.9641516 13.8338475,13.4735925 14.1775975,12.9924621 C14.5158475,12.5211702 15.0245975,12.1508596 15.6887225,11.8912323 C15.7450975,11.8693689 15.8179725,11.8461391 15.9032225,11.8229093 L15.904735,11.8229093 C16.6993475,12.865518 17.210985,14.0884994 17.3455975,15.4084994" id="Fill-6" fill="#D4DCE6"></path>
                        <g id="Group-10" transform="translate(10.725000, 10.785739)">
                            <mask id="mask-4" fill="white">
                                <use xlink:href="#path-3"></use>
                            </mask>
                            <g id="Clip-9"></g>
                            <path d="M11.122375,8.49395404 C10.231375,9.08699752 8.105625,10.4999168 7.1264875,11.1489851 C7.068875,11.1858795 7.007,11.2050099 6.945125,11.2050099 C6.776,11.2050099 6.617875,11.0697304 6.617875,10.8784261 L6.617875,10.1718298 C6.617875,9.99842609 6.480375,9.85494783 6.30575,9.84661242 C6.19575,9.84264969 6.087125,9.83568075 5.979875,9.82898509 C5.05725,9.76735776 4.19375,9.56115901 3.388,9.22227702 C2.679875,8.92712174 2.069375,8.54451304 1.55375,8.07991677 C1.0709875,7.6438795 0.6983625,7.15878634 0.441375,6.62737019 C0.43175,6.60673665 0.422125,6.5863764 0.4125,6.5658795 C0.1428625,5.98240124 0.023375,5.38238882 0.059125,4.76748199 C0.094875,4.13358137 0.287375,3.52673665 0.642125,2.94749441 C1.060125,2.26016522 1.66375,1.68078634 2.43925,1.20115901 C3.031875,0.832214907 3.697375,0.554686957 4.426125,0.363519255 C4.4741125,0.351221118 4.521,0.338786335 4.569125,0.327854658 C5.075125,0.205009938 5.589375,0.131221118 6.120125,0.0970596273 C6.149,0.0941900621 6.593125,0.0818919255 6.593125,0.0818919255 C6.565625,0.087357764 5.278625,0.248736646 4.7135,0.46996646 C4.71075,0.471469565 4.709375,0.471469565 4.706625,0.472836025 C3.917375,0.781655901 3.309625,1.22985466 2.8928625,1.81196646 C2.437875,2.44873665 2.283875,3.1306 2.435125,3.8479913 C2.57675,4.51195404 2.960375,5.08723354 3.579125,5.57382981 C4.173125,6.04115901 4.896375,6.35407826 5.740625,6.49755652 C5.88225,6.52078634 6.02525,6.53841366 6.171,6.55494783 C6.318125,6.56997888 6.466625,6.58487329 6.617875,6.60277391 L6.61925,6.60277391 L6.61925,5.57792919 C6.61925,5.52040124 6.633,5.46724596 6.659125,5.4221528 C6.7155,5.3169354 6.826875,5.25134534 6.9465,5.25134534 C7.007,5.25134534 7.07025,5.26897267 7.1264875,5.30737019 C8.256875,6.05619006 10.2135,7.35159379 11.122375,7.95420248 C11.3147375,8.08251304 11.31625,8.36550683 11.122375,8.49395404" id="Fill-8" fill="#D4DCE6" mask="url(#mask-4)"></path>
                        </g>
                    </g>
                </g>
            </g>
        </g>
    </g>
</svg>