<?xml version="1.0" encoding="UTF-8"?>
<svg width="35px" height="35px" viewBox="0 0 35 35" version="1.1" xmlns="http://www.w3.org/2000/svg" xmlns:xlink="http://www.w3.org/1999/xlink">
    <!-- Generator: Sketch 48.2 (47327) - http://www.bohemiancoding.com/sketch -->
    <title>Other icons/edit</title>
    <desc>Created with Sketch.</desc>
    <defs></defs>
    <g id="talk-Details" stroke="none" stroke-width="1" fill="none" fill-rule="evenodd" transform="translate(-165.000000, -102.000000)">
        <g id="Other-icons/edit" transform="translate(165.000000, 102.000000)">
            <g id="edit">
                <g></g>
                <path d="M12.6,5.05430464 C12.6826236,5.13596433 12.7290765,5.24696906 12.7290765,5.36274834 C12.7290765,5.47852763 12.6826236,5.58953236 12.6,5.67119205 L4.56,13.6589404 L4.208,14.0066225 C4.1069153,14.106353 3.97922894,14.1752882 3.84,14.205298 L0.529,14.8927152 C0.384101421,14.9230904 0.233563925,14.8786755 0.128848609,14.7746537 C0.0241332933,14.6706319 -0.0205777147,14.5210913 0.01,14.3771523 L0.7,11.0860927 C0.729417297,10.9477829 0.798941884,10.8210502 0.9,10.7215232 L1.249,10.3748344 L2.638,8.99503311 L9.292,2.38410596 C9.37420409,2.30202955 9.48594885,2.25588431 9.6025,2.25588431 C9.71905115,2.25588431 9.83079591,2.30202955 9.913,2.38410596 L12.6,5.05430464 Z" id="Shape" fill="#D4DCE6" fill-rule="nonzero"></path>
                <path d="M14.786,3.49569536 L13.721,4.55463576 C13.5493137,4.72449973 13.2716863,4.72449973 13.1,4.55463576 L10.416,1.88741722 C10.3333764,1.80575752 10.2869235,1.6947528 10.2869235,1.57897351 C10.2869235,1.46319422 10.3333764,1.3521895 10.416,1.2705298 L11.48,0.212582781 C11.7660682,-0.0707055899 12.2289318,-0.0707055899 12.515,0.212582781 L14.786,2.46854305 C15.0710618,2.75237631 15.0710618,3.2118621 14.786,3.49569536 Z" id="Shape" fill="#D4DCE6" fill-rule="nonzero"></path>
            </g>
        </g>
    </g>
</svg>