<?xml version="1.0" encoding="UTF-8"?>
<svg width="30px" height="30px" viewBox="0 0 22 22" version="1.1" xmlns="http://www.w3.org/2000/svg" xmlns:xlink="http://www.w3.org/1999/xlink">
    <!-- Generator: Sketch 48.2 (47327) - http://www.bohemiancoding.com/sketch -->
    <title>nav icons/talk/active</title>
    <desc>Created with Sketch.</desc>
    <defs>
        <polygon id="path-1" points="0.0002 0.0001 22.0002 0.0001 22.0002 22.0001145 0.0002 22.0001145"></polygon>
    </defs>
    <g id="Symbols" stroke="none" stroke-width="1" fill="none" fill-rule="evenodd">
        <g id="nav-icons/talk/active">
            <mask id="mask-2" fill="white">
                <use xlink:href="#path-1"></use>
            </mask>
            <g id="Clip-2"></g>
            <path d="M14.5301605,11.9900145 C13.9671342,11.9900145 13.5097658,11.5340934 13.5097658,10.9696197 C13.5097658,10.4065934 13.9671342,9.95067237 14.5301605,9.95067237 C15.0931868,9.95067237 15.5505553,10.4065934 15.5505553,10.9696197 C15.5505553,11.5340934 15.0931868,11.9900145 14.5301605,11.9900145 M10.9710816,11.9900145 C10.4066079,11.9900145 9.95068684,11.5340934 9.95068684,10.9696197 C9.95068684,10.4065934 10.4066079,9.95067237 10.9710816,9.95067237 C11.5341079,9.95067237 11.9900289,10.4065934 11.9900289,10.9696197 C11.9900289,11.5340934 11.5341079,11.9900145 10.9710816,11.9900145 M7.41055526,11.9900145 C6.84752895,11.9900145 6.39016053,11.5340934 6.39016053,10.9696197 C6.39016053,10.4065934 6.84752895,9.95067237 7.41055526,9.95067237 C7.97358158,9.95067237 8.43095,10.4065934 8.43095,10.9696197 C8.43095,11.5340934 7.97358158,11.9900145 7.41055526,11.9900145 M10.9710816,1.44736842e-05 C10.8191079,1.44736842e-05 10.6685816,0.00290921053 10.5195026,0.0101460526 C10.3660816,0.00290921053 10.2112132,1.44736842e-05 10.0563447,1.44736842e-05 C4.50279211,1.44736842e-05 2.89473683e-05,4.09317237 2.89473683e-05,9.14159342 C2.89473683e-05,9.42817237 0.0145026316,9.71185658 0.04345,9.99264605 C0.515292105,14.6430408 4.81831842,18.2846197 10.0563447,18.2846197 L10.0650289,18.2846197 C10.5643711,18.2846197 10.9710816,18.6797513 10.9710816,19.1776461 L10.9710816,21.9406724 C17.0297658,21.9406724 21.9406868,17.0283039 21.9406868,10.9696197 C21.9406868,4.91093553 17.0297658,1.44736842e-05 10.9710816,1.44736842e-05" id="Fill-1" fill="#97CAEB" mask="url(#mask-2)"></path>
        </g>
    </g>
</svg>