<?xml version="1.0" encoding="UTF-8"?>
<svg width="25px" height="25px" viewBox="0 0 28 28" version="1.1" xmlns="http://www.w3.org/2000/svg" xmlns:xlink="http://www.w3.org/1999/xlink">
    <!-- Generator: Sketch 48.2 (47327) - http://www.bohemiancoding.com/sketch -->
    <title>www</title>
    <desc>Created with Sketch.</desc>
    <defs>
        <polygon id="path-1" points="0.0009 0 28 0 28 27.9997 0.0009 27.9997"></polygon>
        <polygon id="path-3" points="0.000868965517 0 27.0344828 0 27.0344828 27.9997 0.000868965517 27.9997"></polygon>
    </defs>
    <g id="Symbols" stroke="none" stroke-width="1" fill="none" fill-rule="evenodd">
        <g id="www">
            <mask id="mask-2" fill="white">
                <use xlink:href="#path-1"></use>
            </mask>
            <g id="Clip-2"></g>
            <path d="M18.8569,21.3887 C17.8629,24.1227 16.3979,25.8897 14.7789,26.3207 L14.7789,20.6857 C16.2269,20.7507 17.5959,20.9877 18.8569,21.3887 Z M14.7789,7.3157 L14.7789,1.6807 C16.4009,2.1167 17.8649,3.8837 18.8579,6.6127 C17.5959,7.0187 16.2269,7.2537 14.7789,7.3157 Z M20.2869,6.0467 C19.7309,4.5647 19.0219,3.2947 18.2039,2.3077 C19.7289,2.8627 21.1459,3.7167 22.3609,4.8197 C21.7479,5.2887 21.0529,5.7007 20.2869,6.0467 Z M9.1429,6.6117 C10.1369,3.8827 11.6009,2.1167 13.2209,1.6807 L13.2209,7.3147 C11.7729,7.2487 10.4039,7.0127 9.1429,6.6117 Z M5.6389,4.8247 C6.8539,3.7177 8.2719,2.8617 9.7979,2.3097 C8.9799,3.2967 8.2699,4.5687 7.7129,6.0517 C6.9389,5.6987 6.2439,5.2867 5.6389,4.8247 Z M13.2209,20.6847 L13.2209,26.3197 C11.5989,25.8837 10.1349,24.1167 9.1419,21.3877 C10.4039,20.9817 11.7729,20.7457 13.2209,20.6847 Z M7.7129,21.9527 C8.2699,23.4367 8.9789,24.7077 9.7979,25.6957 C8.2769,25.1447 6.8589,24.2877 5.6389,23.1807 C6.2519,22.7107 6.9469,22.2987 7.7129,21.9527 Z M22.3609,23.1757 C21.1399,24.2877 19.7219,25.1447 18.1989,25.6937 C19.0189,24.7047 19.7289,23.4337 20.2869,21.9487 C21.0609,22.3017 21.7559,22.7127 22.3609,23.1757 Z M25.0519,13.2207 C24.8909,13.2207 24.7599,13.3517 24.7599,13.5117 L24.7599,14.4887 C24.7599,14.6487 24.8909,14.7797 25.0519,14.7797 L26.3989,14.7797 C26.2319,17.4567 25.1909,20.0237 23.4419,22.0627 C22.6699,21.4507 21.7729,20.9157 20.7669,20.4697 C20.9839,19.7017 21.1629,18.8947 21.2979,18.0657 C21.3129,17.9817 21.2889,17.8957 21.2329,17.8297 C21.1779,17.7647 21.0969,17.7277 21.0109,17.7277 L20.0279,17.7277 C19.8849,17.7277 19.7629,17.8297 19.7399,17.9707 C19.6279,18.6377 19.4879,19.2877 19.3229,19.9097 C17.9139,19.4557 16.3879,19.1927 14.7789,19.1247 L14.7789,18.0187 C14.7789,17.8577 14.6489,17.7277 14.4879,17.7277 L13.5119,17.7277 C13.3509,17.7277 13.2209,17.8577 13.2209,18.0187 L13.2209,19.1247 C11.6209,19.1927 10.0949,19.4557 8.6769,19.9107 C8.5119,19.2887 8.3719,18.6377 8.2599,17.9707 C8.2369,17.8297 8.1149,17.7277 7.9719,17.7277 L6.9839,17.7277 C6.8989,17.7277 6.8169,17.7647 6.7619,17.8297 C6.7069,17.8957 6.6829,17.9817 6.6969,18.0667 C6.8349,18.8967 7.0139,19.7027 7.2319,20.4687 C6.2389,20.9067 5.3409,21.4397 4.5579,22.0587 C2.8109,20.0257 1.7679,17.4607 1.5959,14.7797 L2.9479,14.7797 C3.1089,14.7797 3.2399,14.6487 3.2399,14.4887 L3.2399,13.5117 C3.2399,13.3517 3.1089,13.2207 2.9479,13.2207 L1.6009,13.2207 C1.7679,10.5477 2.8089,7.9827 4.5579,5.9377 C5.3299,6.5497 6.2259,7.0837 7.2329,7.5307 C7.0149,8.2947 6.8359,9.1017 6.6989,9.9347 C6.6849,10.0187 6.7099,10.1057 6.7639,10.1697 C6.8199,10.2357 6.9009,10.2727 6.9869,10.2727 L7.9669,10.2727 C8.1089,10.2727 8.2309,10.1697 8.2539,10.0297 C8.3669,9.3627 8.5059,8.7117 8.6719,8.0897 C10.0809,8.5437 11.6069,8.8077 13.2149,8.8747 L13.2159,9.9817 C13.2169,10.1427 13.3469,10.2727 13.5079,10.2727 L14.4879,10.2727 C14.6489,10.2727 14.7789,10.1427 14.7789,9.9817 L14.7789,8.8747 C16.3789,8.8077 17.9049,8.5437 19.3229,8.0887 C19.4879,8.7107 19.6279,9.3627 19.7399,10.0297 C19.7629,10.1697 19.8849,10.2727 20.0279,10.2727 L21.0159,10.2727 C21.1009,10.2727 21.1829,10.2357 21.2379,10.1697 C21.2939,10.1047 21.3169,10.0187 21.3029,9.9337 C21.1659,9.1037 20.9859,8.2967 20.7669,7.5307 C21.7729,7.0837 22.6699,6.5497 23.4419,5.9377 C25.1889,7.9807 26.2319,10.5457 26.4039,13.2207 L25.0519,13.2207 Z M13.9999,-0.0003 C6.2809,-0.0003 0.0009,6.2807 0.0009,13.9997 C0.0009,21.7197 6.2809,27.9997 13.9999,27.9997 C21.7189,27.9997 28.0009,21.7197 28.0009,13.9997 C28.0009,6.2807 21.7189,-0.0003 13.9999,-0.0003 Z" id="Fill-1" fill="#D4DCE6" mask="url(#mask-2)"></path>
            <path d="M10.1763,11.6846 L9.2963,11.6846 C9.1683,11.6846 9.0563,11.7726 9.0283,11.8976 L8.5483,13.9526 L8.0133,11.8906 C7.9813,11.7696 7.8713,11.6846 7.7453,11.6846 L6.9013,11.6846 C6.7753,11.6846 6.6643,11.7696 6.6333,11.8906 L6.0973,13.9526 L5.6153,11.8976 C5.5863,11.7726 5.4753,11.6846 5.3463,11.6846 L4.4673,11.6846 C4.3823,11.6846 4.3013,11.7236 4.2483,11.7906 C4.1973,11.8586 4.1783,11.9466 4.1993,12.0296 L5.2753,16.2446 C5.3063,16.3666 5.4163,16.4526 5.5423,16.4526 L6.5573,16.4526 C6.6843,16.4526 6.7933,16.3676 6.8253,16.2456 L7.3213,14.3176 L7.8183,16.2456 C7.8493,16.3676 7.9593,16.4526 8.0853,16.4526 L9.1033,16.4526 C9.2303,16.4526 9.3403,16.3666 9.3713,16.2446 L10.4443,12.0296 C10.4643,11.9466 10.4473,11.8586 10.3943,11.7906 C10.3413,11.7236 10.2613,11.6846 10.1763,11.6846" id="Fill-4" fill="#D4DCE6" mask="url(#mask-2)"></path>
            <path d="M16.7974,11.6846 L15.9184,11.6846 C15.7894,11.6846 15.6784,11.7726 15.6494,11.8976 L15.1704,13.9516 L14.6344,11.8906 C14.6034,11.7696 14.4924,11.6846 14.3664,11.6846 L13.5224,11.6846 C13.3964,11.6846 13.2864,11.7696 13.2544,11.8906 L12.7194,13.9526 L12.2374,11.8976 C12.2084,11.7726 12.0964,11.6846 11.9684,11.6846 L11.0884,11.6846 C11.0034,11.6846 10.9234,11.7236 10.8704,11.7906 C10.8184,11.8586 10.8004,11.9466 10.8204,12.0296 L11.8974,16.2446 C11.9274,16.3666 12.0374,16.4526 12.1644,16.4526 L13.1794,16.4526 C13.3054,16.4526 13.4154,16.3676 13.4464,16.2456 L13.9434,14.3176 L14.4404,16.2456 C14.4714,16.3676 14.5804,16.4526 14.7074,16.4526 L15.7254,16.4526 C15.8514,16.4526 15.9614,16.3666 15.9924,16.2446 L17.0664,12.0296 C17.0864,11.9466 17.0684,11.8586 17.0164,11.7906 C16.9634,11.7236 16.8834,11.6846 16.7974,11.6846" id="Fill-6" fill="#D4DCE6" mask="url(#mask-2)"></path>
            <path d="M22.2612,11.8975 L21.7822,13.9515 L21.2462,11.8905 C21.2142,11.7695 21.1052,11.6845 20.9792,11.6845 L20.1342,11.6845 C20.0082,11.6845 19.8982,11.7695 19.8662,11.8905 L19.3302,13.9525 L18.8492,11.8975 C18.8202,11.7725 18.7082,11.6845 18.5792,11.6845 L17.7002,11.6845 C17.6152,11.6845 17.5342,11.7235 17.4822,11.7915 C17.4302,11.8585 17.4112,11.9465 17.4332,12.0295 L18.5082,16.2445 C18.5392,16.3665 18.6502,16.4525 18.7762,16.4525 L19.7902,16.4525 C19.9172,16.4525 20.0272,16.3675 20.0592,16.2455 L20.5542,14.3175 L21.0512,16.2455 C21.0822,16.3675 21.1932,16.4525 21.3192,16.4525 L22.3362,16.4525 C22.4632,16.4525 22.5732,16.3665 22.6052,16.2445 L23.6772,12.0295 C23.6982,11.9465 23.6802,11.8585 23.6272,11.7915 C23.5752,11.7235 23.4942,11.6845 23.4092,11.6845 L22.5302,11.6845 C22.4022,11.6845 22.2892,11.7725 22.2612,11.8975" id="Fill-8" fill="#D4DCE6" mask="url(#mask-2)"></path>
            <g mask="url(#mask-2)">
                <mask id="mask-4" fill="white">
                    <use xlink:href="#path-3"></use>
                </mask>
                <g id="Clip-2"></g>
            </g>
        </g>
    </g>
</svg>